<?xml version="1.0" encoding="UTF-8"?>
<svg id="Capa_2" data-name="Capa 2" xmlns="http://www.w3.org/2000/svg" viewBox="0 0 184.16 609.79">
  <defs>
    <style>
      .cls-1 {
        fill: #fff;
      }
    </style>
  </defs>
  <g id="Capa_1-2" data-name="Capa 1">
    <g>
      <path class="cls-1" d="M27.66,318.73c-.2-5.17.6-10.35,1.93-15.33,1.43-5.4,3.58-10.62,6.16-15.56s5.86-9.96,9.48-14.46,7.47-8.46,11.85-12c4.08-3.3,8.46-6.11,13.27-8.13,2.55-1.07,4.9-1.74,7.56-2.39,3.31-.81,6.65-1.48,10.02-1.99,6.46-.98,12.99-1.36,19.52-1.04s12.75,1.31,18.93,3.03,12.27,4.21,17.94,7.36,11.08,6.84,15.67,11.44c4.17,4.18,7.65,8.97,10.49,14.14s5.04,10.67,6.74,16.31,2.95,11.55,3.85,17.44c.45,2.94.82,5.9,1.13,8.86.33,3.17.55,6.35.46,9.54-.16,5.75-1.23,11.47-3.28,16.86-1.94,5.09-4.62,9.86-7.68,14.35-3.26,4.79-6.89,9.32-10.51,13.84-1.94,2.42-3.87,4.85-5.77,7.3-2.1,2.72-4.29,5.38-6.4,8.1s-4.3,5.68-6.18,8.71c-1.78,2.86-3.28,5.87-4.24,9.11-2,6.78-2,13.97-2.42,20.97-.21,3.45-.54,6.86-1.18,10.25-.14.72,1.14.73,1.27.06.67-3.52.91-7.14,1.11-10.71s.32-7.23.69-10.83.92-6.96,2.01-10.28c.52-1.58,1.25-3.09,2.04-4.56s1.66-2.98,2.59-4.42c3.8-5.86,8.4-11.16,12.69-16.66,3.72-4.78,7.59-9.44,11.26-14.26,3.4-4.47,6.64-9.1,9.25-14.08,2.6-4.95,4.5-10.25,5.47-15.77.53-3.01.78-6.07.79-9.12,0-3.21-.28-6.41-.59-9.6-.58-5.98-1.46-11.94-2.76-17.81-1.31-5.89-3.06-11.7-5.4-17.26s-5.28-10.74-8.91-15.49c-1.81-2.37-3.79-4.6-5.94-6.67-2.35-2.27-4.9-4.29-7.58-6.15-5.5-3.83-11.44-7.02-17.67-9.49s-12.39-4.05-18.84-5-13.11-1.16-19.67-.74-13.49,1.56-20.07,3.24c-2.59.66-5.12,1.45-7.57,2.53s-4.68,2.29-6.88,3.68c-4.7,2.96-8.97,6.57-12.84,10.55-4.09,4.2-7.71,8.83-10.86,13.77s-5.76,10-7.77,15.39c-1.89,5.08-3.27,10.39-3.73,15.8-.21,2.43-.24,4.87-.05,7.3.03.35.64.23.63-.11h0Z"/>
      <path class="cls-1" d="M76.62,449.88c-1-1.22-1.72-2.7-2.22-4.18-.61-1.81-1.02-3.68-1.3-5.57-.63-4.27-.72-8.61-.72-12.91,0-3.86.15-7.73-.02-11.58-.21-4.7-1.81-9.24-4.29-13.21s-5.68-7.47-8.61-11.13c-1.63-2.04-3.18-4.15-4.59-6.35-1.51-2.37-3-4.76-4.44-7.17-2.88-4.82-5.61-9.74-8.09-14.78s-4.66-10.05-6.55-15.25-3.43-10.48-4.57-15.87-1.86-11-2.22-16.58c-.04-.69-.08-1.38-.11-2.07s-.16-1.4-.16-2.09c0-.43-.74-.43-.74-.04,0,.73-.11,1.46-.11,2.19s.01,1.43.03,2.14c.03,1.41.12,2.82.23,4.23.22,2.8.55,5.6,1.02,8.36.93,5.45,2.29,10.82,4,16.07s3.81,10.51,6.16,15.59,4.96,10.05,7.75,14.9c1.41,2.45,2.86,4.87,4.34,7.27s2.95,4.77,4.61,7.03c2.85,3.89,6.12,7.46,9,11.33s4.98,7.82,5.82,12.38c.36,1.97.44,3.95.46,5.95s0,3.93-.02,5.9c-.02,4.37-.03,8.76.42,13.11.38,3.71,1.01,7.66,3,10.89.4.65.87,1.24,1.42,1.77.23.23.72-.06.48-.35h0Z"/>
      <path class="cls-1" d="M77.94,443.19c-.59-.01-1.18-.01-1.76-.06-.42-.04-.54.55-.09.59.34.03.71.23,1.1.37.66.24,1.32.48,1.98.72,1.33.49,2.67.94,4.01,1.4,2.61.89,5.24,1.72,7.91,2.42,5.3,1.38,10.79,2.13,16.27,1.59,3.27-.32,6.48-1.15,9.5-2.46.39-.17.1-.61-.26-.48-2.75.96-5.6,1.66-8.49,2.02-2.68.33-5.39.34-8.08.1-5.42-.49-10.7-2-15.85-3.7-1.47-.48-2.93-1-4.4-1.49-.76-.25-1.52-.51-2.27-.76-.33-.11-.72-.31-1.08-.33-.11,0-.23.02-.34.03-.44.04-.34.61.1.58.56-.05,1.12-.05,1.69-.06.32,0,.43-.45.07-.46h0Z"/>
      <path class="cls-1" d="M76.73,445.41c-.15.31,0,.58.2.81.08.1.13.15.18.18.09.07.18.14.29.19.24.12.49.22.75.31,1.49.51,3.09.69,4.64.86,2.07.23,4.15.36,6.23.45s4.08.14,6.12.14c1.46,0,2.91-.03,4.37-.08.06,0,.12,0,.17,0,.05,0,.23,0,.16,0,.36,0,.47-.51.07-.51-1.28,0-2.56-.09-3.84-.12-1.93-.05-3.86-.1-5.79-.16-2.06-.07-4.12-.17-6.18-.32-1.67-.12-3.38-.3-4.95-.61-.29-.06-.58-.12-.87-.21-.26-.08-.48-.16-.68-.25-.16-.06-.31-.1-.41-.19s-.15-.15-.16-.27c0-.02,0-.1.01-.13.06-.2-.25-.26-.33-.09h0Z"/>
      <path class="cls-1" d="M75.12,446.86c-.34.41-.64.87-.84,1.36-.22.53-.39,1.09-.52,1.66-.29,1.21-.44,2.44-.61,3.67-.09.7-.19,1.41-.32,2.11-.04.21.13.34.3.41,3.38,1.32,6.61,3.01,10.02,4.27.46.17.92.33,1.39.46.5.13.99.23,1.5.29.15.02.34-.09.38-.24.05-.17-.06-.28-.21-.34-1.61-.64-3.25-1.18-4.85-1.85-1.7-.72-3.38-1.5-5.07-2.23-.92-.4-1.85-.79-2.8-1.13l.3.41c.18-1.21.28-2.44.43-3.66.14-1.13.29-2.29.67-3.37.18-.53.39-1.07.7-1.54.21-.31-.27-.52-.47-.27h0Z"/>
      <path class="cls-1" d="M73.6,454.18c.17.74.19,1.52.21,2.27.03.97.02,1.95.02,2.92s0,1.95.15,2.91c.1.73.25,1.49.71,2.07s1.06,1.05,1.66,1.48c.73.52,1.5.98,2.28,1.4,1.83,1.01,3.74,1.87,5.64,2.75s3.83,1.83,5.74,2.74c.12.06.27.05.38-.05.08-.08.13-.23.02-.32-1.42-1.14-3.15-1.86-4.79-2.63-1.89-.88-3.8-1.74-5.65-2.7-1.48-.77-3.03-1.59-4.2-2.78-.23-.23-.41-.42-.54-.67-.15-.31-.23-.6-.31-.95-.2-.88-.3-1.79-.37-2.7-.09-1.1-.14-2.2-.2-3.3-.04-.84-.07-1.72-.29-2.54-.06-.24-.5-.16-.45.08h0Z"/>
      <path class="cls-1" d="M76,466.89c0,.75.55,1.37,1.07,1.85.81.74,1.77,1.31,2.74,1.83,1.19.64,2.43,1.19,3.68,1.7s2.55.98,3.86,1.33,2.51.6,3.8.68c.32.02.4-.38.06-.44-1.03-.17-2.08-.49-3.09-.78-1.26-.37-2.51-.78-3.74-1.25s-2.4-.97-3.58-1.57c-.53-.27-1.05-.55-1.55-.86-.23-.14-.46-.29-.69-.44-.1-.07-.19-.13-.29-.2-.05-.03-.09-.07-.14-.1-.03-.02-.05-.04-.08-.06.06.05-.02-.02-.03-.02-.36-.28-.7-.58-.98-.93-.05-.06.04.06,0,0-.01-.02-.03-.04-.04-.06-.03-.04-.05-.07-.07-.11-.04-.07-.08-.15-.12-.23-.02-.05-.04-.11-.02-.04,0-.04-.02-.07-.03-.11-.02-.07-.03-.14-.03-.22,0-.18-.24-.26-.38-.25-.15.01-.37.12-.37.3h0Z"/>
      <path class="cls-1" d="M77.32,466.76c-2.76,1.25-2.89,4.62-2.15,7.17.43,1.47,1.1,2.88,1.93,4.17.74,1.14,1.6,2.24,2.65,3.1,1.81,1.49,4.08,2.24,6.28,2.98,2.43.81,4.93,1.57,7.13,2.91.96.59,1.87,1.31,2.53,2.23s1.05,2.07,1.18,3.22c.04.33.1.66.16.98s.52.21.59-.04c.65-2.4-.82-4.83-2.67-6.27-2.02-1.57-4.49-2.45-6.88-3.26-2.22-.75-4.58-1.36-6.6-2.58-2.21-1.33-3.86-3.67-4.92-6.01s-1.79-5.59.23-7.63c.24-.24.49-.49.76-.7.19-.15-.02-.37-.21-.28h0Z"/>
      <path class="cls-1" d="M96.7,492.86c-.21.16.02.32.18.37.26.09.56.14.84.17.44.05.9.04,1.34.04.6,0,1.2,0,1.8-.03,2.9-.11,5.8-.26,8.69-.41,1.22-.06,2.43-.19,3.64-.32.32-.03.31-.44,0-.48-.97-.11-1.97-.1-2.94-.09-1.37.02-2.75.13-4.12.21s-2.85.17-4.27.25c-.65.04-1.31.06-1.96.11-.02,0-.05,0-.07,0,.12,0,0,0-.03,0-.07,0-.14,0-.21.01-.14,0-.27.02-.41.02-.24.01-.48.03-.72.04-.15,0-.3,0-.44.02-.05,0-.1,0-.15.01-.03,0-.21.02-.09,0-.19.01-.37.05-.56.06-.03,0-.07,0-.1,0,.07,0,0,0-.03,0-.05,0-.09,0-.14,0-.06,0,0,0-.01,0-.01.02-.07-.05,0,0,.03.02.06.09.02.15.11-.16-.11-.28-.24-.18h0Z"/>
      <path class="cls-1" d="M114.08,494.83c.05.13,0-.04-.02-.08-.01-.06-.02-.11-.03-.17s-.01-.11-.01-.17,0-.07,0,0c0-.04,0-.07,0-.11.01-.28.07-.56.14-.83.01-.04.02-.08.03-.12.02-.06-.02.06.02-.05.03-.08.05-.16.08-.24.06-.17.13-.33.2-.49.16-.37.34-.73.54-1.08.99-1.78,2.29-3.42,3.63-5.01,1.6-1.89,3.33-3.68,5.15-5.36,1.69-1.56,3.53-3.09,5.46-4.39.42-.28.85-.56,1.29-.81.1-.06.2-.11.3-.17.1-.06-.02.01.06-.03.06-.03.12-.06.17-.1.2-.11.4-.21.61-.31.37-.18.74-.34,1.12-.48.08-.03.17-.06.25-.09.04-.01.08-.02.12-.04.15-.05-.08.02.04-.01.17-.04.33-.09.5-.12.07-.01.15-.02.22-.03.04,0,.08,0,.12-.01.02,0,.08,0-.02,0-.14.01.07,0,.13,0,.26-.02.52-.29.47-.55-.05-.3-.37-.38-.63-.36-.74.06-1.49.33-2.18.63-.89.38-1.74.87-2.56,1.38-1.99,1.26-3.82,2.75-5.57,4.33-1.9,1.71-3.71,3.54-5.39,5.47-1.44,1.66-2.81,3.43-3.92,5.34-.4.7-.78,1.43-1.03,2.19-.19.58-.34,1.21-.24,1.83.02.14.07.27.11.4.08.22.41.24.59.16.22-.09.31-.29.23-.51h0Z"/>
      <path class="cls-1" d="M135.96,445.12c-.54.19-1.05.57-1.13,1.17-.07.55.19,1.05.46,1.51.32.55.68,1.08.96,1.65.17.34.28.61.36.9.04.15.07.3.1.45.01.09.02.18.03.27,0,.03,0,.06,0,.09,0-.1,0,.08,0,.1,0,.16-.03.32-.06.47-.02.1-.04.17-.05.21-.02.05-.03.11-.05.16-.02.05-.02.05,0,0,0,.03-.02.06-.03.08-.11.33-.24.64-.38.96-.33.72-.75,1.42-1.17,2.03-.53.75-1.1,1.46-1.71,2.13-.31.35-.64.69-.97,1.02-.17.17-.33.33-.5.5-.08.07-.15.15-.23.22-.05.04-.09.09-.14.13-.08.08.02-.01-.07.07-.77.69-1.57,1.32-2.41,1.91-.19.13-.38.26-.57.38-.1.07-.21.13-.31.19-.04.02-.08.05-.12.07-.02.01-.21.12-.11.06-.39.22-.76.48-1.14.72-.34.22-.02.6.29.55.42-.06.84-.17,1.23-.34s.79-.41,1.17-.64c.76-.46,1.47-1,2.15-1.58,1.45-1.23,2.76-2.63,3.88-4.17.94-1.3,1.82-2.68,2.29-4.22.03-.08-.04.12.01-.03.02-.07.04-.15.06-.22.02-.08.04-.16.05-.24.03-.19.04-.37.04-.56,0-.37-.05-.72-.16-1.07-.2-.67-.53-1.29-.89-1.88-.33-.55-.65-1.08-.91-1.67-.04-.09.02.09,0,.02,0-.03-.02-.06-.03-.1-.01-.05-.02-.11-.03-.16,0-.04.02-.1,0,.02,0-.03,0-.06,0-.09,0-.02.01-.04.01-.06,0-.05-.05.08,0,0,0-.01.02-.03.02-.05.04-.1-.04.03,0-.02.02-.02.16-.16.05-.07.05-.04.1-.08.16-.12.01,0,.12-.07.03-.02.05-.03.1-.05.15-.07.19-.09.34-.3.23-.51s-.39-.23-.59-.16h0Z"/>
      <path class="cls-1" d="M135.67,452.34c-.94.92-1.46,2.24-1.67,3.52-.23,1.44-.15,2.95.17,4.36.18.8.44,1.63.83,2.35l.2-.69c-.6.53-1.28.98-1.96,1.4-.08.05-.17.1-.25.15-.03.02-.07.04-.1.06-.01,0-.18.1-.06.03-.18.1-.37.2-.56.3-.37.19-.75.38-1.13.55-.81.37-1.63.69-2.47.99-.41.14-.82.28-1.23.41-.21.07-.42.13-.63.19-.01,0-.22.06-.08.02-.04.01-.08.02-.13.04-.13.04-.25.07-.38.11-.25.07-.51.14-.76.21-.15.04-.31.09-.46.13-.12.04.15-.04-.05.02-.06.02-.13.04-.19.06-.54.15-1.04.35-1.55.58-.14.06-.26.2-.23.37.03.16.19.27.35.27.49,0,.98-.02,1.46-.12s.9-.2,1.35-.32c.93-.25,1.86-.53,2.77-.84,1.69-.58,3.33-1.28,4.87-2.17.8-.46,1.56-.99,2.28-1.56.22-.17.32-.43.2-.69-.14-.31-.29-.62-.41-.94-.01-.03-.02-.07-.04-.1-.06-.16.02.07-.01-.03-.03-.07-.05-.15-.07-.23-.05-.17-.1-.34-.15-.51-.18-.67-.3-1.37-.35-2.06-.01-.17-.02-.34-.03-.51,0-.03,0-.25,0-.14,0-.1,0-.19,0-.29,0-.34.03-.68.07-1.01s.09-.65.17-.97c.04-.15.08-.3.12-.45.02-.07.04-.14.06-.21.03-.09-.04.12,0-.02.01-.04.03-.09.04-.13.11-.32.25-.62.42-.91.02-.03.03-.05.05-.08.07-.12-.06.09.02-.03.05-.07.09-.13.14-.19.1-.13.21-.25.32-.37.2-.21.12-.54-.12-.68-.27-.16-.6-.07-.81.14h0Z"/>
      <path class="cls-1" d="M133.7,462.39c.2,2.18.68,4.33.83,6.51.04.55.05.99.02,1.54s-.08,1.05-.18,1.56c-.05.26-.11.51-.19.76.03-.09-.02.05-.03.08-.02.06-.04.12-.06.18-.04.12-.09.25-.14.37-.1.23-.21.46-.34.68-.03.06-.06.11-.1.16-.02.03-.04.06-.06.09,0-.02.06-.09,0-.01-.07.11-.15.21-.22.32-.17.22-.34.42-.54.62-.05.05-.1.1-.15.14-.08.08,0,0,.01-.01-.02.02-.05.04-.07.06-.12.1-.24.21-.36.3-.24.18-.48.36-.73.52-.3.19-.81.38-.85.79-.02.2.07.35.25.44.29.14.61.07.88-.07.32-.17.63-.36.92-.57.49-.35.94-.78,1.32-1.24.7-.85,1.16-1.85,1.4-2.92s.25-2.12.2-3.18c-.11-2.2-.63-4.34-.94-6.51-.04-.25-.07-.51-.1-.76-.05-.44-.83-.3-.79.14h0Z"/>
      <path class="cls-1" d="M74.88,459.98c3.54-.25,7.06.28,10.53.92,3.95.73,7.86,1.71,11.85,2.23,2.04.27,4.1.48,6.15.43.31,0,.42-.44.07-.45-3.82-.11-7.59-.92-11.33-1.66s-7.75-1.65-11.69-2c-1.87-.17-3.8-.27-5.65.09-.34.07-.25.46.08.44h0Z"/>
      <path class="cls-1" d="M102.69,463.6c2.35-1.48,5.29-1.78,8.01-1.8,3.14-.03,6.25.36,9.37.6,1.59.12,3.18.23,4.78.17.35-.01.48-.49.07-.51-3.01-.12-6.01-.53-9.01-.78s-6.31-.42-9.4.15c-1.54.29-3.04.79-4.37,1.63-.18.11-.21.36-.07.51.16.17.43.13.6.02h0Z"/>
      <path class="cls-1" d="M82.94,451.45c-.45.2-1.61.69-1.2,1.38.34.58,1.37.65,1.95.73.99.14,1.99.2,2.98.27.44.03.89.07,1.33.13.04,0,.09.01.13.02-.09-.01,0,0,.04,0,.08.02.16.03.24.05.46.11.92.23,1.39.34,3.81.89,7.7,1.45,11.61,1.64s7.74.03,11.57-.46,7.62-1.31,11.23-2.67c.45-.17.89-.34,1.34-.52.16-.06.27-.25.19-.41-.09-.18-.32-.18-.48-.13-7.07,2.08-14.35,3.38-21.73,3.27-3.69-.06-7.39-.42-11.02-1.09-.92-.17-1.84-.36-2.76-.57-.55-.13-1.1-.27-1.66-.34-.9-.11-1.82-.14-2.73-.18s-1.87-.03-2.7-.29c-.03-.01-.06-.02-.1-.03-.06-.02.04.02-.05-.02-.02-.01-.05-.03-.07-.04-.06-.04.05.04,0,0-.09-.07,0-.02-.02,0,0,0,0-.05-.01-.06.01.13.04-.15,0-.02.02-.07-.03.06,0-.02.01-.02.02-.05.04-.07.02-.03.08-.1.12-.16.16-.18.36-.34.56-.48.17-.13-.02-.32-.19-.25h0Z"/>
      <path class="cls-1" d="M75.49,447c.25-3.17,3.39-5.07,6-6.24,3.56-1.6,7.4-2.48,11.2-3.26,1.72-.35,3.45-.69,5.17-1.05.28-.06.22-.41-.07-.37-1.57.19-3.13.41-4.69.69-1.94.35-3.87.79-5.78,1.31s-3.89,1.14-5.74,1.97c-1.6.71-3.18,1.58-4.47,2.78-1.17,1.08-2.01,2.56-1.9,4.19,0,.13.26.11.27-.02h0Z"/>
      <path class="cls-1" d="M96.64,436.1c-2.06,1.2-4.27,2.11-6.47,2.99s-4.53,1.73-6.76,2.7c-.64.28-1.28.57-1.91.87-.31.15-.61.3-.9.47-.17.09-.35.18-.51.29-.15.1-.28.23-.41.35-.23.21.09.51.33.45.16-.04.33-.07.48-.13s.28-.14.42-.21c.28-.14.56-.27.85-.41.56-.28,1.12-.54,1.69-.8,1.12-.51,2.26-.99,3.4-1.47,2.23-.93,4.49-1.8,6.65-2.86,1.19-.59,2.36-1.21,3.49-1.9.11-.07.13-.22.04-.32-.1-.11-.26-.08-.38-.01h0Z"/>
      <path class="cls-1" d="M110.14,439.1c2.65-.61,5.38-1.05,8.1-1.19,2.9-.16,5.86.02,8.67.79,1.55.42,3.09,1.02,4.47,1.84.24.14.58-.17.31-.37-2.4-1.77-5.29-2.61-8.23-2.92s-6.02-.13-8.98.33c-1.5.23-2.98.57-4.45.97-.15.04-.31.15-.29.34.03.17.23.25.38.22h0Z"/>
      <path class="cls-1" d="M122.3,451.38c1.66.21,3.35.18,5-.08s3.27-.74,4.74-1.52c.81-.43,1.6-.93,2.32-1.5l-.61-.46c-.21.29-.43.58-.67.85-.12.13-.24.26-.36.39-.06.06-.12.12-.18.18-.03.03-.06.06-.09.09,0,0-.05.05-.02.02.03-.02-.03.03-.04.03-.55.49-1.14.94-1.75,1.34-.31.2-.62.39-.94.58-.08.05-.17.1-.25.14.07-.04-.03.02-.05.03-.04.02-.09.05-.14.07-.16.09-.32.17-.49.26-.65.34-1.31.65-1.97.97-.21.1-.42.2-.61.32s-.25.16-.44.26c-.35.2-.71.39-1.04.61-.11.07-.15.22-.07.32.09.12.24.13.37.08.33-.12.66-.26.98-.39s.68-.24,1-.39c.68-.31,1.35-.64,2.01-.99,1.34-.71,2.68-1.49,3.8-2.52.64-.58,1.21-1.22,1.68-1.95.09-.14-.01-.34-.14-.41-.15-.09-.39-.08-.52.04-.58.5-1.23.95-1.87,1.29-.7.37-1.43.68-2.17.94-1.46.51-3.11.82-4.67.89-.91.04-1.82,0-2.72-.1-.17-.02-.38.11-.41.29-.03.2.15.3.32.32h0Z"/>
      <path class="cls-1" d="M75.28,456.55c-.34.11-.72.32-.79.71-.01.08,0,.17,0,.25,0,.03.02.07.03.1,0,.02.04.12.03.08s0,.03,0,.04c0,.02.01.04.02.06.03.09-.02-.09.01.02s.07.19.15.28.15.17.24.25c1.13,1.07,2.65,1.75,4.04,2.41,2.06.97,4.17,1.83,6.3,2.62s4.27,1.53,6.44,2.2c1.52.47,3.08.9,4.67,1.08.06,0,.12.01.18.01.02,0,.05,0,.07,0,.04,0,.22.02.09,0,.38.05.49-.48.08-.53.1.01-.05-.02-.08-.03-.06-.02-.12-.03-.18-.05-.13-.03-.25-.06-.38-.09-.3-.08-.6-.17-.9-.26-.79-.24-1.58-.48-2.37-.72-2.04-.63-4.08-1.29-6.1-2.01s-4.23-1.56-6.23-2.42c-1.55-.67-3.13-1.37-4.54-2.3-.12-.08-.24-.16-.35-.24.07.05-.07-.05-.1-.08-.05-.04-.1-.08-.14-.12-.08-.07-.15-.16-.23-.23-.03-.03-.23-.14-.11-.07-.02,0-.04-.03-.06-.04.03.04.03.02,0,0-.06-.06.02.03-.05-.05.04.06-.02-.03-.03-.05-.01-.02-.04-.1-.04-.07,0-.03-.02-.1-.01-.12,0-.04,0-.04.06-.1.02-.03.08-.08.16-.12.03-.02.17-.08.25-.11.24-.09.06-.35-.15-.28h0Z"/>
      <path class="cls-1" d="M76.83,472.65c.97.27,1.98.43,2.97.66s1.93.47,2.88.74c1.89.53,3.76,1.11,5.64,1.66,3.73,1.08,7.58,1.97,11.48,1.88,2.31-.05,4.65-.46,6.82-1.3.27-.1.13-.48-.14-.41-1.99.55-3.99.93-6.06,1.03-1.92.09-3.84-.06-5.74-.37-3.81-.62-7.5-1.84-11.22-2.84-1.08-.29-2.16-.56-3.25-.8s-2.2-.49-3.3-.52c-.15,0-.26.2-.08.25h0Z"/>
      <path class="cls-1" d="M133.8,468.79c-1.8,1.95-3.93,3.57-6.13,5.05-2.35,1.58-4.87,2.94-7.47,4.06-1.35.58-2.7,1.12-4.11,1.55-.35.11-.16.56.17.5,2.7-.53,5.31-1.58,7.73-2.88,2.57-1.37,5.03-2.96,7.24-4.85,1.12-.96,2.19-1.98,3.15-3.09.12-.14.08-.33-.07-.42-.16-.1-.39-.04-.51.09h0Z"/>
      <path class="cls-1" d="M108.62,466.25c1.61-.39,3.27-.55,4.92-.62,1.77-.08,3.55-.03,5.33-.15,1.01-.07,2.02-.17,3.02-.34.13-.02.27-.13.27-.28,0-.14-.14-.25-.27-.25-.9.05-1.8.07-2.7.09s-1.79.05-2.69.07c-1.74.05-3.49.09-5.22.28-.93.11-1.86.26-2.77.49-.2.05-.41.2-.37.43.04.21.3.33.49.28h0Z"/>
      <path class="cls-1" d="M100.1,444.42c0,.55.86.56,1.24.57.94.03,1.88-.08,2.81-.18,1.22-.14,2.44-.35,3.65-.56s2.49-.46,3.72-.74c1.11-.26,2.22-.52,3.3-.88.13-.04.22-.19.17-.32-.05-.14-.21-.19-.34-.17-.92.14-1.83.29-2.75.41s-1.85.25-2.77.37c-1.87.25-3.75.49-5.63.62-1.02.07-2.04.12-3.06.11l.09.54c1.08-.53,2.11-1.16,3.13-1.8.51-.32,1.01-.64,1.52-.96s1.01-.6,1.49-.93c.08-.06.11-.17.05-.26-.07-.09-.19-.1-.29-.06-.55.19-1.06.48-1.57.77s-1.05.61-1.57.93c-.99.62-1.99,1.26-3.03,1.8-.12.06-.22.17-.2.31.02.13.16.23.29.22,3.79-.05,7.52-.67,11.26-1.22.52-.08,1.04-.17,1.56-.22s1.05-.09,1.57-.12l-.09-.51c-2.09.5-4.2.93-6.31,1.33-1.2.23-2.4.44-3.6.61-.53.08-1.07.16-1.6.22-.23.03-.46.06-.69.08-.1,0-.2.02-.3.03-.05,0-.09,0-.14.01-.03,0-.05,0-.08,0-.06,0,.06,0-.04,0s-.2.01-.3.01c-.05,0-.09,0-.14,0-.02,0-.04,0-.07,0-.1,0-.12,0-.04,0h-.02c-.15,0-.3,0-.45-.02-.03,0-.13-.02-.02,0-.03,0-.05,0-.08-.02s-.05-.02-.08-.02c-.07-.02.05.03,0,0-.08-.05.02.04-.03-.02,0,0,.04.06.01.01,0,.01.01.07,0,.01-.02-.28-.57-.23-.57.04h0Z"/>
      <path class="cls-1" d="M105,441.76c-.21,0-.43,0-.64.04-.23.04-.46.12-.66.24-.13.08-.25.18-.36.29-.05.05-.03.13.03.16.07.03.14.02.19-.03.02-.02.03-.03.05-.05l-.02.02c.1-.09.21-.17.33-.24l-.03.02c.1-.06.21-.1.32-.13h-.04c.14-.03.29-.05.43-.06h-.04c.14,0,.27,0,.41,0,.04,0,.08,0,.11-.03.03-.02.05-.05.05-.08,0-.07-.06-.13-.13-.13h0Z"/>
      <path class="cls-1" d="M102.08,434.66c-1.19-1.87-2.09-3.9-2.82-5.99-.79-2.26-1.37-4.59-1.87-6.92s-.93-4.92-1.31-7.4-.68-4.83-1.04-7.25c-.17-1.15-.34-2.29-.53-3.44s-.43-2.29-.61-3.44c-.46-2.99-.82-5.99-1.11-8.99s-.53-6.1-.75-9.16-.42-6.09-.65-9.13-.48-6.03-.82-9.04-.72-5.91-1.24-8.84c-.12-.7-.25-1.4-.39-2.1l-.11.25c.48-.43.98-.83,1.53-1.17.06-.03.11-.07.17-.1.03-.02.06-.04.09-.05.02,0,.11-.06.05-.03.12-.07.24-.13.36-.19.23-.11.46-.21.7-.29.06-.02.11-.04.17-.05.09-.03-.03,0,.02,0,.03,0,.06-.02.09-.03.11-.03.22-.06.34-.08s.22-.04.33-.05c.05,0,.1-.01.15-.01.04,0,.08,0,.01,0,.03,0,.07,0,.1,0,.21,0,.42,0,.63.02.05,0,.1.01.15.02.08,0-.06-.01.01,0,.03,0,.06.01.08.02.1.02.2.04.3.07s.2.06.3.09c.04.02.09.03.13.05,0,0,.09.04.04.02-.04-.02.04.02.05.02.19.09.38.18.56.29.09.05.18.11.26.17.04.03.09.06.13.09.02.02.04.03.06.05-.06-.04.01.01.03.02.18.14.35.29.52.45s.33.33.48.51c.08.09.16.19.24.28.04.05.08.1.11.14,0,.01.05.07.04.06,0-.01.04.05.05.07.31.43.59.87.85,1.34.56,1.02,1.01,2.12,1.37,3.2.41,1.23.72,2.49.96,3.76s.41,2.63.5,3.96.1,2.56.03,3.84c-.07,1.17-.2,2.33-.46,3.47-.22.95-.5,1.86-.96,2.74-.1.18-.2.36-.31.54l.47-.08s-.05-.06-.07-.09c-.04-.05.02.03,0,0-.01-.01-.02-.03-.03-.04-.05-.07-.1-.13-.14-.2-.09-.13-.17-.26-.25-.39-.18-.29-.34-.6-.49-.91-.34-.7-.6-1.4-.82-2.12-.52-1.68-.82-3.44-.94-5.19s-.06-3.6.26-5.38c.16-.85.37-1.64.67-2.43.14-.38.31-.75.49-1.11.09-.17.18-.34.28-.51.11-.19.17-.28.3-.46.22-.31.46-.61.72-.88.06-.06.12-.13.18-.19.03-.03.07-.06.1-.09.06-.06-.04.04.02-.02.02-.02.04-.03.06-.05.14-.13.29-.25.44-.36s.3-.21.45-.3c.04-.02.07-.04.11-.06,0,0,.08-.05.02-.01.02-.01.04-.02.07-.04.08-.05.17-.09.26-.13.17-.08.35-.16.53-.22.09-.03.18-.06.27-.09.13-.04.1-.03.23-.07.4-.11.81-.17,1.22-.21.12,0,.13-.01.27-.02.12,0,.24,0,.36,0,.23,0,.46.01.68.03.4.03.78.12,1.19.25.2.07.37.13.52.2.18.08.36.17.53.27.67.39,1.24.92,1.74,1.55s.92,1.41,1.24,2.18c.73,1.74,1.06,3.65,1.18,5.53.13,1.98.01,3.98-.33,5.93-.29,1.67-.74,3.33-1.53,4.84-.08.15-.17.31-.26.46-.1.16-.14.23-.25.38l.49.08c-.2-1.01-.34-2.02-.45-3.04-.13-1.24-.21-2.5-.21-3.74s.07-2.57.27-3.83c.18-1.11.44-2.17.98-3.17.06-.11.12-.22.19-.32,0-.01.05-.08.03-.04.02-.03.03-.05.05-.08.03-.05.07-.1.1-.15.14-.19.29-.36.45-.53.02-.02.04-.04.06-.06,0,0,.04-.03,0,0,.01,0,.02-.02.03-.03.04-.04.08-.07.13-.11.09-.07.18-.14.27-.2.05-.03.09-.06.14-.09.01,0,.02-.01.04-.02,0,0-.05.03,0,0,.03-.01.05-.03.08-.04.1-.05.2-.1.31-.14.05-.02.1-.04.15-.05.03,0,.05-.02.08-.03-.07.02.02,0,.04-.01.11-.03.23-.05.34-.07.06,0,.11-.02.17-.02.03,0,.06,0,.09,0,.08,0-.02,0,.05,0,.13,0,.26,0,.39,0,.59.03,1.14.17,1.72.38.63.23,1.24.55,1.76.98s.94.95,1.3,1.53c.77,1.26,1.15,2.72,1.3,4.17.15,1.53.04,3.09-.32,4.59-.32,1.36-.85,2.73-1.7,3.85-.19.25-.39.48-.61.7l.42.02c-.62-1.55-.98-3.21-.96-4.89.02-1.54.33-3.06.92-4.48s1.4-2.62,2.41-3.71,2.17-1.97,3.46-2.64,2.7-1.12,4.16-1.28c.18-.02.37-.04.56-.05l-.31-.24c-.45,2.59-.97,5.17-1.56,7.74s-1.24,5.11-1.93,7.65-1.44,5.04-2.21,7.55-1.58,5.01-2.4,7.51-1.65,5.01-2.49,7.52-1.66,5.02-2.47,7.53-1.6,5.03-2.35,7.56-1.47,5.06-2.14,7.61-1.28,5.14-1.83,7.72-1.03,5.21-1.38,7.84c-.08.64-.15,1.28-.24,1.92-.05.36.58.37.63.03.17-1.32.42-2.63.64-3.94s.47-2.62.72-3.93c.5-2.6,1.08-5.18,1.71-7.75s1.31-5.1,2.03-7.63,1.48-5.04,2.26-7.54,1.6-5.04,2.41-7.55,1.64-5.02,2.45-7.53,1.61-5,2.39-7.51,1.52-5.02,2.24-7.55,1.4-5.07,2.02-7.63,1.18-5.13,1.67-7.71c.12-.63.23-1.25.34-1.88.03-.18-.17-.24-.31-.24-1.52.1-3.01.51-4.39,1.15s-2.65,1.54-3.74,2.62-1.98,2.34-2.63,3.72-1.07,2.97-1.15,4.54c-.09,1.71.17,3.42.76,5.02.08.21.16.42.25.63.07.17.32.12.42.02.98-1,1.64-2.31,2.07-3.63.5-1.51.73-3.09.72-4.68s-.25-3.11-.87-4.54c-.57-1.32-1.5-2.5-2.77-3.2-.61-.34-1.3-.59-1.98-.74-.57-.12-1.15-.17-1.73-.09-.99.14-1.86.69-2.46,1.48-.68.88-1.06,1.95-1.31,3.02-.29,1.24-.41,2.52-.46,3.79s0,2.66.11,3.98c.09,1.13.23,2.26.42,3.37.04.22.08.44.12.65s.37.24.49.08c.94-1.35,1.47-2.96,1.85-4.55.46-1.94.67-3.94.67-5.93s-.22-4.02-.81-5.93c-.51-1.66-1.33-3.3-2.66-4.46-.64-.55-1.37-.97-2.18-1.23-.88-.28-1.82-.33-2.74-.25-1.64.13-3.17.84-4.32,2.03s-1.85,2.75-2.29,4.33c-.49,1.77-.65,3.62-.62,5.46s.26,3.67.7,5.44c.37,1.51.89,3.03,1.71,4.35.17.27.35.53.55.77.13.16.38.06.47-.08.26-.41.47-.85.65-1.3.03-.07.06-.15.08-.22-.01.04.01-.03.02-.05.01-.03.02-.07.04-.1.04-.13.09-.26.13-.38.09-.28.17-.56.24-.85.31-1.23.47-2.5.55-3.76.09-1.42.08-2.85-.02-4.27s-.29-2.92-.57-4.36-.63-2.75-1.11-4.08c-.42-1.17-.94-2.32-1.61-3.37-.58-.9-1.29-1.75-2.17-2.36-.79-.55-1.73-.88-2.69-.87-1.15,0-2.23.43-3.19,1.04-.28.18-.56.37-.82.58-.14.11-.28.23-.42.34-.07.06-.14.12-.21.19-.04.04-.09.07-.13.12-.08.09-.06.2-.04.31.27,1.35.51,2.7.73,4.06.44,2.76.78,5.53,1.07,8.31s.52,5.62.73,8.44.4,5.68.61,8.51.43,5.69.71,8.54.6,5.62,1.01,8.42c.1.65.19,1.3.31,1.94.1.5.19.99.28,1.49.18,1.04.35,2.09.51,3.14.34,2.23.65,4.46.98,6.7s.7,4.61,1.14,6.9.93,4.47,1.58,6.66c.61,2.05,1.34,4.07,2.29,5.99.43.87.91,1.72,1.44,2.54.1.16.44.03.33-.14h0Z"/>
      <path class="cls-1" d="M118.34,442.03c.41-.23.83-.42,1.28-.57.05-.02.09-.03.14-.04.02,0,.05-.01.07-.02.05-.02-.02,0,0,0,.01,0,.03,0,.04-.01.1-.03.19-.05.29-.07.18-.04.36-.07.54-.09.05,0,.09,0,.14-.01.01,0,.04,0,0,0,0,0,.02,0,.03,0,.02,0,.05,0,.07,0,.08,0,.16,0,.24,0s.16,0,.24.02c.04,0,.08,0,.11.01.02,0,.03,0,.05,0,.03,0,0,0-.01,0,.01,0,.03,0,.04,0,.14.03.29.06.43.11.03.01.06.02.09.03.02,0,.05.02.01,0,.02,0,.04.02.05.02.06.03.12.06.18.09s.12.07.17.11c.03.02.05.04.07.05-.04-.03,0,0,.01.01.01.01.03.02.04.03.1.08.2.18.28.28.02.02.04.05.06.08.01.02-.02-.03,0,0,0,0,0,.01.01.02.01.02.02.03.03.05.04.06.07.11.11.17.07.12.12.24.17.37.01.04,0-.03,0,.02,0,.02,0,.03.01.05.01.03.02.07.03.1.02.07.03.14.05.2.03.15.04.3.05.45,0,.02,0,.04,0,.05,0,0,0,.05,0,.02,0-.03,0,0,0,.01,0,.04,0,.08,0,.12,0,.08,0,.16-.02.24-.02.17-.04.34-.08.51-.02.09-.04.17-.06.26,0,.02-.01.04-.02.06,0,.01,0,.02,0,.03-.01.05,0-.02,0,0-.01.05-.03.09-.05.14-.06.19-.14.37-.22.55-.18.4-.39.79-.62,1.17-.06.1-.12.19-.18.28-.1.16.13.26.24.14.31-.37.59-.77.82-1.2.2-.36.34-.75.45-1.15.17-.64.23-1.34.05-1.98-.16-.57-.5-1.07-.99-1.4-.53-.36-1.18-.49-1.81-.46-.86.03-1.7.31-2.46.7-.11.06-.23.12-.34.18-.08.04-.15.12-.1.21.04.08.17.11.25.07h0Z"/>
      <path class="cls-1" d="M129.02,402.74c1.89-.22,3.65-1.18,5.18-2.27,1.98-1.4,3.74-3.11,5.38-4.88,1.83-1.98,3.51-4.09,5.1-6.26s3.06-4.32,4.45-6.58c1.13-1.84,2.23-3.7,3.24-5.62.1-.19.2-.38.3-.58.11-.21-.26-.28-.36-.1-.45.84-.95,1.67-1.44,2.48-.58.96-1.15,1.92-1.75,2.87-1.37,2.17-2.81,4.31-4.31,6.39s-3.23,4.31-5.01,6.33c-1.61,1.82-3.32,3.57-5.24,5.06-.81.63-1.69,1.23-2.57,1.7-.77.42-1.61.77-2.43.96-.2.04-.4.08-.6.11-.11.01-.21.11-.19.23.02.12.15.16.26.15h0Z"/>
      <path class="cls-1" d="M158.48,369.79c-1.94,2.15-3.4,4.68-4.72,7.24s-2.57,5.31-4.02,7.88-3.41,5.14-5.41,7.49c-2.1,2.47-4.32,4.83-6.51,7.22s-4.36,4.84-6.32,7.45c-.24.32-.48.65-.71.97-.08.12-.07.27.06.34s.3.03.41-.07c1.7-1.7,3.41-3.4,5.1-5.12s3.33-3.43,4.96-5.18,3.25-3.56,4.81-5.4,3.07-3.73,4.51-5.66,2.83-3.96,4.09-6.04c.16-.26.31-.52.47-.78.05-.08-.03-.17-.1-.19-.09-.03-.18.02-.23.1-.65,1.05-1.37,2.06-2.07,3.08s-1.39,1.97-2.11,2.93c-1.44,1.94-2.95,3.83-4.5,5.68s-3.13,3.62-4.76,5.38-3.29,3.5-4.97,5.21-3.35,3.4-5.04,5.09c-.21.21-.42.42-.63.63l.47.27c1.9-2.66,4.04-5.15,6.23-7.57s4.4-4.75,6.51-7.21,4.01-4.82,5.61-7.51c1.5-2.53,2.71-5.21,4.01-7.85s2.63-5.19,4.46-7.44c.22-.27.44-.53.67-.79.14-.15-.14-.28-.26-.15h0Z"/>
      <path class="cls-1" d="M162.57,370.3c-2.08,2.17-4.04,4.47-5.91,6.83s-3.63,4.74-5.39,7.16-3.49,4.84-5.27,7.24-3.61,4.76-5.53,7.03c-.98,1.16-1.99,2.29-3.02,3.4-.53.56-1.07,1.12-1.61,1.67s-1.08,1.06-1.61,1.61c-.26.27-.53.54-.8.81-.16.16.14.33.28.21,2.34-1.97,4.44-4.23,6.43-6.55s3.8-4.65,5.6-7.06,3.51-4.83,5.24-7.26,3.48-4.85,5.3-7.21,3.74-4.7,5.78-6.91c.25-.28.51-.55.77-.82.14-.15-.14-.27-.25-.14h0Z"/>
      <path class="cls-1" d="M173.85,305.42c-.27.24-.5.58-.58.93-.09.43-.08.87-.02,1.3.15,1.12.54,2.21.91,3.27.42,1.19.89,2.36,1.28,3.57.41,1.26.63,2.59.86,3.9.49,2.81.81,5.65.95,8.5s.1,5.87-.17,8.79-.74,5.8-1.47,8.62c-.09.35-.19.7-.28,1.05-.04.14.23.17.27.04.95-2.77,1.58-5.62,1.94-8.52s.46-5.84.37-8.76-.37-5.74-.81-8.57c-.21-1.35-.46-2.69-.75-4.02-.27-1.22-.76-2.4-1.2-3.57s-.87-2.24-1.17-3.4c-.22-.84-.36-1.72-.15-2.57.04-.15.13-.28.23-.4s-.1-.24-.2-.15h0Z"/>
      <path class="cls-1" d="M176.81,306.52c0,2.81,0,5.62-.01,8.42s0,5.7,0,8.55c0,1.66.03,3.33.05,4.99,0,.18.3.18.31.02.04-2.93.06-5.86.06-8.79v-8.45c-.01-1.58-.02-3.15-.02-4.73,0-.22-.38-.22-.38-.02h0Z"/>
      <path class="cls-1" d="M64.09,268.16c-.09.03-.17.05-.26.07-.03,0-.05,0-.08.01.05-.01,0,0,0,0,0,0,.02,0,.03,0,.02.02.03.07.03.07,0,0,0,0,.02-.03.05-.06.06-.07.13-.12.19-.16.38-.26.57-.4.28-.2.57-.38.85-.57,1.51-1.02,3.04-2.01,4.58-2.97.62-.38,1.24-.77,1.86-1.14.1-.06.2-.12.31-.18.02-.01.04-.03.07-.04.01,0,.02-.01.03-.02.04-.02-.05.03-.01,0,.03-.02.07-.04.1-.06.5-.26,1-.52,1.51-.75,2.77-1.26,5.73-2.06,8.65-2.88,1.41-.4,2.82-.79,4.21-1.25,1.18-.39,2.35-.82,3.45-1.4.24-.13.48-.26.71-.41.1-.06.12-.2.04-.29-.09-.1-.24-.07-.34-.01-1.04.62-2.16,1.09-3.3,1.49-1.37.49-2.76.89-4.15,1.29-3,.86-6.03,1.65-8.91,2.89-.85.36-1.68.77-2.47,1.23-.61.36-1.2.73-1.8,1.1-1.57.99-3.14,1.99-4.67,3.05-.29.2-.58.42-.86.64-.12.09-.24.18-.34.29-.09.09-.14.14-.23.22-.07.07-.21.18-.22.29-.01.17.22.13.32.09.09-.03.17-.07.26-.11.1-.05.03-.16-.07-.13h0Z"/>
      <path class="cls-1" d="M90.18,256.42c-.06,0-.13-.02-.19-.02-.02,0-.13,0-.02,0-.06,0-.09-.04-.16-.03-.14.02-.29.09-.42.14-.23.09-.46.21-.66.35-.39.27-.73.62-.99,1.02-.58.88-.83,1.93-1,2.95-.19,1.14-.27,2.29-.41,3.43-.13,1.08-.29,2.19-.7,3.21-.09.22-.18.45-.31.65-.2.29-.44.55-.67.82-.34.4-.7.78-1.08,1.1-.16.13-.32.25-.5.36-.04.02-.08.05-.11.07.06-.04-.03.01-.05.02-.08.04-.16.08-.24.11-.07.03-.15.05-.22.08.1-.03-.03,0-.05.01-.04,0-.07.02-.11.02-.07.01-.15.03-.22.04-.04,0-.08,0-.11.01-.02,0-.09,0,0,0-.03,0-.05,0-.08,0-.76.03-1.52-.13-2.28-.22-.55-.06-1.1-.1-1.66-.11-.35,0-.69,0-1.04,0-.39.01-.77.05-1.16.06-3.72.04-7.22,1.61-10.57,3.07-.4.17-.79.35-1.19.51-.15.06-.26.23-.17.39s.3.19.45.12c3.32-1.43,6.67-3.12,10.32-3.5.46-.05.92-.04,1.39-.08.36-.03.72-.05,1.08-.06.62-.02,1.24,0,1.86.05.84.06,1.67.22,2.5.26.72.03,1.4-.11,2.02-.49.9-.55,1.6-1.43,2.24-2.25.34-.43.54-.96.7-1.48s.28-1.08.37-1.64c.18-1.14.25-2.3.38-3.44.21-1.89.54-4.23,2.47-5.12.12-.05.24-.09.35-.14.06-.03.07-.07.11-.1-.08.07,0,0,.02,0,.05-.03.1-.07.15-.1s.01-.09-.03-.09h0Z"/>
      <path class="cls-1" d="M63.22,268.23s0-.02,0-.03c0-.02,0,0,0,0,0,.02-.02.03-.04.04l-.02.02h-.12s-.02-.02-.02-.02-.02-.03-.01-.02c0,.02,0-.03,0,0,.01.06.03.12.04.19,0,.01,0,.02,0,.04,0,0,0,.01,0,.02,0,.03,0-.03,0-.03-.02,0-.04.09-.04.1,0,.04,0,.09.01.13,0,.03,0,.06.01.09.02.15.04.3.06.45.06.36.14.73.21,1.09s.15.75.26,1.12c.05.17.11.35.18.52.03.07.05.14.08.2.03.06.07.11.1.17.02.02.03.05.05.07.05.06.11.08.19.06.06-.02.13-.08.11-.15-.02-.06-.03-.12-.04-.18-.01-.07-.04-.14-.06-.21-.05-.16-.09-.33-.13-.49-.04-.19-.1-.37-.14-.56-.05-.2-.09-.4-.14-.6s-.09-.39-.13-.59c-.04-.18-.07-.36-.11-.54-.04-.15-.07-.3-.11-.46-.02-.08-.03-.18-.09-.24,0,0-.02-.02-.03-.02-.03-.02.02.02,0,.03,0,0,0-.02,0-.02,0-.02-.01-.05-.02-.07-.02-.06-.03-.14-.06-.19-.06-.11-.24-.08-.25.05,0,.02,0,.04,0,.06,0,.06.08.08.12.08.05,0,.12-.04.12-.09h0Z"/>
      <path class="cls-1" d="M67.57,265.09c-1.56,1.53-2.87,3.32-3.97,5.21-.27.47-.54.94-.78,1.42-.06.11,0,.24.1.3.12.07.26.04.38-.03,2.9-1.67,5.27-4.14,7.45-6.65.6-.69,1.19-1.39,1.78-2.09l-.47-.27c-1.6,1.97-3.19,3.96-4.78,5.94l-1.37,1.71c-.26.32.29.56.51.29,1.09-1.31,2.01-2.75,2.92-4.19.97-1.54,1.92-3.08,2.91-4.61.55-.85,1.11-1.69,1.72-2.5l-.31-.13c-.67,1.84-1.51,3.61-2.4,5.35s-1.93,3.58-2.87,5.38c-.52,1-1.03,2-1.48,3.03-.13.3.35.43.51.21,1.33-1.74,2.57-3.54,3.8-5.36s2.37-3.5,3.63-5.19c.71-.95,1.45-1.87,2.25-2.75l-.48-.14c-.93,3.32-2.46,6.43-4.02,9.48-.37.73-.76,1.46-1.12,2.19-.17.35.45.48.6.17.77-1.58,1.63-3.11,2.6-4.56s2.09-2.91,3.27-4.26c.71-.82,1.45-1.61,2.22-2.37l-.48-.2c-1.21,3.08-2.72,6.02-4.52,8.8-.52.8-1.06,1.58-1.62,2.36l.54.31c1.17-1.74,2.36-3.47,3.61-5.17s2.49-3.31,3.81-4.91c.75-.91,1.51-1.81,2.29-2.7l-.57-.24c-1.23,2.87-2.74,5.62-4.27,8.34-.45.8-.91,1.58-1.36,2.38-.08.14.02.3.15.35.15.06.34.03.44-.1,1.19-1.43,2.22-2.98,3.22-4.55s1.96-3.19,3.03-4.74c.59-.86,1.21-1.7,1.9-2.48l-.48-.28c-2.07,2.85-3.75,5.98-5.35,9.11-.46.89-.91,1.79-1.35,2.69-.15.31.31.43.51.29,1.42-1.03,2.6-2.36,3.63-3.77s2-3.01,2.96-4.54c.52-.84,1.06-1.67,1.63-2.47l-.57-.16c-.82,2.85-2.21,5.51-3.75,8.03-.42.69-.82,1.4-1.27,2.07-.19.29.28.5.44.25.41-.62.86-1.22,1.25-1.86s.78-1.3,1.15-1.96c.74-1.33,1.42-2.7,1.98-4.12.31-.78.59-1.58.82-2.39.04-.12-.09-.24-.2-.27-.12-.03-.3,0-.37.11-1.03,1.45-1.93,2.98-2.88,4.48s-1.92,2.96-3.11,4.26c-.65.71-1.36,1.36-2.14,1.92l.51.29c1.58-3.13,3.13-6.29,4.98-9.28.51-.82,1.04-1.63,1.6-2.42.22-.32-.28-.52-.48-.28-1.2,1.42-2.24,2.96-3.24,4.53s-1.97,3.19-3.04,4.73c-.6.86-1.23,1.69-1.92,2.47l.59.25c.81-1.37,1.58-2.77,2.35-4.17s1.48-2.76,2.17-4.17c.38-.79.74-1.58,1.09-2.38.15-.35-.38-.46-.57-.24-1.37,1.56-2.7,3.16-3.98,4.8s-2.51,3.31-3.71,5.01c-.69.98-1.36,1.96-2.02,2.96-.23.35.33.6.54.31,1.94-2.74,3.68-5.62,5.06-8.68.39-.86.74-1.74,1.06-2.63.11-.3-.31-.38-.48-.2-1.32,1.35-2.59,2.74-3.76,4.22s-2.11,2.9-3.04,4.43c-.52.86-1,1.73-1.46,2.62l.6.17c1.52-2.96,3.09-5.91,4.23-9.04.33-.91.63-1.84.84-2.78.06-.27-.36-.29-.48-.14-1.34,1.61-2.61,3.27-3.81,4.99s-2.42,3.53-3.67,5.27c-.73,1.02-1.47,2.03-2.25,3.01l.51.21c.83-1.83,1.75-3.62,2.69-5.4s1.88-3.56,2.7-5.4c.44-1,.83-2.02,1.15-3.06.05-.17-.25-.2-.32-.09-1.01,1.5-2.01,3-3,4.51s-1.98,3-3.05,4.45c-.56.75-1.13,1.49-1.73,2.21l.51.29c1.58-1.99,3.17-3.97,4.75-5.96.45-.57.91-1.14,1.36-1.71.23-.29-.27-.51-.47-.27-2.08,2.54-4.28,5.07-6.88,7.09-.72.56-1.48,1.08-2.27,1.53l.48.28c.44-.87.88-1.73,1.38-2.57.55-.92,1.13-1.83,1.81-2.66.4-.49.81-.97,1.25-1.42.14-.15-.14-.27-.26-.15h0Z"/>
      <path class="cls-1" d="M38,308.54c-.23.31-.46.62-.66.94-.05.09-.11.17-.16.26-.02.03-.08.1-.08.13,0,0,.18.03.17.04,0,0,0-.03,0-.04.02-.05.03-.11.04-.16.04-.19.05-.4.02-.6-.06-.45-.23-.88-.29-1.33-.05-.41-.06-.82-.03-1.23.07-.95.29-1.89.59-2.8.35-1.07.81-2.1,1.32-3.1.56-1.12,1.18-2.2,1.84-3.26.69-1.11,1.42-2.2,2.18-3.27s1.54-2.13,2.33-3.18c.74-.98,1.51-1.95,2.27-2.92.67-.85,1.34-1.69,2.01-2.54.53-.67,1.07-1.33,1.59-2.01.1-.13.2-.27.3-.4s-.13-.24-.21-.12c-.49.64-1.02,1.25-1.54,1.87-.68.82-1.35,1.63-2.02,2.45-.78.95-1.55,1.92-2.3,2.89-.81,1.05-1.61,2.12-2.38,3.21s-1.54,2.21-2.26,3.35-1.34,2.2-1.94,3.34c-.54,1.03-1.03,2.1-1.42,3.19-.33.94-.61,1.92-.71,2.92-.04.44-.05.88-.02,1.31s.13.82.25,1.22c.11.37.15.77.16,1.15,0,.13.12.16.2.06.08-.11.14-.25.21-.37.2-.33.42-.64.65-.95.06-.09-.08-.15-.14-.08h0Z"/>
      <path class="cls-1" d="M56.39,275.34c-1.74,2.05-3.36,4.19-4.91,6.39s-3.07,4.59-4.47,6.96-2.76,4.92-3.99,7.46-2.33,5.1-3.33,7.72c-.49,1.29-.96,2.59-1.39,3.91s-.83,2.59-1.16,3.9c-.08.32-.16.65-.23.97-.04.16.24.16.29.01.8-2.62,1.62-5.24,2.56-7.82s2.02-5.18,3.17-7.7,2.42-5.05,3.79-7.49,2.8-4.79,4.36-7.09,3.11-4.35,4.82-6.41c.21-.25.42-.5.63-.75.07-.08-.08-.15-.14-.08h0Z"/>
      <path class="cls-1" d="M54.34,281.37c-1.17.58-2.24,1.35-3.22,2.22-1.09.97-2.05,2.06-2.93,3.21-.98,1.28-1.86,2.64-2.69,4.03-.89,1.49-1.7,3.03-2.46,4.59s-1.52,3.3-2.21,4.99-1.36,3.43-1.98,5.17-1.18,3.43-1.72,5.15-1.01,3.29-1.47,4.95c-.42,1.5-.84,3-1.21,4.51-.32,1.29-.63,2.59-.91,3.89-.06.28-.12.55-.18.83-.03.14.22.14.24.01.28-1.23.6-2.46.92-3.69.37-1.46.74-2.91,1.14-4.36.44-1.61.9-3.22,1.38-4.81.52-1.71,1.06-3.41,1.64-5.11s1.22-3.45,1.88-5.15,1.38-3.38,2.15-5.03,1.53-3.17,2.39-4.7c.8-1.43,1.68-2.81,2.64-4.14.88-1.21,1.84-2.35,2.9-3.4.94-.93,1.95-1.78,3.07-2.46.25-.15.51-.3.78-.43.21-.11.05-.36-.14-.27h0Z"/>
      <path class="cls-1" d="M41.57,297.77c-1.04.84-1.87,1.95-2.54,3.1-.74,1.28-1.3,2.66-1.75,4.07-.5,1.59-.87,3.22-1.14,4.86-.3,1.77-.48,3.56-.6,5.35-.13,1.9-.18,3.8-.18,5.7s.05,3.84.14,5.76.21,3.77.36,5.65c.14,1.75.33,3.5.51,5.25.17,1.57.34,3.14.52,4.71.15,1.29.3,2.58.45,3.87.03.27.07.54.09.8.01.13.26.09.24-.04-.12-1.22-.22-2.43-.35-3.65-.16-1.5-.32-3-.47-4.5-.17-1.71-.34-3.42-.46-5.14-.13-1.84-.29-3.68-.39-5.53s-.18-3.82-.21-5.73,0-3.79.09-5.69.24-3.65.48-5.46c.23-1.68.53-3.35.96-4.98.39-1.47.89-2.91,1.55-4.27.59-1.2,1.31-2.36,2.22-3.35.21-.23.42-.45.64-.67.1-.1-.08-.2-.17-.13h0Z"/>
      <path class="cls-1" d="M38.53,314.61c-.85.37-1.5,1.07-1.89,1.9-.49,1.05-.68,2.23-.77,3.37-.11,1.5-.03,3.01.13,4.51.18,1.77.48,3.54.83,5.28.39,1.92.84,3.84,1.34,5.73s1.07,3.9,1.67,5.84,1.18,3.74,1.81,5.59c.57,1.68,1.15,3.35,1.75,5.02.49,1.36.99,2.72,1.5,4.08.35.93.71,1.86,1.07,2.8.06.15.11.3.17.45.04.12.26.04.21-.09-.29-.79-.59-1.63-.88-2.44-.45-1.26-.92-2.52-1.36-3.78-.56-1.59-1.11-3.18-1.65-4.78-.61-1.81-1.2-3.62-1.77-5.44-.59-1.91-1.16-3.83-1.69-5.76s-1.02-3.83-1.45-5.76c-.4-1.79-.74-3.59-.99-5.41-.21-1.55-.36-3.12-.35-4.69,0-1.22.1-2.49.46-3.65.15-.47.34-.94.61-1.35.09-.15.24-.35.38-.52s.28-.29.46-.42.34-.22.52-.3c.14-.06.04-.24-.1-.18h0Z"/>
      <path class="cls-1" d="M39.54,332.51c-.9.64-1.52,1.58-1.82,2.64-.34,1.22-.3,2.53-.13,3.78.22,1.59.7,3.14,1.25,4.65.65,1.79,1.44,3.53,2.29,5.24.94,1.89,1.96,3.73,3.02,5.55s2.26,3.75,3.44,5.58,2.34,3.57,3.54,5.34c1.09,1.61,2.2,3.21,3.32,4.81.93,1.34,1.86,2.67,2.78,4.02.66.96,1.31,1.93,1.91,2.93.1.17.2.34.29.51.05.09.23.02.18-.08-.49-.9-1.05-1.77-1.61-2.63-.83-1.26-1.68-2.51-2.53-3.76-1.05-1.54-2.1-3.09-3.15-4.63-1.17-1.73-2.33-3.46-3.47-5.21s-2.34-3.66-3.46-5.53-2.16-3.67-3.15-5.56c-.92-1.74-1.78-3.5-2.52-5.32-.64-1.56-1.19-3.16-1.57-4.81-.3-1.3-.48-2.66-.32-3.98.13-1.07.51-2.11,1.26-2.9.18-.19.37-.36.58-.51.11-.08-.04-.2-.13-.13h0Z"/>
      <path class="cls-1" d="M42.54,349.87c-.43.43-.41,1.2-.35,1.75.11,1.03.43,2.04.76,3.02.48,1.4,1.04,2.77,1.64,4.12.72,1.63,1.49,3.23,2.28,4.82.89,1.77,1.81,3.53,2.75,5.28s1.96,3.6,2.97,5.38,1.99,3.49,3,5.23c.92,1.58,1.85,3.15,2.8,4.71.79,1.32,1.59,2.63,2.41,3.93.59.94,1.2,1.91,1.83,2.78.11.15.25.34.34.47s.36.03.27-.11c-.24-.35-.44-.73-.66-1.1-.29-.47-.58-.95-.87-1.42-.76-1.22-1.52-2.44-2.26-3.67-.91-1.5-1.82-3.01-2.71-4.53-1-1.69-1.98-3.39-2.95-5.09s-2.01-3.57-2.99-5.36-1.9-3.52-2.81-5.3c-.84-1.64-1.65-3.28-2.43-4.95-.66-1.41-1.29-2.84-1.85-4.3-.41-1.08-.8-2.17-1.03-3.31-.08-.39-.14-.79-.15-1.2,0-.02,0-.04,0-.06,0-.01,0,.01,0-.03,0-.04,0-.08,0-.13,0-.07.01-.15.02-.22.02-.16.04-.23.09-.35.01-.03.02-.05.04-.08,0-.02.05-.08.02-.04.03-.04.06-.09.1-.13.14-.14-.14-.26-.25-.14h0Z"/>
      <path class="cls-1" d="M47.88,362.13c-.26-.27-.52-.55-.78-.82-.12-.12-.39.04-.25.18.02.02.04.04.05.06,0,0,.03.02,0,0,.01.01.02.03.03.04s.02.02.03.04c.03.03.05.06.08.1.09.11.14.17.22.26.1.11.2.22.3.32l1.68,1.69c1.02,1.03,2.08,2.03,3.03,3.13,2.35,2.73,4.52,5.61,6.6,8.55s4.08,5.95,6.11,8.93,4.13,5.99,6.37,8.86c.27.34.54.69.82,1.03.09.11.35-.02.26-.14-2.17-2.91-4.25-5.89-6.29-8.9s-4.03-5.99-6.1-8.95-4.23-5.88-6.55-8.65c-.61-.73-1.21-1.45-1.88-2.12-.52-.52-1.04-1.04-1.56-1.55l-1.78-1.76c-.23-.23-.46-.45-.69-.67-.09-.08-.15-.13-.26-.22-.03-.03-.06-.05-.09-.08-.01-.01-.03-.02-.04-.03s-.03-.02-.04-.03c.04.03.01,0,0,0-.02-.02-.03-.03-.05-.05l-.25.18c.28.26.55.53.83.79.1.1.32-.03.21-.15h0Z"/>
      <path class="cls-1" d="M71.63,410.79c.87,1.89,1.5,3.89,1.95,5.92s.72,4.09.92,6.16.33,4.19.48,6.29.32,4.13.62,6.18c.15,1.01.33,2.01.55,3s.47,1.98.84,2.92c.09.23.2.45.31.67.05.1.25.05.22-.07-.25-.98-.55-1.95-.8-2.93s-.44-1.98-.61-2.98c-.34-2.05-.53-4.11-.69-6.18s-.28-4.19-.47-6.28-.44-4.16-.85-6.2-.99-4.01-1.82-5.9c-.11-.24-.22-.48-.34-.72-.08-.16-.39-.05-.31.13h0Z"/>
      <path class="cls-1" d="M78.57,446.93c-1.66-2.51-2.42-5.49-2.79-8.44-.4-3.14-.38-6.31-.33-9.46.03-1.67.06-3.34.04-5.01,0-.15-.26-.15-.26-.01-.04,3.08-.2,6.16-.16,9.24s.29,6.32,1.18,9.34c.46,1.58,1.11,3.1,2.02,4.47.09.14.4.03.3-.13h0Z"/>
      <path class="cls-1" d="M76.83,438.95c2.13.59,4.38.62,6.55.24s4.21-1.07,6.21-1.9c1.07-.45,2.13-.93,3.18-1.43.18-.08.05-.3-.12-.23-1.9.8-3.78,1.63-5.74,2.29s-4.16,1.18-6.31,1.21c-1.24.02-2.47-.12-3.67-.44-.17-.05-.32.2-.12.25h0Z"/>
      <path class="cls-1" d="M131.12,447c.4-2.98.8-5.97,1.15-8.96s.62-5.96.77-8.96c.08-1.69.13-3.38.12-5.07,0-.1-.17-.1-.17,0-.01,2.99-.19,5.98-.43,8.96s-.59,5.98-.96,8.96c-.21,1.69-.43,3.38-.66,5.07-.01.1.17.11.18,0h0Z"/>
      <path class="cls-1" d="M133.47,431.15c0,2.35-.16,4.69-.36,7.02s-.44,4.61-.59,6.92c-.04.66-.08,1.32-.1,1.98s-.05,1.33-.01,1.99l.32-.06c-.02-.35-.05-.69-.05-1.04s0-.67,0-1.01c0-.67,0-1.34.01-2.02.01-1.33.04-2.65.08-3.98.07-2.65.18-5.3.32-7.95s.3-5.27.53-7.89.5-5.3.84-7.94.72-5.35,1.14-8.01c.05-.33.1-.66.16-.98.02-.12-.19-.12-.22-.01-.55,2.66-1,5.33-1.37,8.02s-.65,5.29-.87,7.95-.4,5.3-.52,7.96-.19,5.28-.23,7.92c-.02,1.34-.02,2.67-.04,4.01s0,2.69-.03,4.03c0,.33-.04.65-.06.98-.01.19.31.19.32.02.04-.59.03-1.18.05-1.77s.04-1.18.07-1.78c.05-1.15.13-2.3.22-3.45.17-2.3.39-4.59.52-6.89.08-1.33.12-2.66.12-4,0-.13-.23-.13-.23-.01h0Z"/>
      <path class="cls-1" d="M76.77,461.38c.74.76,1.52,1.47,2.29,2.19.89.83,1.77,1.66,2.61,2.55.42.45.85.9,1.25,1.37.08.09.3,0,.23-.13-.63-.96-1.45-1.78-2.27-2.58-.86-.84-1.75-1.65-2.64-2.45-.41-.37-.82-.74-1.22-1.13-.12-.12-.38.04-.25.18h0Z"/>
      <path class="cls-1" d="M75.24,459.81c1.25,1.67,2.69,3.19,4.02,4.79.37.45.74.9,1.1,1.36l.17-.16c-.82-.52-1.56-1.17-2.3-1.79-.38-.31-.75-.63-1.14-.93s-.75-.56-1.12-.85l-.16.19c.49.18.99.34,1.47.53s.95.39,1.42.61c.93.43,1.84.92,2.74,1.42,1.82,1.02,3.59,2.12,5.43,3.11,1.06.56,2.13,1.08,3.25,1.49.12.04.28-.14.13-.21-1.94-.84-3.8-1.85-5.63-2.92s-3.57-2.12-5.46-3c-.51-.24-1.03-.47-1.56-.67s-1.11-.43-1.68-.57c-.12-.03-.28.12-.13.2.84.49,1.59,1.17,2.33,1.8s1.48,1.22,2.27,1.77c.08.05.26-.04.19-.14-1.23-1.69-2.69-3.19-4.03-4.79-.38-.45-.74-.9-1.09-1.36-.07-.09-.29.02-.21.12h0Z"/>
      <path class="cls-1" d="M76.36,449.17c1.54.22,3.07.5,4.6.77s3,.54,4.51.66c.88.07,1.76.11,2.64.08.16,0,.22-.22.03-.23-3.08-.1-6.09-.68-9.12-1.18-.87-.14-1.75-.27-2.63-.37-.19-.02-.24.23-.04.26h0Z"/>
      <path class="cls-1" d="M77.26,446.07c1.46,1.26,3.19,2.14,5,2.8,1.93.7,3.94,1.12,5.97,1.42,1.15.17,2.3.3,3.46.39.17.01.22-.22.04-.24-2.01-.24-4.01-.53-5.99-.97s-3.82-1.01-5.57-1.9c-.93-.47-1.82-1.04-2.62-1.71-.15-.12-.45.06-.29.21h0Z"/>
      <path class="cls-1" d="M133.47,447.44c-.63.85-1.23,1.72-1.8,2.61-.62.96-1.24,1.91-1.85,2.88-.35.56-.71,1.11-1.04,1.67-.05.09.02.19.1.22.1.04.21.01.28-.06.73-.75,1.39-1.56,1.98-2.42.55-.79,1.06-1.61,1.59-2.42.3-.46.6-.91.92-1.35.07-.09-.08-.16-.14-.08-1.2,1.55-2.21,3.24-3.47,4.74-.39.46-.8.9-1.23,1.33l.38.16c.3-.49.59-1,.88-1.5s.57-.97.86-1.45c.56-.94,1.14-1.87,1.76-2.77.33-.48.66-.95,1.01-1.42.11-.14-.13-.25-.23-.13h0Z"/>
      <path class="cls-1" d="M133.95,446.91c-.81.79-1.29,1.84-1.76,2.85-.12.25-.23.5-.35.75-.08.18.16.31.31.23.55-.29,1.04-.68,1.52-1.07s.96-.78,1.52-1.01l-.25-.19c-.1.28-.2.56-.29.85-.07.25-.14.5-.22.75-.13.43-.3.88-.54,1.26.02-.03-.03.04-.03.05-.02.03-.04.06-.06.09-.04.06-.08.12-.12.17-.09.12-.19.23-.29.34l.44.18c.26-.55.6-1.05.94-1.55s.69-1.02,1.01-1.54l-.29-.08c-.23.67-.53,1.32-.84,1.96-.34.7-.71,1.39-1.11,2.07-.11.18-.21.36-.33.53-.05.08-.1.16-.16.25-.06.1-.11.19-.15.3l.35.06s0-.02,0-.03c0-.06-.02-.1-.07-.13h0c.02.05.04.11.06.16.01-.03.02-.06.03-.09,0-.01.02-.07.01-.04.02-.07.04-.13.06-.2.06-.16.11-.32.19-.48s.16-.31.27-.44c.07-.08.18-.21.28-.21s.14-.16.02-.15c-.35,0-.58.39-.74.66s-.33.57-.43.86l.13-.09c-.08.01-.12.07-.16.13-.04.07.01.16.08.19.08.03.17,0,.24-.05.07-.07.13-.14.19-.22s.11-.17.16-.25c.1-.16.2-.33.3-.49.19-.33.38-.67.56-1.01.36-.68.68-1.38.96-2.09.14-.36.27-.72.39-1.09.06-.18-.23-.24-.29-.08-.23.57-.65,1.05-1.03,1.52s-.8.97-1.1,1.52c-.06.1.02.22.11.26.12.05.24.01.33-.07.37-.36.66-.78.85-1.27s.3-.95.42-1.44c.08-.31.14-.63.24-.94.06-.19-.16-.24-.29-.16-.52.31-1.02.67-1.51,1.02s-.98.71-1.53.97l.31.23c.23-.44.41-.91.61-1.36.22-.5.47-1,.77-1.45.18-.26.37-.51.59-.74.06-.07.04-.17-.04-.22-.09-.05-.19-.02-.26.05h0Z"/>
      <path class="cls-1" d="M135.04,450.04c-.08.13-.17.26-.25.4-.11.2-.21.41-.32.61-.29.56-.57,1.12-.85,1.68-.68,1.39-1.34,2.79-1.95,4.22-.32.74-.63,1.48-.87,2.25-.04.13.04.26.19.26.34,0,.68-.06.99-.2.24-.11.44-.26.62-.45.16-.17.3-.35.46-.53.17-.19.37-.35.59-.48.13-.07-.02-.22-.13-.17-.46.21-.79.57-1.14.92-.15.15-.32.28-.51.37-.26.12-.54.14-.83.14l.19.26c.49-1.42,1.05-2.81,1.65-4.18.56-1.29,1.15-2.56,1.75-3.84.11-.24.23-.49.34-.73.07-.16.13-.33.2-.49.04-.09-.11-.11-.15-.04h0Z"/>
      <path class="cls-1" d="M133.94,456.04c-1.65,1.43-3.26,2.9-4.84,4.39s-3.23,3.09-4.82,4.66c-.45.44-.9.89-1.34,1.34-.22.22-.44.45-.66.68s-.43.47-.63.73c-.16.21.16.39.33.25.89-.69,1.66-1.54,2.46-2.33s1.59-1.59,2.39-2.39c1.56-1.55,3.13-3.08,4.73-4.57.89-.83,1.78-1.65,2.69-2.45.24-.21-.09-.48-.3-.3h0Z"/>
      <path class="cls-1" d="M135.53,463.15c-1.79.94-3.67,1.69-5.59,2.31-2.04.66-4.14,1.16-6.25,1.53s-4.32.62-6.49.71-4.23.04-6.33-.17c-1.91-.2-3.83-.53-5.68-1.06-.22-.06-.44-.13-.65-.2-.19-.06-.35.2-.13.28,1.81.69,3.69,1.13,5.61,1.39,2.1.28,4.22.37,6.34.31s4.42-.28,6.61-.63,4.3-.84,6.4-1.49c1.97-.6,3.89-1.34,5.73-2.26.22-.11.43-.22.64-.33.11-.06.19-.16.13-.29-.06-.11-.23-.15-.33-.09h0Z"/>
      <path class="cls-1" d="M133.61,467.74c-2-.04-4,.27-5.97.61-.59.1-1.18.22-1.77.33l.32.43c1.47-1.46,3.33-2.39,5.04-3.53l-.24.07c.06,0-.01,0-.02,0,.03.01,0,0-.03-.01-.04-.03-.07-.07-.08-.1-.03-.07.02-.01,0,0,0,0,0,.02,0-.01,0,.02-.01.03-.02.05-.06.14-.14.27-.21.39-.16.27-.38.57-.41.9-.05.45.58.47.87.36.31-.12.57-.36.81-.58.13-.12.27-.25.41-.36.06-.05.13-.1.2-.14-.04.02.03-.01.04-.02.05-.03-.01,0-.01,0,0,0,.09,0,0,0l-.21-.29c-.56,1.12-.48,2.45-1.05,3.57l.56.09c0-.36,0-.72,0-1.09l-.16.26c.34-.17.67-.35,1.01-.53l-.34-.26c-.58,1.11-1.26,2.17-1.97,3.19s-1.49,2-2.32,2.92c-1.65,1.84-3.53,3.47-5.66,4.74-.58.34-1.17.66-1.78.94-.32.15-.64.29-.97.42s-.64.29-.95.45c-.22.11-.12.4.12.35,1.26-.23,2.45-.84,3.56-1.47s2.12-1.35,3.09-2.15c1.95-1.61,3.64-3.53,5.08-5.61.82-1.18,1.55-2.42,2.26-3.66.12-.2-.19-.33-.34-.26-.34.16-.69.32-1.03.49-.07.04-.16.1-.17.2,0,.34-.01.7,0,1.02,0,.3.43.35.56.09.54-1.13.45-2.46,1-3.58.07-.14-.06-.3-.21-.29-.44.01-.8.38-1.12.64-.17.14-.35.29-.55.39.05-.03-.07.03-.09.04-.04.02-.04.01,0,0-.02,0-.04,0-.07.01.03,0,.05-.01,0,0-.02,0-.01,0,.03,0h-.02s-.03-.01,0,0c.02,0,.02,0,0,0-.05-.04.04.03-.01-.01l.07.19c0-.17.09-.32.19-.49.11-.19.23-.37.33-.56.08-.14.17-.31.13-.48-.06-.28-.43-.35-.65-.22-.55.33-1.08.68-1.63,1.01-.57.35-1.15.7-1.7,1.08-.66.46-1.29.96-1.85,1.53-.22.22.09.47.32.43,2.03-.41,4.07-.78,6.12-1,.49-.05.97-.09,1.46-.1.11,0,.24-.06.26-.19.02-.12-.1-.21-.2-.21h0Z"/>
      <path class="cls-1" d="M135.67,447.48c-.46-1.3-.76-2.64-1.04-3.99-.3-1.41-.52-2.84-.7-4.28-.37-3.04-.48-6.1-.43-9.16s.27-6.35.61-9.51.79-6.17,1.33-9.23c.26-1.45.54-2.89.83-4.33.27-1.34.58-2.68.84-4.02.06-.3.11-.61.18-.91.04-.17-.26-.17-.3-.02-.15.64-.35,1.28-.5,1.92s-.31,1.34-.46,2.01c-.31,1.42-.59,2.84-.85,4.27-.56,3.05-1.03,6.12-1.39,9.2s-.62,6.36-.7,9.56,0,6.19.34,9.27c.16,1.45.37,2.9.68,4.33.15.69.3,1.38.5,2.05s.41,1.29.63,1.93c.11.32.22.63.33.95.02.05.11.02.09-.04h0Z"/>
      <path class="cls-1" d="M135.2,438.78c-.61-.96-1.03-2.04-1.31-3.14-.33-1.35-.47-2.72-.5-4.11-.03-1.6.09-3.21.28-4.8.22-1.79.53-3.56.92-5.32.41-1.88.89-3.73,1.43-5.58s1.15-3.74,1.8-5.59,1.32-3.61,2.05-5.38c.68-1.65,1.39-3.28,2.15-4.9.66-1.42,1.36-2.82,2.12-4.19.6-1.1,1.23-2.19,1.92-3.24.14-.21.28-.43.43-.63.12-.16-.15-.29-.26-.15-.33.44-.67.87-.98,1.33-.36.54-.7,1.09-1.04,1.65-.78,1.3-1.48,2.65-2.16,4.01-.78,1.57-1.5,3.17-2.19,4.78-.75,1.75-1.45,3.52-2.1,5.31s-1.32,3.74-1.9,5.64-1.08,3.74-1.52,5.64c-.42,1.8-.78,3.61-1.04,5.44-.24,1.65-.4,3.32-.41,4.99-.01,1.45.07,2.91.35,4.33.24,1.18.62,2.37,1.3,3.37.15.22.32.43.5.63.05.06.21,0,.16-.09h0Z"/>
      <path class="cls-1" d="M179.45,341.75c-.92,2.19-1.9,4.36-2.82,6.55s-1.84,4.37-2.79,6.54-1.93,4.3-2.97,6.42-2.12,4.23-3.27,6.3-2.38,4.09-3.58,6.13c-.15.25-.29.5-.44.74-.08.13.16.2.23.1.69-.98,1.35-1.96,1.96-2.99s1.2-2.03,1.77-3.06c1.15-2.07,2.24-4.16,3.29-6.29s2.04-4.29,3.02-6.45,1.92-4.31,2.83-6.49c.46-1.1.9-2.2,1.34-3.31s.85-2.22,1.29-3.32c.11-.27.21-.54.32-.81.05-.12-.16-.16-.2-.06h0Z"/>
      <path class="cls-1" d="M162.24,379.12c.99-.8,1.94-1.64,2.81-2.57s1.72-1.93,2.5-2.95c1.64-2.14,3.06-4.43,4.36-6.79s2.56-4.97,3.68-7.53,2.13-5.1,3.13-7.68,1.93-4.9,2.76-7.39c.09-.28.19-.57.29-.85.08-.22-.27-.29-.36-.1-1.06,2.37-1.95,4.8-2.88,7.22-.99,2.57-1.99,5.13-3.07,7.67s-2.24,5.06-3.52,7.51-2.62,4.71-4.18,6.92c-1.47,2.09-3.14,4.02-4.97,5.81-.22.21-.44.42-.67.62-.09.08.03.18.11.11h0Z"/>
      <path class="cls-1" d="M106.17,492.43c-.24,3.86,0,7.74.4,11.58s1.01,7.78,1.57,11.66c.27,1.91.54,3.83.77,5.74s.41,3.88.44,5.83c.07,3.78-.31,7.54-.77,11.29s-1.01,7.34-1.29,11.04-.21,7.49.11,11.23.81,7.31,1.2,10.97.68,7.54.58,11.32c-.05,1.94-.22,3.87-.37,5.81s-.32,3.93-.47,5.9c-.31,3.92-.6,7.84-.7,11.77-.02.94-.04,1.88-.04,2.82,0,.23.16.39.39.4.19,0,.5-.12.5-.35,0-3.92.23-7.83.52-11.73s.65-7.85.92-11.77c.13-1.95.19-3.9.15-5.86s-.16-3.8-.32-5.7c-.32-3.67-.83-7.33-1.21-10.99s-.66-7.36-.53-11.05.62-7.42,1.1-11.11.96-7.47,1.08-11.23c.06-1.94.03-3.88-.13-5.81s-.42-3.86-.68-5.78c-.53-3.87-1.15-7.73-1.65-11.61s-.89-7.68-.91-11.54c0-.93,0-1.86.03-2.79,0-.18-.13-.3-.3-.31-.16,0-.38.1-.39.28h0Z"/>
      <path class="cls-1" d="M78.83,473.08c.41,1.02.89,2.01,1.44,2.96s1.19,1.9,1.9,2.77c.4.5.84.97,1.3,1.42.07.06.21-.02.14-.1-.79-.8-1.5-1.68-2.14-2.6s-1.19-1.87-1.67-2.86c-.27-.55-.52-1.11-.75-1.68-.04-.11-.25-.03-.21.09h0Z"/>
      <path class="cls-1" d="M79.35,473.89c-1.03.39-.12,1.57.3,2.05.47.54,1,1.03,1.54,1.5.69.6,1.4,1.17,2.12,1.73,1.62,1.25,3.28,2.44,4.96,3.6,1.36.94,2.73,1.86,4.11,2.76.22.15.44.3.67.44.19.11.44.17.64.26.26.12.5.26.74.4,1.18.73,2.18,1.74,2.99,2.85.24.33.46.67.67,1.01.11.18.51.16.51-.09v-.51c-.14.06-.28.12-.43.18.18.08.37.15.55.23s.37.18.56.25c.38.14.76.27,1.14.39.79.25,1.59.45,2.4.6,1.61.29,3.27.36,4.87.01.45-.1.89-.22,1.32-.39.21-.08.42-.16.61-.29s.38-.26.56-.39c.16-.12-.02-.3-.17-.23-.18.08-.36.15-.56.21-.2.06-.39.14-.59.21-.35.13-.7.24-1.06.32-.73.18-1.49.26-2.24.27-1.57.01-3.13-.28-4.64-.73-.42-.13-.83-.27-1.24-.42s-.8-.27-1.19-.43c-.13-.06-.43-.03-.43.18v.51c.17-.03.34-.06.51-.09-.78-1.28-1.75-2.46-2.94-3.39-.47-.37-.96-.7-1.5-.96-.23-.12-.46-.22-.7-.31-.09-.03-.07-.03-.16-.08-.05-.03-.1-.07-.15-.1-1.25-.84-2.49-1.68-3.73-2.53-1.64-1.12-3.28-2.27-4.87-3.47-1.37-1.03-2.75-2.09-3.97-3.31-.22-.22-.44-.44-.64-.68-.04-.05-.08-.1-.12-.15-.02-.02-.04-.05-.06-.07,0-.01-.03-.04,0,0-.01-.02-.03-.04-.04-.05-.06-.09-.12-.18-.18-.28-.05-.08-.09-.16-.12-.25,0-.01,0-.02-.01-.03-.02-.04.02.05,0,.01,0-.02-.01-.03-.01-.05,0-.04-.02-.08-.02-.11-.01-.08-.01.02,0-.04,0-.03.03-.12,0-.05.01-.03.02-.05.03-.08-.03.06,0,0,.03-.03,0,0-.05.03,0,0,.01,0,.03-.02.04-.03.05-.04-.02,0,0,0s.04-.02.06-.03c.28-.12.07-.44-.18-.34h0Z"/>
      <path class="cls-1" d="M109.53,490.36c-2.44,1.59-5.39,2.18-8.25,2.36-.4.02-.8.03-1.21.03s-.79.01-1.18-.02c-.25-.02-.42.27-.2.43.37.28.82.49,1.25.69s.89.37,1.35.52c.92.29,1.88.46,2.84.52,1.97.13,3.95-.17,5.81-.82.51-.18,1.01-.39,1.5-.62s1.02-.49,1.39-.89c.06-.06.06-.17,0-.23-.07-.07-.18-.07-.27-.04-.44.14-.85.39-1.26.6s-.85.39-1.28.56c-.87.33-1.78.58-2.7.73-1.8.31-3.68.26-5.45-.21-.49-.13-.97-.29-1.44-.49s-.94-.48-1.41-.71l-.13.43c.72-.06,1.44-.07,2.16-.13s1.48-.14,2.21-.26c1.44-.23,2.88-.6,4.22-1.18.75-.32,1.47-.7,2.14-1.16.09-.06-.03-.15-.1-.1h0Z"/>
      <path class="cls-1" d="M98.69,488.55c1.5.85,3.26,1.08,4.95,1.1,1.79.02,3.56-.2,5.34-.38.86-.09,1.73-.16,2.6-.16.16,0,.42-.16.3-.35-.18-.28-.33-.55-.36-.88,0-.03,0-.06,0-.09,0-.01,0-.03,0-.04,0,.03,0,.03,0,0,0-.05,0-.11,0-.16,0-.11.01-.22,0-.33-.02-.72-.69-1.22-1.19-1.63l-.05.37c1.34-.84,2.5-1.98,4.03-2.49l-.46-.35c-.8,1.61-1.24,3.39-2.17,4.94-.24.4-.53.78-.86,1.12-.11.11-.08.3.04.39.14.11.32.08.46,0,3.02-1.72,5.74-3.95,8.16-6.44.73-.75,1.43-1.51,2.1-2.31l-.58-.24c-1.21,2.46-2.69,4.78-4.02,7.17-.18.33-.36.66-.53.99s-.3.71-.44,1.07c-.1.25.28.29.39.11.19-.3.39-.58.57-.88s.32-.59.49-.88c.34-.6.67-1.2,1.02-1.79.69-1.19,1.39-2.38,2.06-3.58.37-.67.74-1.34,1.09-2.02.07-.14-.02-.29-.15-.34-.15-.06-.33-.02-.43.1-2.32,2.67-4.93,5.11-7.84,7.14-.76.53-1.53,1.02-2.33,1.48l.5.38c1.28-1.29,1.82-3.12,2.48-4.77.19-.48.39-.96.62-1.43.05-.11.01-.24-.08-.31-.11-.08-.25-.08-.37-.04-1.56.53-2.82,1.67-4.14,2.62-.16.11-.14.31,0,.41.32.23.69.51.89.83.07.11.11.19.13.27.01.05.02.1.02.15,0,.02,0,.05,0,.07,0-.07,0,0,0,.02,0,.22-.03.44,0,.66.05.34.21.66.4.94l.3-.35c-1.62,0-3.24.25-4.86.4-1.73.16-3.5.28-5.23,0-.89-.15-1.77-.41-2.56-.86-.25-.14-.61.21-.31.37h0Z"/>
    </g>
    <g>
      <path class="cls-1" d="M36.68,157.91c.1-1.91.12-3.82.05-5.73s-.2-3.93-.39-5.89-.44-3.95-.73-5.92-.63-3.96-.99-5.93-.78-3.95-1.21-5.91-.88-3.86-1.35-5.78-.94-3.77-1.44-5.65c-.12-.45-.24-.9-.36-1.35-.03-.11-.04-.25-.1-.35-.05-.1-.18-.17-.26-.24-.18-.14-.35-.29-.52-.43-.69-.57-1.38-1.16-2.06-1.75-1.33-1.16-2.64-2.36-3.9-3.59s-2.48-2.47-3.66-3.75-2.28-2.54-3.37-3.86-2.09-2.61-3.07-3.97-1.9-2.72-2.79-4.12-1.69-2.78-2.46-4.21-1.47-2.84-2.12-4.3-1.25-2.92-1.79-4.41-1-2.94-1.4-4.44-.76-3.03-1.04-4.56-.5-3.06-.65-4.6-.23-3.08-.25-4.62.05-3.15.18-4.71.33-3.16.61-4.73.63-3.18,1.05-4.75.94-3.2,1.51-4.76,1.26-3.21,1.99-4.77,1.59-3.21,2.48-4.77,1.76-2.95,2.72-4.37c.86-1.27,1.75-2.51,2.69-3.72s1.91-2.38,2.93-3.52,2.04-2.22,3.12-3.28,2.13-2.04,3.26-3.01,2.29-1.92,3.48-2.82,2.38-1.74,3.62-2.55,2.47-1.57,3.75-2.29c.25-.14.6-.34.91-.5.32-.17.64-.35.97-.51.65-.34,1.3-.66,1.96-.97,1.3-.62,2.63-1.2,3.97-1.72s2.69-1,4.06-1.43c.17-.05.34-.11.51-.16.09-.03.17-.05.26-.08.02,0,.11-.03.09-.03-.02,0,.08-.02.11-.03.34-.1.69-.2,1.03-.29.69-.19,1.38-.36,2.08-.52,1.38-.32,2.78-.59,4.18-.8s2.8-.37,4.22-.47c.09,0,.18-.01.27-.02.04,0,.08,0,.12,0,.05,0,0,0-.01,0,.03,0,.05,0,.08,0,.18-.01.35-.02.53-.03.35-.02.71-.03,1.06-.04.71-.02,1.42-.03,2.13-.02,1.42.01,2.83.09,4.24.22.71.07,1.42.15,2.13.25.74.1,1.34.2,2.06.33,1.41.26,2.81.58,4.2.95s2.79.83,4.15,1.33,2.7,1.07,4.06,1.71,2.71,1.36,4.01,2.13,2.65,1.64,3.92,2.54,2.55,1.88,3.74,2.94,2.28,2.11,3.34,3.25,2.04,2.29,2.97,3.5,1.79,2.43,2.6,3.7,1.57,2.59,2.27,3.93,1.36,2.72,1.95,4.12,1.13,2.8,1.61,4.21.93,2.91,1.32,4.39.74,3,1.03,4.51.54,3.04.75,4.57.36,3.08.48,4.62.19,3.11.23,4.67.02,3.07-.02,4.61-.13,3.1-.25,4.64-.28,3.08-.48,4.62-.42,3.02-.68,4.53-.55,2.96-.87,4.44c-.36,1.63-.77,3.25-1.22,4.85-.43,1.51-.9,3-1.44,4.47-.5,1.39-1.06,2.76-1.68,4.1s-1.25,2.56-1.96,3.8-1.47,2.45-2.29,3.63c-.87,1.27-1.79,2.5-2.75,3.71-1.04,1.31-2.11,2.6-3.21,3.86-1.16,1.34-2.38,2.62-3.42,4.05s-1.87,2.8-2.63,4.3-1.36,2.99-1.89,4.54-.98,3.2-1.35,4.83-.67,3.34-.93,5.02-.47,3.44-.65,5.16-.36,3.53-.53,5.3-.34,3.56-.54,5.33-.43,3.57-.7,5.35c-.06.39-.13.78-.16,1.17-.02.37-.09.74-.16,1.1-.14.73-.34,1.48-.34,2.23,0,.21.14.35.35.36.17,0,.45-.11.45-.32,0-.75.2-1.49.34-2.23.07-.36.14-.73.16-1.1s.09-.75.15-1.12c.26-1.63.47-3.27.66-4.91.37-3.25.65-6.5.99-9.75s.69-6.27,1.28-9.38,1.32-5.94,2.46-8.76,2.61-5.44,4.5-7.79c.52-.65,1.09-1.26,1.64-1.88s1.06-1.21,1.59-1.82c.99-1.15,1.95-2.32,2.88-3.52,1.68-2.15,3.25-4.4,4.64-6.76s2.48-4.67,3.44-7.14c1.07-2.75,1.91-5.58,2.63-8.44s1.23-5.51,1.67-8.29.75-5.58.95-8.39.27-5.71.21-8.56-.25-5.69-.6-8.52-.83-5.57-1.48-8.31-1.48-5.44-2.47-8.08-2.14-5.11-3.48-7.53-2.91-4.79-4.64-6.99-3.67-4.28-5.77-6.16-4.56-3.67-7.04-5.21-4.85-2.74-7.42-3.81-5-1.85-7.6-2.47-5.18-1.02-7.82-1.22-5.21-.2-7.81-.01-5.17.56-7.71,1.12-5.1,1.3-7.57,2.19-4.92,1.97-7.27,3.19-4.7,2.62-6.92,4.14-4.39,3.22-6.43,5.02-4.03,3.77-5.87,5.83-3.6,4.28-5.2,6.58c-1.81,2.59-3.46,5.31-4.9,8.12s-2.68,5.72-3.66,8.71-1.66,5.78-2.13,8.75-.66,5.72-.63,8.59.28,5.71.76,8.53,1.17,5.56,2.06,8.26,2.02,5.46,3.3,8.07,2.78,5.23,4.41,7.7,3.53,5.04,5.5,7.4,4.19,4.75,6.46,6.96,4.59,4.26,7.02,6.22l-.06-.12c.72,2.65,1.42,5.31,2.09,7.98s1.32,5.51,1.9,8.28,1.1,5.59,1.53,8.4.77,5.6.99,8.42.32,5.51.3,8.26c0,.33,0,.66-.02.99,0,.16.27.16.28.01h0Z"/>
      <path class="cls-1" d="M35.82,156.25c-.11.1-.24.13-.39.16-.17.03-.34.05-.51.09-.44.12-.69.42-.7.88,0,.12.06.19.17.23,2.29.77,4.56,1.6,6.85,2.37s4.39,1.44,6.64,1.96c1.31.31,2.62.56,3.95.73.2.03.33-.28.1-.33-2.29-.46-4.56-1.02-6.8-1.68s-4.41-1.42-6.61-2.16c-1.31-.44-2.62-.89-3.93-1.32l.17.23c0-.09,0-.19.03-.28,0-.03.03-.07.04-.09.01-.02.02-.03.04-.04.03-.03.09-.05.13-.07.03-.01.15-.03.21-.04.38-.06.73-.12,1.02-.4.09-.09.05-.24-.05-.3-.12-.07-.27-.03-.36.06h0Z"/>
      <path class="cls-1" d="M36.48,158.3c-.16.07-.31.15-.48.2-.08.02-.15.05-.23.07-.03.01-.07.02-.1.04,0,0-.08.03-.03.01s-.14.06-.15.07c-.25.16-.49.35-.68.57-.34.39-.57.87-.63,1.38-.14,1.14.49,2.23,1.15,3.1.88,1.16,1.99,2.12,3.15,2.99,1.24.93,2.58,1.73,3.98,2.4.67.32,1.35.6,2.05.84.3.1.6.2.91.26.17.03.34.07.5.09.04,0,.07,0,.11,0s.22.02.11,0c.07,0,.14.02.2.02.15.01.29,0,.44-.03s.28-.25.1-.33c-.13-.06-.25-.1-.38-.14-.06-.01-.12-.03-.17-.04-.08-.02.09.04-.03,0-.02,0-.05-.02-.07-.03-.04-.01-.07-.03-.11-.04-.28-.09-.57-.17-.85-.26-.31-.09-.61-.2-.91-.31-.16-.06-.32-.12-.47-.19-.02,0-.05-.02-.07-.03.01,0,.07.03,0,0-.04-.02-.07-.03-.11-.05-.08-.04-.17-.07-.25-.11-1.37-.61-2.69-1.36-3.92-2.22-.16-.11-.32-.22-.48-.34-.07-.05-.15-.11-.22-.16,0,0-.06-.05-.03-.02.04.03-.04-.03-.04-.03-.04-.03-.08-.06-.11-.09-.29-.23-.58-.46-.86-.71-.52-.45-1.02-.93-1.47-1.46-.1-.12-.2-.24-.3-.37-.02-.03-.04-.06-.06-.08,0,0-.05-.07-.02-.03.03.04,0,0-.01-.02-.05-.07-.1-.13-.14-.2-.16-.23-.31-.48-.44-.73-.06-.12-.12-.24-.17-.36-.02-.06-.05-.11-.07-.17-.01-.04-.03-.09,0-.02-.01-.03-.02-.07-.03-.1-.07-.23-.12-.46-.14-.7,0-.03,0-.06,0-.09,0-.08,0,.04,0,0,0-.06,0-.11,0-.17,0-.11.02-.22.04-.33.01-.05.03-.1.04-.15,0-.03-.02.07,0-.02.01-.03.02-.06.03-.09.04-.11.09-.21.14-.3.01-.02.03-.05.04-.07.05-.08-.03.04.01-.02.04-.05.08-.11.12-.16.08-.1.16-.19.24-.27.05-.05.1-.1.14-.14-.05.05,0,0,.03-.02.03-.03.06-.05.09-.08.03-.02.05-.03.08-.07.09-.11.05-.06.03-.04.02-.03.05-.05.07-.08.05-.05.1-.11.15-.16.11-.11.25-.17.39-.24.17-.09.04-.29-.12-.22h0Z"/>
      <path class="cls-1" d="M36.4,165.52c-.05.11-.11.21-.15.32s-.04.23-.06.34c-.03.21-.05.43-.06.64-.03.4-.03.8-.03,1.21.01.61.08,1.23.24,1.83.25.93.76,1.76,1.56,2.32.75.53,1.67.8,2.55,1.02,1.06.27,2.14.47,3.18.8.29.09.58.19.86.29.31.12.58.23.86.35.64.27,1.23.62,1.81.99.16.1.33.18.5.26.13.06.36-.06.23-.21s-.24-.28-.4-.39-.29-.2-.44-.3c-.29-.19-.58-.36-.89-.52-.57-.31-1.15-.57-1.76-.79-1.04-.38-2.12-.64-3.2-.92-.46-.12-.93-.24-1.39-.39-.11-.04-.21-.07-.32-.11-.05-.02-.1-.04-.15-.06-.03-.01-.05-.02-.08-.03-.08-.03.03.01-.02,0-.19-.09-.39-.18-.57-.28-.09-.05-.17-.1-.25-.16-.04-.03-.08-.06-.13-.09-.08-.06.06.04-.03-.02-.11-.08.02.02-.04-.03-.16-.13-.31-.27-.45-.42-.03-.04-.06-.07-.1-.11-.02-.02-.03-.04-.05-.06-.05-.06,0,.02-.02-.02-.06-.09-.13-.18-.18-.27-.12-.2-.22-.41-.31-.63-.01-.03-.02-.05-.03-.08,0-.02-.03-.09-.01-.03-.02-.07-.04-.13-.06-.2-.04-.13-.07-.26-.1-.4-.06-.29-.11-.59-.14-.89-.08-.75-.06-1.5-.04-2.25,0-.12.02-.24,0-.35s-.06-.22-.08-.33c-.03-.13-.22-.12-.28-.01h0Z"/>
      <path class="cls-1" d="M83.42,157.38c0,.61-.15,1.23-.26,1.83-.07.35-.13.7-.18,1.05-.03.19-.05.38-.08.57-.01.09-.03.17-.04.26-.01.11-.01.22-.05.32l.34-.1c-.17-.07-.35-.05-.53-.05s-.36,0-.54,0c-.36,0-.72,0-1.08,0-.7,0-1.4.02-2.1.04-1.43.06-2.87.17-4.28.41-.82.14-1.63.33-2.4.65-.19.08-.09.31.1.28.71-.11,1.41-.26,2.12-.39s1.4-.23,2.1-.31c1.39-.15,2.79-.21,4.19-.23.4,0,.79-.01,1.19-.02.19,0,.38,0,.57,0,.2,0,.45.03.63-.04.1-.04.16-.15.11-.25-.04-.09-.03-.19-.03-.29,0-.1,0-.2,0-.31,0-.17.03-.35.05-.52.04-.36.1-.72.17-1.08.11-.59.24-1.2.24-1.8,0-.13-.22-.13-.22-.01h0Z"/>
      <path class="cls-1" d="M54.45,163.7c2.88-.58,5.85-.45,8.76-.28s6.13.4,9.18.04c1.75-.2,3.47-.64,5.08-1.33.23-.1.06-.36-.15-.28-2.91,1.06-6.01,1.36-9.08,1.33s-6-.35-9-.33c-1.63.01-3.26.14-4.85.49-.27.06-.21.41.06.36h0Z"/>
      <path class="cls-1" d="M54.69,165.22c.84.94,1.99,1.53,3.21,1.84,1.4.35,2.87.37,4.3.24,1.6-.14,3.18-.47,4.72-.9s3.16-.98,4.69-1.61c1.36-.56,2.68-1.21,3.95-1.94.14-.08.28-.16.42-.24.19-.11-.02-.34-.19-.25-.6.3-1.2.58-1.81.86-.68.31-1.36.59-2.05.88-1.47.62-2.97,1.16-4.5,1.62s-3.06.81-4.63,1c-1.36.17-2.81.22-4.15-.03-1.19-.22-2.32-.67-3.2-1.49-.11-.1-.21-.21-.31-.32-.21-.23-.71.07-.47.34h0Z"/>
      <path class="cls-1" d="M82.28,159.53c.82,2.19,1.86,4.29,2.79,6.43.25.58.51,1.17.72,1.77l.04-.27c-.99.93-1.89,1.95-2.88,2.88-.92.86-1.92,1.67-3.04,2.27-.68.36-1.38.67-2.08.98-.2.09-.1.33.11.3,1.39-.21,2.65-.92,3.78-1.75s2.04-1.74,2.98-2.7c.55-.56,1.11-1.12,1.65-1.69.07-.08.08-.18.04-.27-.47-1.05-.92-2.11-1.4-3.16s-.99-2.16-1.47-3.24c-.26-.58-.52-1.16-.77-1.75-.11-.25-.56-.07-.46.19h0Z"/>
      <path class="cls-1" d="M83.91,166.96c-1.79,1.37-3.59,2.72-5.48,3.95s-3.87,2.3-5.99,3.07c-.59.22-1.2.4-1.81.58-.32.09-.64.17-.95.26s-.66.2-.99.3c-.08.02-.15.07-.15.16,0,.08.08.14.16.14.61-.03,1.21-.11,1.81-.25s1.14-.31,1.7-.5c1.09-.37,2.14-.82,3.16-1.35,2.04-1.05,3.94-2.34,5.76-3.73,1.02-.78,2.03-1.58,3.04-2.37.22-.17-.07-.41-.26-.26h0Z"/>
      <path class="cls-1" d="M84.93,173.09c-1.96,1.15-4.01,2.17-6.15,2.95s-4.2,1.31-6.38,1.54c-1.21.13-2.44.16-3.66.11-.18,0-.23.23-.04.25,2.2.31,4.46.12,6.62-.37s4.37-1.31,6.41-2.31c1.18-.58,2.33-1.22,3.46-1.91.09-.05.1-.18.03-.25-.08-.08-.21-.06-.3-.01h0Z"/>
      <path class="cls-1" d="M84.98,170.01c-.16.05-.31.14-.44.25-.14.12-.25.27-.38.4-.14.14-.23.34-.3.53-.09.21-.16.43-.21.65-.29,1.08-.34,2.23-.37,3.34-.02.71-.02,1.41-.02,2.12l.16-.19c-2.34,1.16-4.71,2.3-6.98,3.59-.59.33-1.15.72-1.7,1.1-.17.12.02.33.18.24.53-.27,1.07-.52,1.59-.81s1.09-.59,1.64-.88c1.15-.62,2.31-1.23,3.48-1.82.67-.34,1.34-.68,2.01-1.02.07-.03.16-.1.16-.19,0-1.18-.01-2.36.07-3.54.07-.92.15-1.93.57-2.76.04-.09.07-.18.11-.26.04-.07.11-.14.17-.2.12-.12.25-.2.41-.26.08-.03.14-.13.1-.21-.05-.09-.17-.1-.25-.07h0Z"/>
      <path class="cls-1" d="M38.37,171.17c-.04,1.42.02,2.85.32,4.24.21.97.55,1.94,1.14,2.75.54.74,1.24,1.33,2.03,1.79.92.54,1.93.92,2.93,1.27.6.21,1.21.4,1.81.6.69.22,1.38.45,2.08.66.2.06.39.09.6.1.16,0,.29-.18.13-.29-.31-.22-.69-.33-1.05-.45-.34-.11-.68-.22-1.02-.33-.62-.2-1.24-.39-1.85-.6-.55-.18-1.09-.37-1.62-.58-.26-.1-.43-.17-.68-.28-.22-.1-.44-.2-.66-.32-.2-.11-.41-.22-.6-.34-.09-.06-.19-.12-.28-.18-.05-.03-.09-.06-.13-.09-.02-.01-.04-.03-.06-.05,0,0-.02-.01-.03-.02-.06-.04.02.02,0,0-.34-.26-.65-.55-.93-.88-.03-.04-.07-.08-.1-.13-.02-.02-.03-.04-.05-.06,0,0-.01-.02-.03-.05-.06-.09-.13-.18-.19-.27-.12-.19-.23-.39-.33-.59-.22-.46-.38-.89-.5-1.38-.34-1.28-.42-2.62-.48-3.94,0-.2-.02-.41-.02-.61s-.41-.17-.42.03h0Z"/>
      <path class="cls-1" d="M40.52,181c.06.03.12.06.19.1.02,0,.04.02.06.03,0,0,.07.03.04.02,0,0,.06.06.02.02.04.04.07.07.12.1.23.13.47.25.72.36.68.32,1.36.62,2.04.92,1.68.73,3.38,1.42,5.11,2,.82.27,1.64.51,2.5.58.19.01.31-.25.09-.31-1.58-.41-3.12-.94-4.64-1.53s-3.11-1.26-4.64-1.94c-.3-.13-.6-.27-.9-.39-.03-.01-.05-.02-.08-.03h-.02s.03,0-.03-.02c-.02,0-.17-.02-.09,0,0,0-.02,0-.03,0-.06,0,.02,0,.02.01-.02-.01-.05-.02-.07-.03-.08-.03-.15-.07-.23-.11s-.18-.03-.24.04c-.05.06-.04.16.03.2h0Z"/>
      <path class="cls-1" d="M42.15,180.92c.06,0,.08-.08.01-.08-.06,0-.08.08-.01.08h0Z"/>
      <path class="cls-1" d="M44.13,184.03c2.16,1.19,3.65,3.3,4.74,5.45,1.25,2.45,2.06,5.12,2.63,7.8.29,1.34.5,2.7.73,4.06.03.16.28.1.28-.05-.03-1.25-.21-2.48-.45-3.7-.27-1.35-.62-2.69-1.05-4-.84-2.56-1.95-5.15-3.69-7.24-.84-1.01-1.85-1.93-3.06-2.48-.11-.05-.26.09-.13.16h0Z"/>
      <path class="cls-1" d="M50.86,197.85c2.47-.62,5.05-.82,7.6-.82,2.73,0,5.47.26,8.14.81,1.38.28,2.75.64,4.07,1.12.26.09.49-.28.18-.39-2.46-.89-5.06-1.38-7.66-1.66-2.74-.29-5.52-.34-8.27-.05-1.39.15-2.77.39-4.11.78-.16.05-.13.26.04.22h0Z"/>
      <path class="cls-1" d="M69.44,197.24c.59-2.52,1.93-4.76,3.56-6.74s3.6-3.74,5.5-5.5c1.06-.98,2.13-1.96,3.1-3.02.12-.13-.11-.27-.22-.17-.97.88-1.93,1.75-2.91,2.62s-1.98,1.78-2.94,2.7c-1.87,1.8-3.64,3.73-4.93,6-.72,1.28-1.27,2.65-1.6,4.08-.06.24.38.25.43.02h0Z"/>
      <path class="cls-1" d="M79.81,178.76c-2,1.99-3.85,4.13-5.61,6.34s-3.4,4.45-5.04,6.73c-.9,1.25-1.78,2.51-2.63,3.8-.12.18.16.3.28.16,1.72-2.16,3.28-4.45,4.91-6.68s3.34-4.53,5.16-6.67c1.03-1.2,2.09-2.38,3.21-3.5.06-.07.03-.17-.04-.21-.08-.05-.19-.02-.26.05h0Z"/>
      <path class="cls-1" d="M42.53,174.41c.65.39,1.41.62,2.15.81,1.02.26,2.07.44,3.11.59,2.45.35,4.92.52,7.4.61,1.27.05,2.54.06,3.81.01.19,0,.26-.27.04-.28-2.34-.1-4.67-.16-7-.34s-4.55-.38-6.77-.89c-.84-.19-1.71-.41-2.45-.84-.21-.13-.53.17-.28.33h0Z"/>
      <path class="cls-1" d="M41.42,175.36c.93,1.64,2.94,2.25,4.69,2.54,2.25.37,4.57.31,6.85.24,1.16-.04,2.32-.11,3.48-.14.1,0,.21-.05.23-.16.02-.1-.08-.18-.18-.18-2.12-.05-4.25.1-6.37.08-1.12-.01-2.23-.06-3.34-.2-.97-.13-1.94-.32-2.84-.69-.83-.35-1.6-.87-2.05-1.66-.13-.23-.6-.06-.46.19h0Z"/>
      <path class="cls-1" d="M40.08,163.85c-.31.08-.64.17-.93.3-.16.07-.36.17-.43.34-.17.39.45.55.71.61.58.14,1.19.2,1.78.27.67.08,1.35.15,2.02.25.25.04.52.08.8.15.57.14,1.12.33,1.68.48,1.18.32,2.37.59,3.57.82,2.44.47,4.9.79,7.38.98s5.01.25,7.52.2c.31,0,.62-.01.94-.02.17,0,.23-.24.04-.25-2.42-.07-4.85-.17-7.26-.34s-4.78-.42-7.14-.82c-1.17-.2-2.33-.43-3.48-.7-.58-.14-1.16-.28-1.73-.44-.47-.13-.94-.3-1.42-.4-1.25-.27-2.53-.32-3.79-.49-.27-.04-.45-.06-.71-.12-.09-.02-.18-.04-.27-.07-.02,0-.04-.01-.06-.02-.05-.02,0,0,0,0-.03-.01-.05-.03-.08-.04-.04-.02.05.02-.02-.02,0,0,.03.05.01.02-.02-.04.01.05,0,.02,0,0,0,.07,0,.03,0-.03-.02.06,0,.02.01-.03-.04.05,0,.02,0,0,.04-.05.01-.01s0,0,.02-.01c.02-.01.03-.02.05-.03s.03-.02.05-.03c.03-.02-.04.02,0,0,.01,0,.03-.02.04-.02.11-.06.23-.11.35-.15.16-.06.33-.12.5-.17.23-.07.11-.4-.12-.34h0Z"/>
      <path class="cls-1" d="M41.47,161.18c1.86,1.24,4.01,1.97,6.18,2.46,2.29.52,4.64.82,6.97,1.06,1.29.13,2.58.3,3.86.5.17.03.28-.24.09-.28-2.25-.47-4.54-.75-6.82-1.08s-4.51-.72-6.66-1.48c-1.14-.41-2.25-.93-3.26-1.6-.27-.18-.68.21-.36.42h0Z"/>
      <path class="cls-1" d="M113.53,66.94c-1.21,2.5-2.31,5.05-3.39,7.62s-2.11,5.12-3.19,7.67-2.21,5.09-3.45,7.57-2.56,4.84-4.08,7.12-3.22,4.49-5.08,6.55c-.23.25-.46.5-.69.75-.1.11.1.18.18.1,2.02-1.92,3.79-4.08,5.38-6.37s2.93-4.66,4.18-7.11,2.39-4.99,3.47-7.54,2.13-5.15,3.19-7.72,2.14-5.13,3.31-7.65c.14-.3.28-.61.43-.91.07-.15-.2-.21-.26-.07h0Z"/>
      <path class="cls-1" d="M109.92,79.19c-.86,2.09-1.9,4.11-3.04,6.06s-2.48,3.94-3.89,5.79c-.75.98-1.54,1.93-2.35,2.87-.24.28.22.54.45.34,2.38-2.02,4.45-4.37,6.43-6.78.56-.68,1.12-1.36,1.69-2.02.15-.18-.15-.29-.28-.16-2.54,2.45-4.56,5.39-6.59,8.26-.57.8-1.14,1.6-1.69,2.41-.2.29.2.53.45.34,1.34-1.04,2.58-2.2,3.77-3.41s2.35-2.45,3.61-3.59c.7-.64,1.43-1.25,2.23-1.78l-.22-.16c-1.78,2.26-3.51,4.56-5.29,6.81s-3.63,4.52-5.5,6.73-3.78,4.37-5.74,6.49-3.97,4.16-6.04,6.15-4.16,3.85-6.28,5.73c-.26.23-.52.48-.79.7-.23.19.09.45.29.29.56-.46,1.15-.87,1.7-1.33s1.09-.92,1.62-1.38c1.09-.95,2.16-1.92,3.21-2.91,2.09-1.98,4.11-4.03,6.07-6.13s3.89-4.29,5.76-6.5,3.68-4.46,5.46-6.75,3.53-4.54,5.18-6.89c.2-.29.4-.58.61-.87.1-.14-.1-.25-.22-.16-1.35,1.03-2.62,2.15-3.84,3.33s-2.42,2.39-3.7,3.51c-.72.63-1.47,1.22-2.27,1.75l.45.34c1.04-1.41,1.99-2.9,2.99-4.34s2.04-2.9,3.16-4.27c.61-.75,1.25-1.47,1.91-2.17l-.28-.16c-.97,1.21-1.99,2.37-3.03,3.52s-2.11,2.26-3.24,3.32c-.64.6-1.29,1.18-1.96,1.73l.45.34c1.49-1.68,2.82-3.52,4.06-5.39s2.48-3.98,3.52-6.08c.56-1.12,1.07-2.27,1.53-3.44.08-.21-.27-.28-.35-.1h0Z"/>
      <path class="cls-1" d="M20.27,30.25c.22-.32.48-.61.71-.92s.49-.62.74-.93c.54-.63,1.1-1.23,1.69-1.8,1.26-1.21,2.65-2.3,4.09-3.31,1.55-1.09,3.16-2.08,4.81-3s3.4-1.81,5.13-2.65,3.45-1.58,5.17-2.39c.2-.1.41-.19.61-.29.14-.07.04-.23-.1-.18-1.8.65-3.55,1.4-5.29,2.19s-3.52,1.67-5.24,2.61-3.33,1.9-4.9,2.99c-1.48,1.02-2.91,2.13-4.22,3.38-.61.58-1.19,1.18-1.73,1.82-.26.3-.5.62-.74.94s-.47.63-.65.98c-.09.16-.16.33-.25.49-.05.1.12.15.17.07h0Z"/>
      <path class="cls-1" d="M41.09,15.32c-.99.34-1.95.79-2.83,1.35-.92.59-1.77,1.29-2.56,2.05-1.74,1.66-3.21,3.6-4.51,5.62-1.4,2.17-2.6,4.47-3.67,6.81s-2.01,4.71-2.85,7.12c-.39,1.12-.77,2.25-1.12,3.39-.32,1.04-.64,2.09-.89,3.15-.03.12-.06.23-.08.35s0,.25-.03.36c-.06.23.36.23.41.02-.02.08.02-.03.03-.05.01-.03.03-.06.04-.09.02-.05.05-.1.07-.15.05-.12.08-.25.12-.38.08-.26.16-.52.23-.78.15-.51.3-1.03.45-1.54.33-1.1.67-2.2,1.03-3.29.8-2.39,1.69-4.75,2.69-7.06s2.17-4.65,3.49-6.84c1.24-2.06,2.65-4.04,4.32-5.78.76-.79,1.58-1.52,2.46-2.19.81-.62,1.69-1.21,2.62-1.64.22-.1.45-.2.67-.29.13-.05.03-.19-.08-.15h0Z"/>
      <path class="cls-1" d="M18.98,29.17c-.28,1.46-.46,2.94-.61,4.42-.16,1.57-.28,3.13-.36,4.71-.16,3.16-.16,6.34.12,9.49.07.85.17,1.69.3,2.53.06.42.14.83.23,1.24s.17.81.35,1.18c.06.13.33.09.34-.06.01-.36-.04-.72-.1-1.08s-.11-.73-.16-1.1c-.11-.75-.2-1.5-.28-2.26-.16-1.54-.25-3.1-.29-4.65-.08-3.16.06-6.32.34-9.47.15-1.65.35-3.3.5-4.95.02-.23-.35-.22-.39-.02h0Z"/>
      <path class="cls-1" d="M21.55,28.62c-1.59,2.76-2.85,5.73-3.65,8.82-.21.81-.38,1.63-.5,2.45-.04.25.31.24.43.12,1.64-1.63,2.98-3.55,4.2-5.5s2.36-4.06,3.52-6.09c.63-1.09,1.27-2.18,1.97-3.23l-.2.08c.39-.01.75-.27.77-.68.01-.22-.3-.27-.42-.12-1.44,1.72-2.77,3.54-4.03,5.39s-2.44,3.7-3.54,5.62c-.62,1.08-1.22,2.18-1.76,3.3-.07.15.02.3.16.36.15.06.35.02.46-.1.81-.93,1.5-1.96,2.14-3.01s1.27-2.23,1.84-3.37c1.18-2.37,2.2-4.81,3.38-7.18.33-.66.67-1.31,1.02-1.96s.78-1.28,1.2-1.91l-.35-.15c-1.46,3.4-2.75,6.87-4.06,10.33s-2.6,6.97-3.95,10.43c-.75,1.93-1.53,3.85-2.32,5.77-.06.15.03.29.18.34.17.05.33-.03.42-.17,1.38-2.24,2.42-4.67,3.41-7.1s1.99-5.01,3.23-7.39c.7-1.36,1.48-2.67,2.39-3.9l-.28-.08c-.59,2.67-1.43,5.27-2.38,7.83s-1.92,4.84-2.84,7.28c-.26.7-.52,1.39-.76,2.1s-.43,1.45-.65,2.17c-.06.18.24.24.29.08.2-.65.46-1.29.69-1.93s.44-1.23.67-1.85c.45-1.24.93-2.47,1.41-3.7.96-2.46,1.92-4.92,2.7-7.45.46-1.49.87-3,1.18-4.52.03-.15-.21-.18-.28-.08-1.58,2.2-2.8,4.63-3.9,7.1s-2.09,4.94-3.27,7.35c-.65,1.32-1.35,2.63-2.15,3.86l.55.23c1.42-3.41,2.69-6.89,3.97-10.35s2.56-6.98,3.88-10.45c.74-1.94,1.5-3.86,2.26-5.79.09-.24-.27-.28-.38-.11-.34.56-.63,1.15-.96,1.72s-.63,1.14-.93,1.72c-.61,1.18-1.2,2.38-1.78,3.58-1.14,2.35-2.25,4.73-3.64,6.93-.74,1.17-1.56,2.28-2.5,3.31l.62.26c1.01-1.95,2.05-3.88,3.19-5.75s2.36-3.68,3.63-5.47c.73-1.03,1.49-2.04,2.23-3.07l-.42-.07c0-.1,0,.02,0,.05,0,.06-.02.11-.06.16-.05.06-.11.07-.18.08-.2.02-.26.17-.36.32-.33.5-.65,1.01-.96,1.52-.65,1.07-1.27,2.17-1.89,3.26-1.26,2.22-2.52,4.46-4.01,6.54-.82,1.15-1.72,2.24-2.71,3.25l.43.12c.42-3.06,1.45-6.02,2.77-8.8.39-.82.81-1.62,1.25-2.4.11-.2-.25-.27-.35-.1h0Z"/>
      <path class="cls-1" d="M25.82,103.68c-1.26-.12-2.5-.44-3.68-.9s-2.28-1.1-3.31-1.83-2.06-1.64-2.97-2.58c-.97-1-1.86-2.07-2.68-3.19s-1.65-2.39-2.4-3.63-1.46-2.55-2.13-3.86-1.3-2.62-1.9-3.95-1.14-2.56-1.69-3.85c-.5-1.19-1-2.38-1.51-3.57-.44-1.04-.86-2.08-1.33-3.1-.1-.23-.21-.45-.31-.67-.05-.12-.29-.04-.23.1.44,1,.84,2.02,1.25,3.03.47,1.17.94,2.35,1.42,3.52.53,1.28,1.07,2.56,1.63,3.83.59,1.33,1.2,2.66,1.85,3.96s1.35,2.65,2.1,3.94,1.51,2.51,2.36,3.71,1.69,2.27,2.65,3.32c.91.99,1.89,1.92,2.95,2.74s2.13,1.48,3.31,2,2.39.87,3.65,1.04c.31.04.63.07.94.09.11,0,.14-.14.02-.15h0Z"/>
      <path class="cls-1" d="M24.91,108.78c-1.47-1.24-2.82-2.61-4.04-4.1s-2.28-3.06-3.24-4.71-1.81-3.41-2.54-5.19-1.38-3.68-1.92-5.56-1.02-3.89-1.41-5.86-.71-4-.96-6.02-.44-4.03-.6-6.05-.27-3.99-.35-5.99-.13-3.87-.17-5.81c-.04-1.83-.05-3.67-.08-5.5,0-.43-.02-.86-.02-1.29,0-.13-.23-.13-.23-.01,0,1.82-.04,3.63-.04,5.45,0,1.93.01,3.85.06,5.78s.13,4,.24,5.99.29,4.06.52,6.08.51,4.04.87,6.04.78,3.97,1.3,5.93,1.12,3.82,1.83,5.67,1.5,3.6,2.43,5.32,1.96,3.31,3.13,4.84,2.48,2.95,3.9,4.24c.35.32.71.63,1.07.93.12.1.38-.05.24-.17h0Z"/>
      <path class="cls-1" d="M12.68,91.47c-.74-2.22-1.55-4.41-2.4-6.59s-1.63-4.14-2.43-6.21-1.52-4.06-2.18-6.13-1.23-4.23-1.69-6.39c-.49-2.29-.8-4.62-.96-6.96-.02-.31-.04-.61-.05-.92,0-.15-.28-.1-.28.05.07,2.37.32,4.73.72,7.07.37,2.19.91,4.35,1.55,6.48s1.37,4.13,2.14,6.15,1.63,4.13,2.46,6.19,1.72,4.32,2.53,6.49c.1.28.21.56.31.84.05.13.33.06.29-.08h0Z"/>
      <path class="cls-1" d="M7.16,48.49c-.53-.96-.84-2-.96-3.09s-.01-2.24.23-3.34c.26-1.2.69-2.36,1.2-3.48.57-1.24,1.25-2.43,1.99-3.58.78-1.22,1.64-2.38,2.53-3.52s1.9-2.32,2.9-3.44,2.02-2.2,3.05-3.27c.98-1.01,1.98-1.99,2.97-2.99.89-.89,1.79-1.76,2.69-2.64.75-.73,1.5-1.45,2.24-2.2.15-.15.3-.31.45-.46s-.14-.28-.27-.15c-.7.7-1.44,1.37-2.17,2.05-.9.84-1.8,1.68-2.69,2.52-1.02.95-2.02,1.92-3,2.91-1.05,1.05-2.08,2.12-3.09,3.22s-2.02,2.26-2.97,3.44-1.83,2.34-2.65,3.57-1.52,2.37-2.14,3.63c-.57,1.15-1.06,2.35-1.4,3.59-.31,1.13-.48,2.29-.46,3.46.02,1.11.25,2.21.69,3.23.11.25.23.5.36.75s.64.06.49-.21h0Z"/>
      <path class="cls-1" d="M85.94,11.99c1.64.96,3.23,2.01,4.75,3.15s2.83,2.3,4.11,3.6,2.4,2.66,3.41,4.13,1.91,3.08,2.64,4.74c.78,1.76,1.36,3.59,1.81,5.46.06.24.11.49.17.73.03.13.27.09.24-.04-.35-1.92-.89-3.81-1.6-5.63-.67-1.71-1.5-3.35-2.49-4.89s-2.09-2.95-3.33-4.27-2.61-2.56-4.05-3.69c-1.51-1.19-3.1-2.27-4.74-3.26-.21-.13-.41-.25-.62-.37-.22-.13-.56.18-.29.34h0Z"/>
      <path class="cls-1" d="M88.6,15.1c1.15.1,2.27.37,3.34.78s2.05.97,2.97,1.62,1.83,1.45,2.63,2.3c.84.89,1.61,1.85,2.3,2.86s1.38,2.15,1.98,3.28,1.16,2.34,1.66,3.54.95,2.4,1.35,3.62.75,2.41,1.07,3.63c.3,1.14.58,2.29.81,3.45.21,1.05.39,2.1.55,3.15.03.23.07.46.09.7.02.2.38.14.36-.06-.11-1.03-.2-2.06-.38-3.09-.19-1.15-.42-2.3-.68-3.44-.28-1.23-.61-2.44-.98-3.64s-.82-2.5-1.3-3.73-1.01-2.45-1.61-3.63-1.22-2.29-1.94-3.37-1.45-2.07-2.29-3.02-1.66-1.73-2.61-2.47-1.93-1.34-3-1.81-2.22-.82-3.4-.99c-.29-.04-.58-.08-.87-.1-.31-.02-.4.41-.06.44h0Z"/>
      <path class="cls-1" d="M105.9,27.72c1.03.87,1.94,1.89,2.74,2.98.84,1.15,1.55,2.4,2.16,3.69.65,1.36,1.17,2.78,1.61,4.22.46,1.53.83,3.09,1.12,4.65s.53,3.26.69,4.91.26,3.34.31,5.02.03,3.3-.02,4.94-.16,3.18-.29,4.76c-.13,1.47-.29,2.95-.48,4.41-.18,1.31-.38,2.61-.59,3.91-.05.29-.09.58-.15.86-.04.19.3.19.33.02.13-.61.3-1.2.42-1.81.13-.65.25-1.3.37-1.95.25-1.43.43-2.87.58-4.32.16-1.57.28-3.15.35-4.73s.11-3.3.08-4.95-.09-3.38-.23-5.06-.33-3.32-.61-4.97-.6-3.18-1.04-4.74-.93-2.97-1.55-4.4c-.58-1.33-1.27-2.61-2.09-3.81s-1.69-2.21-2.74-3.14c-.25-.22-.5-.43-.76-.63-.1-.08-.32.04-.2.14h0Z"/>
      <path class="cls-1" d="M54.54,162.95c-1.04-2.27-1.8-4.67-2.36-7.11-.59-2.59-1-5.21-1.27-7.85s-.43-5.48-.52-8.22-.13-5.52-.16-8.28-.07-5.34-.19-8.01c-.11-2.5-.29-5-.59-7.49-.32-2.72-.81-5.42-1.35-8.11-.57-2.85-1.19-5.69-1.76-8.54s-1.1-5.68-1.47-8.55c-.35-2.69-.57-5.41-.48-8.12.02-.63.06-1.25.11-1.88l-.27.24c.2-.04.4-.07.6-.09.09-.01.18-.02.27-.03.02,0,.04,0,.07,0-.01,0-.05,0,.02,0,.05,0,.1,0,.15,0,.35-.01.7,0,1.05.05.28.04.61.1.93.2s.55.19.84.34c1.13.57,2.03,1.51,2.71,2.58.75,1.19,1.27,2.52,1.61,3.88s.56,2.88.58,4.35c.02,1.3-.08,2.61-.38,3.88-.03.14-.07.28-.11.42l.56-.1c-.2-.27-.34-.57-.47-.87-.19-.44-.31-.79-.44-1.25-.33-1.1-.55-2.24-.69-3.38-.15-1.21-.21-2.42-.11-3.64.09-1.06.29-2.09.84-3.01.06-.1.08-.13.16-.25.07-.09.14-.18.21-.26.04-.04.07-.08.11-.12.02-.02.04-.04.06-.06.02-.02,0,0-.01.01.01-.01.03-.03.04-.04.08-.07.17-.14.26-.2.04-.03.08-.06.13-.08.02-.01.05-.03.07-.04.04-.02-.05.02,0,0,.01,0,.03-.01.04-.02.1-.05.21-.1.31-.14.05-.02.1-.03.15-.05.04-.01-.05.01,0,0,.01,0,.02,0,.04,0,.03,0,.06-.02.1-.02.03,0,.06,0,.09-.01.07,0-.03,0,.03,0s.11,0,.17,0c.11,0,.23,0,.34.02.03,0,.05,0,.08.01-.05,0-.02,0,.01,0,.05.01.11.02.16.04.1.03.2.06.29.09.02,0,.08.03.02,0,.02,0,.05.02.07.03.05.02.1.05.15.07.09.05.18.1.26.16.02.01.04.03.06.04.02.01.07.05.02.02.04.03.08.06.12.1.17.14.32.3.47.47.15.18.25.31.39.54s.25.43.37.66c.24.48.43.99.59,1.48.36,1.16.59,2.35.76,3.55s.25,2.37.3,3.56c.02.51.04,1.02.05,1.53,0,.24,0,.39,0,.63,0,.19,0,.38,0,.57,0,.16,0,.31,0,.47,0,.14.1.24.24.25.12,0,.31-.08.31-.22,0-1.76.09-3.53.4-5.26s.83-3.39,1.9-4.74c.56-.7,1.27-1.25,2.11-1.58l-.33-.09c.83,1.8,1.33,3.74,1.61,5.7s.39,4.08.4,6.13c0,1.13,0,2.26,0,3.39l.52-.03c-.2-2.06-.07-4.15.34-6.17s1.12-4.04,2.19-5.83c.57-.96,1.24-1.85,2.03-2.64l-.48-.02c1.61,2.83,1.61,6.23,1.55,9.39-.02.91-.04,1.83-.04,2.74,0,.28.43.34.54.09,1.22-2.84,2.7-5.57,4.5-8.09.51-.71,1.04-1.4,1.6-2.07l-.5-.14c-.3,2.46-.7,4.9-1.18,7.34s-1.01,4.87-1.59,7.28-1.23,4.85-1.9,7.26-1.38,4.83-2.11,7.24-1.47,4.8-2.22,7.2-1.5,4.82-2.25,7.23-1.46,4.81-2.16,7.22-1.35,4.78-1.96,7.18-1.17,4.77-1.66,7.18-.93,4.77-1.26,7.17c-.08.59-.15,1.17-.22,1.76-.06.46.75.47.8.04.3-2.41.71-4.81,1.16-7.2s.98-4.8,1.55-7.18,1.21-4.8,1.87-7.18,1.37-4.8,2.09-7.19,1.46-4.79,2.2-7.18,1.5-4.84,2.24-7.27,1.45-4.82,2.13-7.23,1.33-4.83,1.93-7.25,1.15-4.84,1.64-7.28.87-4.86,1.21-7.3c.08-.6.16-1.2.24-1.79.03-.27-.36-.31-.5-.14-2,2.41-3.67,5.08-5.06,7.89-.39.78-.75,1.58-1.1,2.38l.54.09c0-3.27.34-6.64-.53-9.84-.24-.88-.58-1.74-1.03-2.54-.1-.18-.35-.15-.48-.02-1.46,1.46-2.53,3.28-3.28,5.19s-1.25,4.13-1.4,6.28c-.08,1.17-.07,2.35.05,3.52.03.26.52.22.52-.03,0-2.06-.04-4.12-.17-6.17s-.38-4.08-.87-6.07c-.27-1.09-.6-2.16-1.04-3.19-.05-.12-.22-.13-.33-.09-1.65.6-2.79,1.99-3.47,3.57-.73,1.69-1.04,3.55-1.19,5.38-.08.99-.11,1.98-.11,2.97l.55.03c0-.85,0-1.7-.03-2.56-.04-1.18-.11-2.37-.24-3.54-.14-1.24-.32-2.49-.63-3.7-.28-1.07-.64-2.15-1.26-3.07-.52-.77-1.25-1.44-2.19-1.64-.52-.11-1.03-.1-1.53.08-.46.17-.87.46-1.2.81-.72.77-1.06,1.82-1.24,2.84-.22,1.22-.22,2.49-.12,3.72s.29,2.44.6,3.62c.23.9.5,1.83.95,2.65.07.13.15.26.24.38.15.2.49.16.56-.1.34-1.26.46-2.59.46-3.89,0-1.49-.15-3-.47-4.46s-.79-2.85-1.53-4.12c-.68-1.17-1.59-2.23-2.77-2.92-1.24-.73-2.69-.97-4.11-.81-.2.02-.4.05-.6.09-.12.02-.26.11-.27.24-.24,2.68-.14,5.38.12,8.05.28,2.85.75,5.68,1.29,8.49s1.17,5.76,1.76,8.64,1.11,5.49,1.52,8.25c.37,2.51.61,5.05.76,7.58s.22,5.24.26,7.87c.05,2.76.08,5.53.15,8.29s.19,5.51.43,8.26.58,5.34,1.12,7.96c.51,2.48,1.23,4.95,2.23,7.28.24.55.49,1.09.75,1.63.07.13.32.04.25-.11h0Z"/>
      <path class="cls-1" d="M87.94,117.5c-.97,2.11-2.05,4.17-3.26,6.15s-2.5,3.8-3.92,5.58c-.4.5-.81,1-1.23,1.49s-.9,1-1.26,1.56c-.11.17.12.31.26.19.46-.4.85-.85,1.24-1.32s.74-.9,1.1-1.35c.72-.9,1.41-1.82,2.07-2.77,1.31-1.87,2.52-3.82,3.6-5.84.63-1.18,1.22-2.38,1.77-3.6.1-.22-.28-.29-.36-.1h0Z"/>
      <path class="cls-1" d="M86.88,119.02c-.87,2.57-2.31,4.91-3.79,7.16-.44.67-.89,1.35-1.32,2.03-.07.11.04.23.14.26.13.04.25-.02.32-.13.45-.7.98-1.34,1.53-1.97.61-.7,1.25-1.39,1.9-2.06.35-.36.71-.72,1.06-1.07l-.27-.08c-.19,1.55-.71,3.04-1.44,4.41s-1.66,2.65-2.7,3.8-2.23,2.25-3.45,3.26-2.5,1.95-3.78,2.87c-.61.44-1.23.87-1.84,1.31-.3.21-.58.44-.87.66s-.56.41-.82.63c-.13.11-.26.23-.39.33-.21.15.07.37.25.24.28-.2.6-.37.89-.56s.59-.42.9-.61c.64-.4,1.26-.85,1.88-1.29,1.29-.92,2.57-1.87,3.79-2.88s2.43-2.12,3.52-3.31,2.03-2.43,2.78-3.82,1.27-2.87,1.52-4.41c.03-.2.06-.4.09-.59.02-.15-.19-.15-.27-.08-1.31,1.3-2.64,2.58-3.83,3.99-.3.35-.58.7-.84,1.08l.4.23c.82-1.18,1.6-2.38,2.35-3.6s1.4-2.37,1.97-3.61c.31-.66.58-1.34.81-2.03.09-.27-.36-.37-.44-.13h0Z"/>
      <path class="cls-1" d="M84.24,135.41c0,2.87-.34,5.73-.86,8.55s-1.31,5.8-2.17,8.65c-.48,1.59-1,3.17-1.47,4.77-.06.22.34.24.41.07.59-1.38,1.08-2.79,1.54-4.22s.88-2.88,1.26-4.34c.73-2.84,1.32-5.73,1.64-8.65.18-1.59.27-3.19.27-4.79,0-.16-.11-.27-.27-.28-.13,0-.35.09-.35.25h0Z"/>
      <path class="cls-1" d="M37.74,159.4c-.05-.19-.06-.31-.02-.49.02-.11.02-.12.06-.22.03-.09.08-.17.12-.25,0-.01.05-.07.05-.08.03-.04.06-.08.09-.12.06-.08.13-.16.2-.23.04-.04.07-.07.11-.11.05-.04-.03.02,0,0,0,0,.02-.02.03-.03.02-.02.05-.04.07-.06.09-.08.19-.16.29-.23.21-.16.44-.31.66-.44.06-.04.12-.07.19-.11.04-.02.07-.04.16-.09.14-.07.27-.14.41-.21.62-.31,1.25-.58,1.9-.84,1.49-.59,3.02-1.08,4.55-1.55s3.06-.91,4.59-1.41c.66-.21,1.3-.44,1.95-.69.52-.2,1.05-.41,1.54-.67.09-.05.24-.14.3-.17.23-.11.05-.4-.16-.29s-.46.19-.69.28c-.27.1-.55.2-.82.29-.15.05-.29.1-.44.14-.08.02-.15.05-.23.07,0,0-.07.02-.03,0,.04-.01-.05.01-.04.01-.04.01-.08.02-.13.04-.36.1-.71.21-1.06.32-1.54.47-3.08.92-4.62,1.4s-3.11.99-4.63,1.59c-1.23.49-2.49,1.03-3.56,1.82-.39.29-.75.63-1,1.04-.11.17-.18.35-.23.54s-.05.37-.03.55c0,.09.03.17.05.25.06.19.41.13.36-.06h0Z"/>
      <path class="cls-1" d="M62.63,153.02c1.51-.12,3-.24,4.56-.24.79,0,1.58.03,2.37.1.39.03.77.07,1.15.12.19.03.38.05.57.08.05,0,.1.02.15.02,0,0,.07.01.02,0,.02,0,.04,0,.06,0,.1.02.2.03.3.05.75.14,1.5.31,2.23.54.36.11.72.24,1.07.37.08.03.16.06.24.1.04.02.08.03.12.05-.05-.02,0,0,.01,0,.03.01.06.02.08.04.17.07.34.15.5.23,1.35.64,2.52,1.45,3.55,2.52,1.08,1.12,1.93,2.47,2.5,3.93.08.2.15.4.23.6.06.15.37.07.33-.1-.15-.83-.49-1.65-.84-2.41-.33-.71-.79-1.39-1.28-1.99-.96-1.18-2.18-2.13-3.52-2.84s-2.85-1.22-4.36-1.54-3.19-.48-4.8-.51c-.79-.01-1.59,0-2.38.06s-1.61.11-2.4.25c-.18.03-.37.06-.55.1-.13.02-.26.13-.23.28.02.15.19.19.31.18h0Z"/>
      <path class="cls-1" d="M52.2,157.08c.99.6,2.1.99,3.23,1.22s2.36.34,3.53.34c.69,0,1.38-.04,2.06-.04l.05-.37c-2.41,0-4.84.01-7.22.48l.14.41c1.69-.56,3.42-.97,5.11-1.53.19-.07.2-.35,0-.4-1.95-.47-3.97-.15-5.85.47-.2.07-.27.36-.06.47,1.51.76,2.76,2.01,4.46,2.38.61.13,1.21.16,1.83.16l.06-.44c-2.22,0-4.41.46-6.63.46-.14,0-.3.07-.34.22s.05.26.18.3c.83.27,1.73.34,2.6.35,1.07.01,2.16-.07,3.2-.32.55-.13,1.08-.32,1.58-.59.08-.05.16-.11.16-.22,0-.09-.07-.18-.16-.2-.51-.1-1.01-.21-1.52-.31-.48-.1-.95-.21-1.42-.31-1.08-.22-2.16-.34-3.26-.41l-.06.43c.88.05,1.78.03,2.66,0s1.73-.08,2.59-.15c1.71-.12,3.43-.29,5.13-.5.48-.06.95-.14,1.43-.2.24-.03.48-.06.73-.09.26-.03.53-.11.79-.14.24-.03.18-.33-.05-.31s-.46.01-.68.03-.45.04-.67.07c-.43.04-.87.07-1.3.11-.86.07-1.71.17-2.57.25-1.67.16-3.34.31-5.02.39-.99.05-1.98.06-2.97.12-.12,0-.27.06-.29.2-.02.12.1.23.22.23,1.09-.06,2.18.02,3.25.23.47.09.93.2,1.38.34s.95.3,1.43.44v-.41c-.89.39-1.88.59-2.83.7s-1.93.12-2.89,0c-.42-.05-.8-.11-1.21-.25l-.16.52c1.06,0,2.11-.16,3.16-.29,1.16-.14,2.32-.26,3.49-.27.13,0,.27-.07.29-.21.02-.13-.11-.23-.23-.23-.93,0-1.87-.22-2.71-.61-.72-.33-1.37-.8-2.03-1.23-.4-.26-.8-.51-1.22-.72l-.06.47c1.73-.58,3.58-1,5.39-.55v-.4c-1.7.55-3.43.97-5.12,1.53-.28.09-.13.46.14.41,1.17-.23,2.35-.4,3.54-.47s2.37-.07,3.55-.07c.11,0,.23-.06.25-.17.02-.11-.09-.2-.19-.2-.59,0-1.18-.03-1.77-.06s-1.15-.05-1.73-.09c-1.12-.09-2.24-.26-3.31-.61-.6-.2-1.18-.46-1.73-.78-.27-.16-.66.22-.34.41h0Z"/>
      <path class="cls-1" d="M59.49,158.1c1.99.02,3.99.02,5.98,0,.56,0,1.12-.03,1.68-.05.09,0,.19-.05.21-.15.01-.09-.08-.16-.16-.17-.49-.02-.99-.05-1.48-.05s-1,0-1.5,0c-1,0-1.99,0-2.99,0-.56,0-1.12,0-1.68.01-.11,0-.24.06-.26.19-.02.12.09.21.2.21h0Z"/>
      <path class="cls-1" d="M75.76,152.41c.85.52,1.62,1.19,2.14,2.05.45.74.7,1.58.72,2.44.06,1.83-.86,3.58-2.08,4.89-.8.85-1.76,1.56-2.78,2.12-.18.1-.05.32.13.24,1.91-.86,3.56-2.4,4.47-4.3.79-1.66.94-3.62.05-5.27-.55-1.03-1.44-1.83-2.43-2.43-.17-.1-.43.14-.22.26h0Z"/>
      <path class="cls-1" d="M85.3,166.06c0,1.88-.5,3.73-1.15,5.48-.7,1.87-1.59,3.66-2.5,5.44-.48.93-.94,1.87-1.35,2.84-.09.2.24.25.33.09.98-1.68,1.89-3.4,2.72-5.15s1.63-3.64,2.1-5.58c.25-1.01.4-2.05.4-3.1,0-.14-.1-.24-.24-.24-.11,0-.31.08-.31.22h0Z"/>
      <path class="cls-1" d="M85.72,170.14c-.41,2.27-.96,4.51-1.62,6.72s-1.48,4.57-2.34,6.81c-.48,1.27-1,2.53-1.48,3.8-.08.22.26.27.35.1,1.14-2.16,2.06-4.44,2.89-6.74s1.51-4.55,2.09-6.87c.32-1.25.59-2.52.83-3.79.08-.41-.65-.42-.72-.04h0Z"/>
      <path class="cls-1" d="M80.22,183.88c-1.16,2.43-2.68,4.66-4.52,6.62s-4.09,3.76-6.5,5.15c-1.32.76-2.71,1.41-4.15,1.92-.24.08-.11.41.12.35,2.75-.73,5.3-2.05,7.58-3.75s4.31-3.77,5.87-6.13c.84-1.27,1.58-2.6,2.09-4.03.11-.3-.37-.39-.49-.14h0Z"/>
      <path class="cls-1" d="M42.13,184.14c.69.02,1.37.27,1.97.62.69.4,1.29.94,1.85,1.53,1.24,1.34,2.17,2.96,2.84,4.66.35.89.62,1.8.84,2.73.05.21.39.14.38-.07-.02-.88-.24-1.75-.52-2.59-.31-.91-.72-1.77-1.21-2.6-.91-1.54-2.09-3.04-3.65-3.97-.75-.44-1.57-.73-2.44-.71-.11,0-.24.06-.26.18-.02.12.09.2.2.21h0Z"/>
      <path class="cls-1" d="M51.75,194.4c2.75.8,5.57,1.65,8.46,1.71.81.01,1.63-.01,2.42-.19.11-.03.23-.11.23-.24,0-.12-.12-.22-.23-.21-.7.04-1.4.1-2.1.09s-1.37-.06-2.05-.15c-1.4-.17-2.77-.48-4.13-.83-.79-.21-1.58-.43-2.37-.65-.14-.04-.32.02-.38.16s.03.27.16.31h0Z"/>
      <path class="cls-1" d="M57.67,197.36c.49.78.91,1.6,1.27,2.45.4.93.69,1.77.98,2.76.62,2.1,1.02,4.26,1.29,6.43.31,2.41.46,4.84.54,7.27s.07,5.08,0,7.63-.18,5.11-.32,7.67-.29,4.88-.43,7.31c-.13,2.16-.25,4.32-.32,6.48-.09,2.73-.06,5.46-.04,8.19.03,3.66.08,7.32.16,10.97s.18,7.27.3,10.91.25,7.31.4,10.97.3,7.27.46,10.91.33,7.29.5,10.94.33,7.29.49,10.94.31,7.27.46,10.91.28,7.31.34,10.97.1,7.22.11,10.84c.01,3.62,0,7.25-.02,10.87s-.07,7.23-.13,10.84-.13,7.19-.21,10.78-.17,7.21-.27,10.81-.2,7.15-.31,10.73-.21,7.14-.32,10.71-.21,7.17-.32,10.76-.2,7.12-.28,10.68-.17,7.15-.23,10.73-.12,7.11-.16,10.67-.06,7.11-.06,10.66.07,7.26.2,10.89.31,7.12.52,10.67.47,7.12.74,10.68.55,7.07.83,10.61.56,7.09.82,10.64.5,7.19.7,10.78.36,7.06.42,10.6.05,6.96,0,10.44-.15,7.03-.24,10.55-.19,7-.26,10.5-.09,6.98-.05,10.46.16,6.88.39,10.32c.22,3.24.54,6.47,1,9.68.04.29.4.43.66.37.27-.06.53-.27.49-.58-.48-3.35-.8-6.72-1.02-10.09-.11-1.7-.19-3.4-.25-5.1s-.1-3.43-.12-5.08c-.04-3.49,0-6.98.06-10.47s.16-7,.25-10.5.18-7.05.23-10.58.05-7.03-.02-10.54-.25-7.09-.45-10.64-.45-7.17-.71-10.75-.54-7.09-.83-10.64-.57-7.11-.84-10.67-.52-7.08-.73-10.62-.4-7.16-.52-10.74-.19-7.14-.19-10.71.02-7.15.06-10.72.09-7.11.15-10.67.14-7.14.23-10.7.18-7.14.28-10.71.2-7.13.31-10.7.21-7.18.31-10.77.2-7.15.3-10.73.18-7.21.25-10.82.14-7.19.19-10.78.08-7.23.1-10.84.02-7.25,0-10.87-.07-7.28-.14-10.92-.21-7.31-.36-10.97-.3-7.27-.46-10.91-.33-7.31-.5-10.97-.34-7.27-.5-10.91-.32-7.31-.47-10.97-.28-7.27-.4-10.91-.22-7.29-.3-10.94-.13-7.27-.16-10.9c-.02-2.63-.05-5.25.04-7.88.08-2.19.2-4.39.33-6.58.14-2.44.29-4.87.42-7.31.13-2.57.24-5.15.3-7.72s.06-5.13-.04-7.69c-.09-2.42-.27-4.85-.6-7.25-.3-2.15-.72-4.3-1.36-6.38-.55-1.76-1.27-3.48-2.27-5.04-.1-.15-.29-.19-.46-.12-.14.06-.27.24-.18.39h0Z"/>
    </g>
  </g>
</svg>