<?xml version="1.0" encoding="UTF-8"?>
<svg id="Capa_2" data-name="Capa 2" xmlns="http://www.w3.org/2000/svg" viewBox="0 0 199.83 541.4">
  <defs>
    <style>
      .cls-1 {
        fill: #fff;
      }
    </style>
  </defs>
  <g id="Capa_1-2" data-name="Capa 1">
    <g>
      <path class="cls-1" d="M138.12,259.64c2.14-5.88,2.36-12.32,2.19-18.51-.18-6.82-.88-13.63-1.54-20.43-.35-3.58-.6-7.17-.72-10.77-.01-.34-.68-.28-.69.04-.1,3.19.06,6.39.24,9.58.19,3.38.49,6.76.77,10.14.56,6.62,1.07,13.3.6,19.94-.24,3.32-.74,6.67-1.7,9.87-.13.44.71.52.85.14h0Z"/>
      <path class="cls-1" d="M135.14,256.82c.5-1.38.82-2.84,1.16-4.27s.66-2.86.98-4.29c.62-2.85,1.2-5.71,1.73-8.58,1.05-5.73,1.99-11.48,2.95-17.23.54-3.22,1.04-6.45,1.55-9.68.05-.35-.53-.34-.6-.03-1.23,5.68-2.17,11.43-3.12,17.17s-1.94,11.47-3.04,17.18c-.31,1.62-.64,3.23-.99,4.84-.17.79-.34,1.57-.5,2.36s-.38,1.65-.5,2.48c-.03.21.32.23.38.06h0Z"/>
      <path class="cls-1" d="M140.73,219.18c1.74-5.96,4.3-11.63,7.22-17.1s6.45-11.18,9.71-16.75c1.76-3.02,3.51-6.07,5.06-9.2.15-.31-.37-.39-.51-.15-3.19,5.56-6.58,11-9.87,16.5-1.67,2.78-3.29,5.59-4.83,8.44s-2.95,5.62-4.17,8.54c-1.31,3.14-2.46,6.35-3.16,9.69-.07.32.47.3.55.03h0Z"/>
      <path class="cls-1" d="M160.06,184.51c3.9-4.41,7.43-9.13,10.66-14.04,3.25-4.94,6.25-10.05,8.96-15.31s5.15-10.63,7.37-16.1c2.2-5.44,4.14-11,5.88-16.61s3.2-11.13,4.4-16.8c.14-.68.28-1.35.42-2.03.1-.48-.74-.48-.85-.04-1.39,5.59-2.92,11.14-4.61,16.65s-3.63,11.09-5.78,16.51-4.53,10.87-7.16,16.13-5.47,10.37-8.6,15.32-6.5,9.65-10.06,14.25c-.43.56-.87,1.12-1.31,1.67-.34.43.38.73.68.39h0Z"/>
      <path class="cls-1" d="M187.47,142.36c.71-.65,1.42-1.34,2.03-2.09.65-.8,1.23-1.65,1.77-2.52,1.17-1.9,2.07-3.96,2.83-6.06.86-2.38,1.53-4.82,2.06-7.29.58-2.66.99-5.36,1.29-8.07.32-2.87.52-5.75.62-8.63s.09-5.91,0-8.86-.29-5.79-.58-8.67-.63-5.5-1.09-8.22c-.42-2.51-.95-4.99-1.6-7.45-.57-2.16-1.28-4.3-2.1-6.38-.18-.45-.39-.89-.57-1.34-.14-.34-.79-.1-.64.27.37.92.64,1.91.92,2.86.31,1.05.59,2.11.84,3.18.57,2.39,1.07,4.8,1.5,7.22.47,2.65.86,5.32,1.16,8,.32,2.83.54,5.67.69,8.51s.22,5.78.18,8.67-.17,5.73-.42,8.59-.58,5.46-1.06,8.16c-.45,2.5-1,4.99-1.74,7.42-.66,2.17-1.47,4.3-2.5,6.32-.46.9-.96,1.81-1.5,2.65-.27.41-.55.82-.85,1.21-.28.37-.54.76-.85,1.11s-.62.67-.94.98c-.31.3.27.66.54.41h0Z"/>
      <path class="cls-1" d="M191.9,70.57c-.09-1.58-.35-3.15-.71-4.69-.39-1.66-.9-3.28-1.51-4.88-.64-1.69-1.39-3.35-2.2-4.97s-1.77-3.36-2.74-4.99-2.07-3.32-3.17-4.94-2.25-3.2-3.43-4.76-2.36-3.05-3.59-4.54-2.38-2.84-3.61-4.23c-1.15-1.3-2.32-2.58-3.51-3.84-1.07-1.13-2.14-2.25-3.24-3.35-.25-.25-.49-.49-.74-.73-.07-.07-.24.03-.15.11,1.06,1.06,2.1,2.15,3.13,3.24,1.15,1.22,2.28,2.47,3.4,3.72,1.21,1.36,2.41,2.74,3.58,4.14s2.42,2.95,3.59,4.45,2.37,3.12,3.5,4.73,2.2,3.21,3.24,4.87,1.98,3.28,2.88,4.97,1.65,3.26,2.36,4.95,1.26,3.24,1.73,4.91c.44,1.54.77,3.12.94,4.72.04.37.07.75.1,1.12,0,.09.17.06.17-.03h0Z"/>
      <path class="cls-1" d="M188.43,57.7c-.62-2.01-1.36-3.98-2.23-5.9s-1.97-3.9-3.13-5.75c-2.42-3.89-5.25-7.5-8.36-10.86s-6.7-6.69-10.38-9.66-7.49-5.68-11.48-8.15c-3.75-2.32-7.65-4.45-11.73-6.14-.48-.2-.96-.39-1.44-.58-.34-.13-.78.39-.38.58,3.9,1.82,7.73,3.83,11.43,6.03,3.96,2.35,7.78,4.96,11.42,7.79s7.22,6,10.49,9.37,6.13,6.8,8.69,10.57c1.22,1.8,2.35,3.66,3.37,5.58s1.92,3.78,2.66,5.76c.18.48.35.97.51,1.45.1.29.66.2.56-.1h0Z"/>
      <path class="cls-1" d="M142.12,9.34s.05.03.07.04c.04.02-.03-.02-.03-.04-.03-.16.21-.45.32-.37-.02-.01-.05-.01-.07-.02-.19-.07-.38-.13-.56-.2-.85-.32-1.54-.59-2.39-.89-2.65-.95-5.3-1.88-7.96-2.79-2.89-.98-5.79-1.94-8.72-2.79-1.09-.32-2.18-.62-3.29-.87-1.66-.36-3.37-.51-5.05-.69C110.16.27,105.88.03,101.59,0s-8.97.16-13.44.56-8.95,1.03-13.36,1.89-8.75,1.96-13.02,3.32-8.18,2.9-12.08,4.79c-1.93.93-3.83,1.93-5.67,3.04s-3.54,2.17-5.17,3.43c-.8.61-1.55,1.28-2.34,1.89-.5.39.17.93.6.6.82-.64,1.72-1.21,2.59-1.77s1.75-1.17,2.64-1.72c1.8-1.12,3.6-2.13,5.47-3.11,3.85-2,7.86-3.69,11.95-5.12s8.45-2.65,12.81-3.6,8.91-1.68,13.41-2.17,8.89-.75,13.37-.79,8.73.12,13.08.48c1.06.09,2.11.19,3.17.31.52.06,1.04.12,1.56.18.25.03.5.06.75.1.12.02.24.03.35.05.05,0,.21.03-.02,0,.03,0,.07.01.1.02,1.02.19,2.03.44,3.03.71,2.9.78,5.77,1.7,8.63,2.61s5.61,1.81,8.42,2.7c.92.29,1.84.58,2.77.82.26.07.53.14.79.2.16.04.35.1.51.03.3-.13.16-.4-.06-.5-.26-.11-.67.21-.34.4h0Z"/>
      <path class="cls-1" d="M40.58,17.19c-.98-.35-2-.45-3.09-.35s-2.11.39-3.1.8c-2.33.98-4.35,2.58-6.15,4.33-2.19,2.13-4.05,4.59-5.75,7.11-2.02,3-3.82,6.15-5.47,9.36-1.8,3.5-3.43,7.1-4.93,10.74s-2.97,7.6-4.27,11.47-2.45,7.68-3.5,11.58c-.96,3.57-1.83,7.17-2.52,10.8-.31,1.62-.59,3.25-.83,4.89-.21,1.48-.42,2.97-.51,4.46-.08,1.34-.14,2.51-.15,3.9,0,1.11.02,2.23.13,3.33.02.23.05.45.09.68s.1.51.12.63c.07.43.85.29.78-.14-.01-.07-.02-.2-.03-.33,0-.12-.02-.23-.02-.35-.01-.24-.03-.47-.04-.71-.03-.56-.04-.97-.04-1.49,0-1.19.08-2.38.19-3.56.13-1.38.33-2.76.53-4.13.22-1.56.49-3.12.78-4.68.64-3.47,1.41-6.93,2.27-10.35.95-3.79,2.03-7.56,3.19-11.21,1.23-3.87,2.58-7.69,4.04-11.48s2.96-7.33,4.65-10.89c1.58-3.32,3.29-6.58,5.2-9.71.87-1.42,1.69-2.68,2.69-4.06.89-1.24,1.84-2.46,2.85-3.61.46-.53.94-1.04,1.43-1.54.23-.24.47-.48.71-.71.12-.11.23-.22.35-.33-.11.1.06-.06.09-.08.07-.06.13-.12.2-.18.9-.8,1.87-1.54,2.9-2.16.12-.07.25-.15.37-.22-.14.08.05-.03.08-.04.07-.04.14-.07.2-.11.24-.13.48-.25.73-.36s.49-.21.73-.3c.12-.04.24-.09.36-.13.06-.02.12-.04.19-.06.04-.01.27-.08.1-.03.11-.03.23-.06.34-.09.06-.01.11-.03.17-.04.03,0,.07-.01.1-.02.16-.05.18-.05.07-.02h.03c.25-.07.5-.11.75-.15s.49-.07.73-.09c.03,0,.06,0,.08,0-.12,0,0,0,.02,0,.06,0,.11,0,.17,0,.13,0,.25,0,.38,0,.53,0,.9,0,1.45.07.26.03.4-.32.13-.41h0Z"/>
      <path class="cls-1" d="M1.83,91.68c-.01,3.45.1,6.9.35,10.34s.63,6.71,1.12,10.05,1.1,6.55,1.82,9.79,1.55,6.42,2.48,9.59,1.95,6.26,3.06,9.34,2.34,6.2,3.63,9.25,2.67,6.08,4.11,9.07,3,6.04,4.6,9.02,3.28,5.96,5,8.9c.87,1.49,1.76,2.98,2.66,4.45s1.81,2.98,2.76,4.44c.46.71.94,1.41,1.39,2.13.09.15.41.03.3-.13-.47-.74-.92-1.5-1.37-2.25s-.91-1.48-1.37-2.22c-.91-1.48-1.81-2.96-2.7-4.45-1.75-2.93-3.46-5.89-5.11-8.88s-3.21-5.93-4.72-8.94-2.92-5.99-4.26-9.03-2.59-6.07-3.76-9.15-2.24-6.18-3.22-9.32-1.85-6.3-2.61-9.5-1.44-6.49-1.99-9.76-.99-6.62-1.3-9.95-.52-6.81-.59-10.23c-.02-.85-.03-1.7-.03-2.54,0-.15-.27-.16-.27-.01h0Z"/>
      <path class="cls-1" d="M0,101.79c.04,1.89.13,3.78.26,5.67s.32,3.81.54,5.71.5,3.83.82,5.74.68,3.84,1.08,5.75.85,3.84,1.33,5.75,1.01,3.83,1.56,5.73,1.16,3.81,1.79,5.7,1.3,3.78,2,5.65,1.44,3.75,2.21,5.61,1.57,3.71,2.41,5.54,1.7,3.65,2.59,5.46,1.82,3.59,2.77,5.36,1.93,3.52,2.93,5.25,2.03,3.44,3.09,5.13,2.13,3.35,3.23,5,2.22,3.25,3.37,4.85,2.32,3.16,3.52,4.71,2.38,3.03,3.62,4.5,2.46,2.9,3.73,4.3,2.54,2.75,3.85,4.09c.63.64,1.28,1.25,1.91,1.88.11.11.36-.04.23-.17-.65-.65-1.27-1.34-1.9-2s-1.27-1.36-1.9-2.04c-1.27-1.39-2.52-2.8-3.74-4.23s-2.45-2.91-3.65-4.4-2.4-3.04-3.56-4.59-2.31-3.14-3.43-4.74-2.24-3.26-3.32-4.92-2.15-3.36-3.18-5.06-2.04-3.43-3.01-5.17-1.94-3.52-2.87-5.3-1.82-3.57-2.68-5.38-1.71-3.65-2.51-5.49-1.58-3.7-2.32-5.57-1.44-3.73-2.11-5.61-1.31-3.78-1.91-5.69-1.16-3.8-1.68-5.72-1-3.8-1.44-5.71-.84-3.82-1.21-5.75-.68-3.82-.95-5.74-.51-3.79-.7-5.7-.33-3.79-.43-5.69c-.05-.91-.08-1.82-.11-2.73,0-.14-.26-.1-.26.05H0Z"/>
      <path class="cls-1" d="M41.26,196.3c1.13,1.8,2.24,3.61,3.3,5.45s2.09,3.71,3.07,5.61,1.9,3.79,2.78,5.72,1.7,3.87,2.47,5.84,1.49,3.97,2.16,5.99,1.26,4.03,1.81,6.07,1.03,4.09,1.46,6.16.79,4.15,1.09,6.25.55,4.2.73,6.32.3,4.27.37,6.4c.02.53.04,1.06.04,1.58,0,.16.27.16.27.01,0-1.07.02-2.15,0-3.22s-.07-2.13-.12-3.2c-.12-2.13-.32-4.25-.59-6.37s-.6-4.21-1-6.29-.86-4.15-1.37-6.21-1.1-4.09-1.73-6.12-1.33-4.03-2.08-6.01-1.56-3.97-2.42-5.92-1.76-3.85-2.71-5.75-1.97-3.8-3.03-5.66-2.16-3.69-3.33-5.48c-.28-.44-.57-.87-.86-1.3-.09-.13-.38-.03-.28.12h0Z"/>
      <path class="cls-1" d="M47.51,210.22c.08.07.16.14.23.21.04.04.08.08.12.12-.1-.11.09.09.12.12.17.17.35.34.5.53.09.1.17.21.25.31-.07-.09.05.07.07.1.04.06.08.12.12.17.17.25.34.5.5.75.77,1.26,1.37,2.62,1.9,4,1.43,3.71,2.4,7.66,3.26,11.56,1.02,4.65,1.85,9.34,2.57,14.05s1.31,9.06,1.84,13.61c.4,3.42.79,6.85,1.2,10.27.04.3.08.6.11.9.03.41.78.28.75-.13-.11-1.38-.13-2.88-.25-4.31-.15-1.84-.31-3.69-.52-5.52-.5-4.49-1.08-8.98-1.75-13.45-.72-4.76-1.53-9.5-2.54-14.2-.87-4.09-1.87-8.18-3.28-12.12-.53-1.48-1.12-2.94-1.87-4.32-.56-1.02-1.21-2.02-2.12-2.76-.19-.16-.42-.28-.65-.39-.17-.08-.38-.07-.53.07-.12.11-.17.33-.03.45h0Z"/>
      <path class="cls-1" d="M135.53,261.01c-1.93,1.24-3.83,2.5-5.85,3.58s-4.09,2.07-6.21,2.93c-4.23,1.73-8.65,2.99-13.15,3.79s-9.01,1.11-13.57.94-8.99-.83-13.37-1.98-8.56-2.83-12.61-4.83c-.52-.26-1.03-.52-1.54-.79s-1.19.37-.62.73c1.94,1.26,3.94,2.34,6.06,3.28s4.3,1.74,6.53,2.4c4.44,1.33,9.07,2.09,13.69,2.37s9.4.05,14.03-.66,9.18-1.92,13.55-3.6,8.51-3.84,12.37-6.47c.48-.32.94-.66,1.39-1.01.21-.16.29-.45.09-.66s-.55-.18-.78-.03h0Z"/>
      <path class="cls-1" d="M127.25,260.08c-3.3,2.52-6.97,4.48-10.81,6.04-4.05,1.64-8.21,2.79-12.52,3.57-2.22.41-4.45.71-6.7.93s-4.27.33-6.58.37c-4.47.08-8.95-.17-13.39-.75-4.11-.53-8.19-1.39-12.23-2.46-.48-.13-.95-.26-1.43-.39-.53-.15-.97.55-.37.78,3.95,1.5,8.08,2.48,12.24,3.14,4.43.7,8.91,1.03,13.4,1.02s9.19-.36,13.73-1.13,8.78-1.87,12.97-3.47,7.78-3.5,11.22-6.01c.41-.3.81-.6,1.2-.91.6-.47-.2-1.13-.73-.73h0Z"/>
      <path class="cls-1" d="M129.87,263.12c-.3-4.06-3.82-6.74-7.18-8.45-4.22-2.15-8.92-3.38-13.54-4.32-2.37-.48-4.77-.89-7.17-1.22-.36-.05-.59.49-.18.6,1.99.53,4.01.96,6.02,1.4,2.28.5,4.56,1.03,6.8,1.66s4.43,1.35,6.53,2.3c1.82.83,3.62,1.82,5.09,3.19s2.53,3,2.79,4.98c.06.46.86.31.83-.15h0Z"/>
      <path class="cls-1" d="M132.25,254.61c-5.14-.8-10.28-1.61-15.38-2.63-1.58-.31-3.15-.64-4.72-.97-.16-.03-.36.01-.43.18-.07.15.03.31.18.35,2.7.78,5.43,1.39,8.19,1.9,2.58.47,5.17.91,7.77,1.26,1.43.2,2.86.38,4.3.57.19.02.41-.12.44-.31.03-.22-.16-.32-.34-.35h0Z"/>
      <path class="cls-1" d="M90.87,248.18c-4.81,1-9.69,1.6-14.46,2.77s-9.51,2.9-13.29,6.08c-2.3,1.93-4.23,4.28-5.55,6.99-.17.36.44.54.63.26,1.46-2.19,3.1-4.28,5.1-6,1.79-1.54,3.79-2.82,5.93-3.82,4.35-2.04,9.11-3,13.8-3.91,2.66-.52,5.32-1.02,7.95-1.68.5-.13.4-.78-.12-.68h0Z"/>
      <path class="cls-1" d="M88.34,249.09c-2.52-.5-5.06.24-7.34,1.29-2.64,1.21-5.05,2.91-7.28,4.76-.63.52-1.22,1.07-1.81,1.64-.54.52-1.03,1.07-1.51,1.65-.31.37.29.71.6.45,1.03-.85,2.05-1.7,3.07-2.57,1.07-.92,2.18-1.79,3.34-2.6.58-.4,1.16-.79,1.76-1.16s1.1-.65,1.72-.97c.59-.3,1.18-.59,1.79-.83.3-.12.6-.23.91-.34.13-.05.27-.09.41-.13.02,0,.21-.06.14-.04.08-.02.15-.04.23-.06,1.26-.34,2.47-.51,3.74-.35.43.05.72-.61.22-.71h0Z"/>
      <path class="cls-1" d="M141.05,263.1c-.05.15-.11.3-.17.44-.03.07-.05.08-.13.15.02-.02.08-.08-.02,0-.05.05-.08.09-.12.16-.02.05-.04.09-.06.14-.17.39-.35.77-.51,1.16-.4.94-.76,1.9-1.11,2.86-.83,2.25-1.55,4.57-1.85,6.95-.16,1.3-.2,2.63,0,3.92l.53-.62c-1.51.37-3.04.71-4.58.95s-3.09.39-4.7.3c-.87-.05-1.74-.25-2.61-.15-.33.04-.44.41-.18.6.32.24.68.34,1.07.42.41.09.83.14,1.25.17.79.06,1.59.06,2.39.01,1.67-.09,3.33-.34,4.97-.68.86-.18,1.72-.38,2.58-.6.28-.07.58-.29.53-.62-.37-2.23,0-4.56.57-6.78.53-2.09,1.3-4.12,2.09-6.15.17-.44.33-.89.48-1.34.03-.1.07-.19.1-.29.02-.07.05-.14.03-.22l-.04-.11.02.05s-.02-.17-.02-.09c0,.07.02-.05.03-.08.01-.04.03-.08.04-.12.03-.08.05-.16.08-.25.12-.41-.53-.55-.66-.19h0Z"/>
      <path class="cls-1" d="M138.4,264.9c-.12.11-.22.25-.32.39-.01.02-.02.04-.04.05-.08.12.01,0-.06.07-.04.04-.08.08-.11.13-.09.12-.17.26-.24.39-.34.59-.57,1.22-.79,1.86-.61,1.81-1.02,3.67-1.26,5.56-.08.6-.13,1.22-.12,1.82s0,1.23.1,1.83c.05.3.55.24.6-.04.08-.53.12-1.07.2-1.6s.13-1.03.2-1.55c.14-.99.28-1.98.49-2.96.18-.86.37-1.72.62-2.57.03-.09.05-.19.08-.28,0-.02.01-.04.02-.06,0,.02-.02.06,0-.01.02-.05.03-.1.05-.15.05-.17.11-.34.17-.51.1-.3.21-.59.31-.89.05-.14.1-.29.16-.43.03-.08.06-.16.08-.24,0-.03.01-.06.02-.09,0-.01,0-.02,0-.03.01-.04-.03.06,0,0,.05-.09.1-.18.15-.27.02-.03-.03.04,0,.01,0,0,.01-.02.02-.03.01-.02.02-.04.04-.05.02-.03.05-.06.08-.09.09-.1.06-.26-.06-.32-.13-.08-.28-.03-.39.07h0Z"/>
      <path class="cls-1" d="M135.45,275.29c.04.1,0-.09.01.05s.03-.03,0,.05c0,.03-.04.18-.01.09s-.04.07-.05.11c-.06.13.05-.04-.03.05-.04.05-.08.1-.12.15-.03.03-.05.05-.08.08-.08.08.09-.07,0,0-.06.05-.12.1-.19.15-.15.11-.31.2-.47.3-.12.07.1-.05-.03.01-.04.02-.08.05-.13.07-.1.05-.21.11-.31.16-.47.22-.95.42-1.43.62-1.24.51-2.52.93-3.81,1.32-.09.03-.19.06-.28.08-.03.01-.07.02-.1.03-.18.05.15-.04-.03,0-.19.06-.39.11-.58.17-.4.11-.81.22-1.21.33-.84.22-1.67.45-2.52.66-3.77.94-7.59,1.72-11.42,2.38s-7.43,1.17-11.17,1.53c-.82.08-1.64.15-2.46.2-.04,0-.14,0,.03,0-.05,0-.11,0-.16,0-.09,0-.17.01-.26.02-.19.01-.38.02-.56.03-.23.01-.46.02-.68.04-.08,0-.16.01-.24.02-.16.01.11,0,.01,0-.06,0-.11,0-.17.01-.16,0-.31.02-.47.02h-.17c.09,0,.1,0,.03,0-.04,0-.08,0-.11,0-.1,0-.19,0-.29,0-.3,0-.59,0-.89,0-.54-.01-1.07-.02-1.61-.06-.1,0-.21-.02-.31-.03-.05,0-.1-.01-.15-.02-.03,0-.22-.04-.09-.01-.21-.05-.47.02-.57.23-.09.19.04.42.24.46.5.11,1,.23,1.51.31.58.09,1.17.12,1.76.14,1.53.06,3.04.02,4.57-.09,3.76-.25,7.5-.77,11.21-1.4,3.93-.66,7.84-1.45,11.72-2.41,3.13-.77,6.28-1.63,9.27-2.86.96-.39,1.91-.85,2.73-1.48.06-.05.13-.1.19-.15.03-.03.07-.06.1-.09.25-.23-.1.1.17-.16.1-.1.2-.2.28-.31.18-.25.32-.53.29-.85-.01-.12-.05-.25-.11-.36-.23-.43-1.06-.13-.84.35h0Z"/>
      <path class="cls-1" d="M117.46,285.76c-2.52.17-5.02.31-7.53.45-3.12.17-6.24.27-9.37.31-3.36.04-6.73-.02-10.09-.25s-6.59-.6-9.82-1.25c-2.99-.61-5.88-1.47-8.75-2.5-.33-.12-.67-.25-1-.38-.36-.14-.79.37-.39.61,2.59,1.57,5.5,2.47,8.44,3.14,3.28.75,6.64,1.17,9.99,1.43s6.8.35,10.21.33,6.47-.17,9.69-.38c2.65-.17,5.28-.42,7.92-.68.28-.03.55-.05.83-.08.21-.02.41-.23.37-.44-.04-.24-.3-.3-.5-.29h0Z"/>
      <path class="cls-1" d="M82.42,285.87c-.6.41-1.14.62-1.84.71-.07,0-.14.02-.2.02-.03,0-.17,0-.02,0-.04,0-.08,0-.12,0-.18,0-.35.01-.53,0-.15,0-.3-.02-.45-.04-.04,0-.08-.01-.12-.02-.14-.02.12.03-.02,0-.1-.02-.19-.04-.29-.06-.34-.08-.66-.19-.99-.31-.02,0-.16-.07-.03,0-.04-.02-.08-.04-.12-.05-.07-.03-.14-.06-.21-.09-.18-.08-.36-.17-.54-.27-.34-.18-.67-.38-.99-.6-.17-.11-.33-.23-.5-.34-.07-.05-.14-.1-.21-.15.1.08-.03-.03-.05-.04-.05-.04-.11-.08-.16-.13-1.4-1.11-2.65-2.41-3.81-3.77-.61-.72-1.21-1.45-1.78-2.2-.34-.44-.51-.69-.85-1.13-.3-.39-.47-.61-.76-1.01-1.08-1.46-2.08-2.82-3.21-4.27-.22-.29-.87.02-.67.38,1.71,3.05,3.63,5.98,5.91,8.64,1.21,1.41,2.5,2.77,3.95,3.93,1.28,1.02,2.7,1.94,4.31,2.31.81.18,1.66.25,2.47.07s1.63-.58,2.31-1.09c.16-.12.21-.33.06-.48s-.4-.13-.57-.02h0Z"/>
      <path class="cls-1" d="M61.03,262.51c.2.27.36.57.47.89-.09-.23.06.18.02.05-.04-.11.01.04.02.06.03.08.05.17.07.25.04.16.06.31.08.47,0,.08.01.16.02.24,0,.04,0,.08,0,.13,0,.04,0,.12,0-.07,0,.07,0,.14,0,.21,0,.01,0-.15,0-.02,0,.04,0,.09,0,.13,0,.09,0,.17-.01.26-.03.37-.08.73-.16,1.09-.04.19-.09.38-.14.56-.02.09-.05.18-.08.27-.01.04-.02.08-.04.13-.03.1.01-.04.01-.05,0,.03-.02.06-.03.09-.13.4-.26.79-.41,1.18-.3.81-.63,1.61-.95,2.41-.62,1.58-1.24,3.24-1.34,4.95s.44,3.44,1.7,4.72c.78.79,1.75,1.4,2.74,1.87,1.39.66,2.88,1.14,4.38,1.46.55.12,1.05.22,1.61.15.51-.06.81-.74.31-1.04-.43-.26-.9-.34-1.38-.45-.4-.1-.81-.2-1.21-.3-.72-.19-1.43-.42-2.12-.69-.08-.03-.16-.06-.24-.09-.13-.05.1.04-.08-.03-.15-.06-.29-.13-.44-.2-.27-.13-.54-.27-.8-.41-.23-.13-.46-.27-.68-.42-.05-.04-.11-.07-.16-.11-.03-.02-.16-.12-.08-.06.09.07-.08-.06-.09-.07-.05-.04-.11-.09-.16-.13-.34-.29-.63-.6-.91-.95.13.16.02.02-.01-.02s-.06-.09-.09-.13c-.06-.09-.11-.17-.16-.26-.1-.17-.18-.34-.26-.52-.04-.08-.07-.17-.1-.25-.04-.09.05.16,0,0-.02-.05-.03-.1-.05-.16-.05-.18-.09-.36-.13-.54s-.06-.38-.07-.57c0-.08-.01-.17-.01-.25,0-.09,0-.14,0,0,0-.06,0-.11,0-.17.01-.8.16-1.59.36-2.35.05-.21.11-.41.17-.62-.04.14-.01.04,0-.03.01-.05.03-.09.04-.14.04-.11.07-.22.11-.33.14-.4.28-.8.43-1.2.6-1.59,1.29-3.17,1.69-4.83.33-1.39.4-2.95-.47-4.17-.12-.17-.25-.33-.39-.48-.19-.21-.55-.2-.78-.07-.2.11-.41.41-.24.64h0Z"/>
      <path class="cls-1" d="M58.47,278.02c.71,1.47,1.71,2.83,2.87,3.98s2.55,2.21,3.97,3.1c.39.24.78.47,1.18.69s.83.42,1.27.61c.19.08.41.07.55-.1.13-.15.09-.36-.08-.46-1.4-.82-2.82-1.62-4.12-2.6-.01,0-.06-.05,0,0-.02-.02-.04-.03-.06-.05-.04-.03-.08-.06-.12-.09-.08-.06-.17-.13-.25-.2-.16-.13-.32-.26-.48-.39-.31-.26-.62-.54-.91-.82-.59-.56-1.15-1.15-1.66-1.78-.07-.09-.14-.17-.2-.26-.01-.02-.03-.04-.04-.06,0,0-.06-.08-.04-.05.02.03-.02-.03-.03-.04-.02-.02-.04-.05-.05-.07-.13-.18-.26-.37-.39-.55-.25-.38-.48-.77-.69-1.17-.19-.36-.9-.1-.71.3h0Z"/>
      <path class="cls-1" d="M134.46,276.12c.03.32.05.65.07.97,0,.17.02.34.02.51,0,.09,0,.17,0,.26,0,.02,0,.1,0,0,0,.06,0,.12,0,.17,0,.21.01.41.02.62,0,.15,0-.1,0,.05,0,.03,0,.06,0,.09,0,.1,0,.21,0,.31,0,.37-.01.73-.03,1.1-.08,1.51-.29,3.01-.67,4.48-.11.42-.18.65-.29.98-.12.36-.25.71-.39,1.06s-.29.69-.46,1.02c-.08.17-.18.33-.26.49-.05.09,0,0,.01,0-.03.04-.06.07-.09.11-.04.05-.19.28-.08.11-.03.05-.07.1-.1.15-.41.6-.82,1.19-1.32,1.72-.11.12-.23.24-.34.35-.03.03-.06.06-.1.09-.12.11.12-.11,0,0-.08.07-.16.14-.24.21-.27.23-.55.44-.84.63-.08.05-.16.11-.25.16-.04.02-.08.05-.12.07-.11.07.16-.08-.03.02-.17.09-.35.18-.53.27-.2.09-.4.17-.6.25-.09.03-.18.06-.27.09-.05.01-.09.03-.14.04-.13.04.18-.05-.03,0-.43.12-.88.21-1.32.28-.23.03-.45.05-.68.08-.12.02-.25.03-.37.05-.14.02-.27.06-.38.15-.14.13-.16.15-.06.05-.02.02-.04.04-.06.05-.18.16-.28.41-.08.61.23.24.49.28.81.3.28.01.56-.01.83-.03.42-.03.84-.09,1.25-.19.8-.2,1.57-.48,2.29-.88,1.37-.76,2.53-1.84,3.41-3.14.13-.18.24-.37.35-.57.04-.08.09-.16.13-.24.02-.04.05-.08.06-.12.05-.17.06-.2.02-.09,0-.03.02-.06.03-.09.13-.34.34-.66.49-1,.33-.73.59-1.49.81-2.26.43-1.49.67-3.04.77-4.59.1-1.65.05-3.29-.26-4.92-.1-.54-1.04-.37-.99.17h0Z"/>
      <path class="cls-1" d="M134.32,290.68c0,.07.07-.17.03-.09,0-.02.11-.16.05-.08.13-.14.09-.08,0-.01-.16.11.16-.07-.04.02-.07.04-.15.07-.22.1-.45.19-.92.35-1.38.51-.67.23-1.35.45-2.03.66-.4.12-.81.25-1.21.37-.1.03-.19.06-.29.09.25-.07-.23.07-.3.09-.24.07-.49.15-.73.22-.21.06-.42.12-.63.19-.06.02-.13.04-.19.06.19-.05-.03,0-.06.02-.13.04-.26.08-.39.11-.49.14-.98.28-1.47.42-1.01.29-2.02.57-3.03.85-2.01.56-4.03,1.1-6.03,1.67-1.86.53-3.72,1.04-5.5,1.78-.56.23-.27.92.29.83.75-.12,1.49-.26,2.24-.44.9-.22,1.8-.45,2.7-.69,2.03-.55,4.06-1.12,6.09-1.7,3.66-1.04,7.36-2.05,10.93-3.37.53-.2,1.06-.4,1.56-.67.3-.16.9-.45.89-.86,0-.72-1.21-.76-1.27-.06h0Z"/>
      <path class="cls-1" d="M61.09,278.99c.44.79.73,1.6.77,2.51,0,.17,0,.31,0,.47,0,.2-.02.4-.05.6-.06.41-.14.69-.27,1.02-.6,1.56-1.83,2.81-3.12,3.83-.89.71-1.83,1.33-2.81,1.91-.46.28-.28.9.18,1.04,5.14,1.49,10.1,3.51,15.17,5.2.7.23,1.41.46,2.12.68.37.11.74.22,1.11.32.19.05.39.11.59.15.27.04.51-.04.75-.14.22-.08.4-.36.27-.59-.08-.15-.16-.28-.3-.39-.17-.13-.39-.17-.59-.24-.32-.1-.64-.21-.96-.31-.62-.19-1.24-.39-1.86-.59-1.27-.42-2.54-.85-3.8-1.3-2.54-.88-5.06-1.8-7.61-2.64-1.44-.48-2.88-.93-4.34-1.34l.18,1.04c1.74-1.05,3.44-2.26,4.77-3.81,1.15-1.34,2.01-3.04,1.88-4.85-.08-1.05-.55-2.12-1.11-3.01-.3-.48-1.29-.13-.98.42h0Z"/>
      <path class="cls-1" d="M61.09,288.31c2.84,3,6.19,5.48,9.71,7.63s7.4,4.01,11.28,5.64c2.23.93,4.49,1.77,6.82,2.39.23.06.51-.02.65-.23.12-.18.08-.45-.14-.56-3.76-1.78-7.68-3.19-11.43-4.99s-7.33-3.8-10.66-6.23c-1.84-1.33-3.6-2.8-5.25-4.36-.47-.45-1.5.15-.97.7h0Z"/>
      <path class="cls-1" d="M134.72,291.39c-.63.51-1.24,1.06-1.72,1.76s-.84,1.41-1.16,2.17c-.64,1.54-1.03,3.16-1.43,4.77-.2.8-.41,1.6-.64,2.4-.02.07.03-.09,0-.01,0,.02-.01.04-.02.06-.02.05-.03.11-.05.16-.03.1-.06.2-.1.3-.06.19-.13.38-.2.57-.14.39-.3.77-.47,1.14s-.35.72-.55,1.06c-.05.08-.1.16-.15.24-.03.05-.08.12-.02.03-.03.05-.06.09-.09.14-.11.17-.23.33-.36.5-.25.32-.52.63-.81.92-.04.03-.07.07-.11.1-.02.02-.04.04-.06.06,0,0,.09-.08.04-.04-.08.07-.16.14-.24.21-.17.14-.34.28-.52.4s-.37.26-.56.38c-.09.06-.19.11-.28.17.11-.07.01,0-.04.02s-.11.06-.17.09c-.44.23-.9.42-1.37.58-.12.04-.24.08-.36.12-.07.02-.14.04-.21.06.14-.04-.05.01-.1.03-.28.08-.56.16-.85.23-.61.15-1.23.3-1.85.4-.33.06-.66.13-1,.19-.4.07-.43.61,0,.63,2.39.12,4.8-.37,6.9-1.61,1.52-.9,2.72-2.22,3.55-3.78s1.24-3.12,1.63-4.74c.2-.81.38-1.62.57-2.43.09-.4.19-.79.3-1.19.05-.2.11-.4.17-.59.01-.05.03-.09.04-.14.02-.07-.02.07,0,0,0-.02.01-.04.02-.06.03-.1.07-.21.1-.31.25-.76.55-1.5.93-2.2.09-.17.19-.35.3-.51.08-.13.2-.32.28-.43.22-.33.48-.62.71-.94.11-.15.27-.3.39-.4.36-.33-.14-.75-.47-.47h0Z"/>
      <path class="cls-1" d="M128.13,305.15c-1.32,1.27-2.86,2.33-4.4,3.32-1.67,1.08-3.4,2.07-5.12,3.08-3.32,1.96-6.75,4.07-9.15,7.16-.65.84-1.22,1.75-1.67,2.71-.23.5-.45,1.02-.59,1.56s-.2,1.08-.21,1.64c0,.44.71.55.85.14.32-.92.66-1.84,1.05-2.73.18-.41.38-.81.61-1.2.25-.43.42-.69.71-1.09,1.11-1.54,2.39-2.72,3.85-3.85,3.11-2.42,6.63-4.22,9.93-6.35,1.77-1.14,3.47-2.41,4.94-3.92.17-.18.1-.46-.1-.58-.24-.14-.51-.05-.7.12h0Z"/>
      <path class="cls-1" d="M105.54,325.08c.07,0,.14,0,.21,0,.16,0-.12-.03-.17-.06l-.17-.17-.04-.11.03-.23h0c.05-.06.11-.13.16-.19.03-.03.31-.09.21-.1-.03,0-.07,0-.1,0-.13.01.18,0,0,0-.07,0-.13,0-.2,0-.17,0-.34.01-.51.02-.05,0-.23-.02-.04.02-.02,0-.05,0-.07-.02h-.02c.14.05.12.05-.05-.02-.16-.04-.34-.02-.5-.02-1.31.01-2.62.04-3.93.05-3.44.03-6.89-.02-10.32-.36-.44-.04-.87-.09-1.3-.15-.2-.03-.41-.06-.61-.09-.06,0-.4-.06-.18-.03-.14-.02-.27-.04-.41-.06-.19-.02-.37-.05-.56-.08-.1-.01-.19-.01-.29-.02-.04,0-.08,0-.12,0,.19,0-.07,0-.12-.01-.09-.01-.18-.03-.27-.04-.03,0-.16-.03,0,0-.04,0-.07-.01-.11-.02-.19-.03-.39-.03-.59-.05-.36-.02-.64.4-.3.63.28.19.57.32.89.43.04.01.07.03.11.04-.17-.05.08.03.13.05.08.03.16.07.24.1.17.06.36.09.53.13.86.2,1.76.28,2.64.37,1.93.19,3.87.27,5.81.31s3.72.03,5.58,0c.4,0,.8-.02,1.21-.03.18,0,.36-.01.54-.02.04,0,.08,0,.12,0,.07,0,.14,0,.2-.01,0,0-.16.01-.09,0,.14-.02.28-.02.41-.03.3-.02.6-.04.89-.06.06,0,.3-.02.06,0,.16,0,.35-.03.47-.14-.05.04-.13.08-.03.04.02,0-.14.01-.04.02.03,0,.06,0,.09,0,.05,0,.11,0,.16-.01.27-.02.54-.03.81-.08.33-.06.71-.42.39-.75-.13-.13-.3-.15-.47-.15-.06,0-.11,0-.17,0-.25,0-.54.13-.58.41-.04.26.21.46.45.46h0Z"/>
      <path class="cls-1" d="M83.29,321.78c-.75-2.23-1.89-4.29-3.29-6.17s-3.09-3.67-4.88-5.27c-1.01-.9-2.11-1.71-3.22-2.47-.28-.2-.83.19-.52.48,1.7,1.57,3.39,3.16,4.98,4.83s2.99,3.41,4.15,5.42c.32.55.61,1.11.87,1.69.13.29.26.58.37.87.06.15.12.29.17.44.03.07.05.14.08.21.04.1.02.05,0,.03.02.05.04.11.05.16.1.3.39.47.71.4.25-.05.63-.31.53-.62h0Z"/>
      <path class="cls-1" d="M79.38,315.32c-2.26-3.58-6-5.88-9.54-8.04s-7.3-4.23-9.93-7.49c-.7-.87-1.3-1.83-1.76-2.85-.23-.52-.43-1.05-.61-1.59-.11-.33-.07-.71-.07-1.06l-.28.44c1.09-.58,2.01-1.38,2.89-2.24.82-.8,1.65-1.68,2.66-2.25.25-.14.47-.39.31-.69-.14-.27-.54-.34-.8-.22-1.11.52-1.99,1.47-2.84,2.34-.43.44-.86.89-1.3,1.33-.39.38-.82.78-1.31,1.02-.12.06-.28.18-.28.33,0,.3-.03.61-.03.91.01.53.27,1.1.46,1.59.37.94.86,1.83,1.45,2.65,1.2,1.7,2.73,3.11,4.39,4.35,3.46,2.59,7.39,4.46,10.89,6.98,1.86,1.34,3.62,2.91,4.96,4.79.24.34.99.09.74-.31h0Z"/>
      <path class="cls-1" d="M58.29,287.93c0,2.16-.03,4.33.19,6.48.21,2.01.63,4.04,1.53,5.86.26.52.57,1,.92,1.46.17.22.34.44.53.64.23.24.47.41.76.58s.87-.09.67-.48c-.05-.1-.1-.21-.15-.31-.06-.13-.16-.24-.25-.35-.08-.09-.15-.19-.22-.29-.09-.11-.08-.1-.17-.22-.28-.39-.53-.81-.77-1.23s-.45-.84-.63-1.27c-.2-.47-.32-.82-.47-1.3-.58-1.93-.75-3.99-.82-6-.04-1.17-.05-2.33-.05-3.51,0-.28-.19-.47-.47-.48-.23-.01-.61.15-.61.43h0Z"/>
      <path class="cls-1" d="M136.82,292.33c-2.86-.02-5.68.79-8.4,1.57-3.73,1.07-7.42,2.3-11.08,3.61-1.84.66-3.66,1.35-5.46,2.12-.43.18-.1.64.28.52,3.45-1.12,6.85-2.39,10.28-3.57s6.8-2.23,10.28-3.09c.75-.19,1.5-.36,2.26-.49.59-.1,1.17-.23,1.78-.23.3,0,.4-.42.06-.43h0Z"/>
      <path class="cls-1" d="M132.87,294.13c-.94.63-2.1,1.12-3.19,1.57-1.55.63-3.14,1.15-4.75,1.62-3.78,1.1-7.62,1.95-11.52,2.54-2,.3-4.01.51-6.03.66-.37.03-.37.54,0,.56,1.8.13,3.66,0,5.45-.21,2.01-.24,4-.59,5.98-1.01,3.67-.79,7.33-1.78,10.8-3.2,1.31-.54,2.64-1.12,3.74-2.03.4-.33-.13-.74-.49-.49h0Z"/>
      <path class="cls-1" d="M137.42,278.5c-1.05.61-2.25,1.07-3.4,1.5-1.48.55-2.99,1.01-4.51,1.41-3.54.94-7.13,1.59-10.76,2.1-1.91.27-3.84.46-5.77.51-.37,0-.5.52-.08.53,3.63.09,7.24-.29,10.81-.92s6.93-1.47,10.25-2.68c1.39-.51,2.76-1.1,4.02-1.89.19-.12.22-.38.07-.54-.17-.18-.45-.14-.64-.03h0Z"/>
      <path class="cls-1" d="M138.14,260.17c-.23.22-.27.26-.52.48-.22.19-.45.38-.68.57-.51.41-1.04.79-1.57,1.17-1.25.9-2.55,1.73-3.86,2.52-1.45.87-2.9,1.68-4.39,2.47s-3.16,1.56-4.72,2.36-3.33,1.59-5.02,2.32c-.18.08-.3.27-.21.46.1.2.35.2.53.14,3.28-1.05,6.42-2.46,9.47-4.05s5.9-3.22,8.63-5.15c1.17-.83,2.3-1.72,3.31-2.75.21-.21.12-.56-.12-.7-.28-.16-.62-.07-.84.15h0Z"/>
      <path class="cls-1" d="M109.71,253.75c-2.02,2-4.41,3.59-7.01,4.72s-5.24,1.74-8,2.1c-1.58.2-3.17.31-4.75.45-.45.04-.44.64,0,.68,2.89.26,5.85-.1,8.66-.79s5.6-1.81,8.08-3.4c1.44-.92,2.77-2.01,3.98-3.22.21-.21.12-.56-.12-.7-.28-.16-.62-.07-.84.15h0Z"/>
      <path class="cls-1" d="M101.71,259.79c2.03,1.01,4.63.97,6.23,2.79l.62-.73c-1.21-.43-2.51-.71-3.76-1.01s-2.51-.55-3.77-.78c-2.52-.45-5.06-.76-7.61-.93-1.41-.09-2.82-.13-4.24-.14l-.16,1.06c3.67,0,7.35.03,10.99-.44.99-.13,1.97-.29,2.94-.49.25-.05.5-.23.54-.49s-.16-.47-.4-.54c-1.31-.43-2.65-.75-4-1.01-1.68-.33-3.39-.59-5.1-.66-1.04-.04-2.08-.01-3.12.06-.38.03-.38.55,0,.58,1.73.13,3.47.33,5.18.58,1.51.22,3.01.5,4.49.87.69.18,1.38.37,2.05.6l.15-1.04c-3.43.67-6.75.87-10.22.9-1.12.01-2.25.01-3.37.01-.3,0-.66.16-.71.5-.04.31.25.56.55.56,5,0,10,.55,14.88,1.61.71.15,1.42.32,2.12.5s1.42.39,2.13.55c.22.05.48,0,.63-.18.13-.15.15-.41-.01-.55-.49-.42-1.01-.79-1.6-1.06s-1.17-.46-1.78-.64c-1.08-.32-2.22-.51-3.23-1.01-.17-.08-.4-.06-.53.09-.11.14-.09.36.08.44h0Z"/>
      <path class="cls-1" d="M88.68,247.36c-.68.67-1.48,1.3-2.3,1.85-.4.27-.87.55-1.25.77s-.88.47-1.32.67c-.47.21-.94.41-1.42.59-.24.09-.49.17-.73.26-.12.04-.25.08-.37.12-.06.02-.11.04-.17.05-.03,0-.06.02-.09.03-.11.03.13-.04-.05.01-1,.29-2.03.51-3.06.67-.58.09-1.16.2-1.74.27s-1.2.12-1.81.16c-.38.03-.38.55,0,.58.54.04,1.09.04,1.63.03s1.12-.01,1.68-.07c1.07-.13,2.13-.33,3.17-.62,2.09-.58,4.12-1.43,5.93-2.64.99-.66,1.9-1.42,2.73-2.26.18-.18.1-.48-.11-.61-.25-.14-.54-.06-.73.13h0Z"/>
      <path class="cls-1" d="M109.97,248.99c4.64,1.35,9.27,2.85,13.69,4.74.6.26,1.21.52,1.81.78.32.14.64.3.97.42s.67.24,1.01.36c.41.15.87-.39.44-.68-.51-.33-1.01-.64-1.55-.91s-1.06-.52-1.59-.76c-1.11-.49-2.24-.95-3.38-1.39-2.25-.86-4.53-1.62-6.83-2.32-1.37-.42-2.74-.82-4.12-1.2-.28-.08-.64.04-.77.32s.06.55.33.63h0Z"/>
      <path class="cls-1" d="M182.85,83.9c.48.49.68,1.17.93,1.79.18.44.43.99.97,1.01.06,0,.16-.05.14-.12-.53-2.06-1.27-4.06-2.13-6-.93-2.1-2.02-4.12-3.2-6.08-1.26-2.09-2.63-4.11-4.07-6.08s-3.11-4.06-4.77-6.01-3.47-3.95-5.28-5.85-3.69-3.78-5.6-5.61-3.81-3.57-5.76-5.3-3.82-3.32-5.77-4.94c-1.84-1.52-3.7-3.01-5.59-4.47-1.73-1.34-3.47-2.66-5.25-3.92-.4-.28-.81-.56-1.21-.85-.13-.1-.34.1-.18.22.83.6,1.64,1.25,2.46,1.86.87.65,1.74,1.31,2.6,1.98,1.84,1.42,3.67,2.87,5.47,4.34,1.93,1.57,3.83,3.18,5.7,4.81s3.89,3.44,5.78,5.22,3.81,3.65,5.66,5.54,3.62,3.8,5.35,5.77,3.33,3.9,4.89,5.93,2.94,3.96,4.27,6.04c1.26,1.96,2.42,3.97,3.46,6.05.97,1.93,1.81,3.92,2.49,5.97.16.48.31.95.45,1.44l.14-.12c-.5,0-.71-.68-.86-1.06-.23-.58-.45-1.19-.9-1.65-.08-.08-.26.03-.17.12h0Z"/>
      <path class="cls-1" d="M139.45,22.04c1.09.88,2.07,1.91,2.94,3.01.97,1.22,1.81,2.55,2.56,3.92.83,1.51,1.56,3.07,2.22,4.66.71,1.71,1.35,3.46,1.94,5.22s1.18,3.7,1.71,5.57,1.06,3.82,1.55,5.74.97,3.79,1.45,5.69.92,3.62,1.4,5.43c.45,1.68.92,3.35,1.43,5,.24.76.48,1.52.74,2.27.24.7.48,1.41.79,2.09.14.31.31.61.44.93.07.17.4.05.32-.14-.14-.32-.23-.67-.35-1s-.25-.69-.38-1.03c-.26-.71-.51-1.43-.74-2.15-.53-1.62-1-3.25-1.46-4.89-.49-1.78-.96-3.57-1.42-5.36-.48-1.88-.96-3.77-1.45-5.65s-1.01-3.85-1.54-5.76-1.08-3.77-1.69-5.63-1.21-3.58-1.9-5.33c-.65-1.64-1.36-3.25-2.17-4.82-.74-1.43-1.57-2.81-2.52-4.1-.44-.6-.91-1.18-1.41-1.74-.47-.52-.97-1.03-1.53-1.46-.27-.2-.53-.41-.81-.6-.09-.06-.26.07-.16.15h0Z"/>
      <path class="cls-1" d="M185.33,78c.82.41,1.7.66,2.58.92.67.19,1.42.42,1.92.95l.26-.24c-1.13-.49-2.31-.87-3.49-1.23s-2.38-.66-3.59-.93c-2.38-.53-4.79-.9-7.21-1.15s-4.85-.39-7.28-.46-4.81-.07-7.22-.05-4.74.07-7.11.13c-.29,0-.59.02-.88.04-.16,0-.22.22-.03.23,2.35.1,4.71.06,7.07.05s4.79-.03,7.18.02,4.82.16,7.23.38,4.81.54,7.19,1.02,4.77,1.12,7.09,1.94c.29.1.59.21.88.31.14.05.36-.13.22-.26-.55-.5-1.28-.69-1.98-.89-.92-.26-1.83-.5-2.69-.91-.1-.05-.25.09-.13.15h0Z"/>
      <path class="cls-1" d="M184.62,73.28c-.73-1.46-1.52-2.89-2.36-4.29s-1.78-2.87-2.73-4.25-2-2.81-3.06-4.16-2.21-2.73-3.38-4.04-2.39-2.62-3.65-3.87c-.16-.16-.31-.31-.47-.47-.08-.07-.24.03-.16.11,1.23,1.26,2.44,2.54,3.61,3.86s2.28,2.65,3.37,4.02,2.12,2.75,3.12,4.17,1.89,2.79,2.76,4.23,1.65,2.82,2.39,4.27c.09.18.18.36.27.54.07.15.36.04.28-.12h0Z"/>
      <path class="cls-1" d="M149.59,36.68c2.34,1.99,4.57,4.1,6.71,6.3s4.22,4.5,6.24,6.82,4.04,4.74,6.04,7.13,3.98,4.75,6.01,7.1,4.06,4.59,6.19,6.79c.26.27.52.54.79.8.16.16.5-.04.33-.24-1.47-1.84-3.05-3.59-4.69-5.27s-3.46-3.41-5.27-5.04-3.73-3.26-5.64-4.84-3.8-3.09-5.72-4.61-3.74-2.94-5.59-4.43c-.22-.18-.44-.36-.66-.53-.12-.09-.37.04-.23.17,1.6,1.6,3.14,3.26,4.66,4.93s2.96,3.3,4.43,4.96,2.93,3.27,4.44,4.86,3.02,3.1,4.62,4.56,3.27,2.85,5.03,4.13c.22.16.44.31.66.47.13.09.42-.06.31-.23-1.13-1.89-2.51-3.64-3.99-5.27-1.61-1.77-3.36-3.42-5.18-4.98s-3.85-3.13-5.86-4.59-4.02-2.82-6.09-4.15c-1.91-1.23-3.85-2.43-5.8-3.61-.22-.13-.44-.26-.66-.4-.15-.09-.45.1-.28.26,1.83,1.64,3.62,3.33,5.39,5.03s3.61,3.5,5.41,5.27,3.64,3.59,5.48,5.36,3.73,3.57,5.63,5.31,3.79,3.43,5.76,5.06c.24.2.48.4.73.6.1.09.25.1.37.01.09-.07.14-.22.04-.31-2.84-2.48-5.86-4.73-9-6.81s-6.25-3.92-9.47-5.74c-1.81-1.03-3.64-2.03-5.46-3.05-.16-.09-.48.1-.3.27,2.16,2.16,4.31,4.32,6.44,6.5s4.34,4.51,6.43,6.84c1.22,1.35,2.42,2.72,3.61,4.11l.35-.32c-2.1-1.06-4.12-2.27-6.07-3.59s-3.72-2.65-5.54-4.04c-1.03-.79-2.08-1.56-3.09-2.37-.13-.1-.4.06-.25.18.89.71,1.75,1.46,2.64,2.18s1.81,1.44,2.73,2.14c1.86,1.4,3.78,2.72,5.77,3.93,1.15.69,2.32,1.34,3.52,1.94.2.1.54-.1.35-.32-2.1-2.43-4.26-4.8-6.47-7.14s-4.28-4.45-6.45-6.64c-1.2-1.21-2.41-2.42-3.62-3.63l-.3.27c3.22,1.78,6.43,3.59,9.58,5.48s6.28,3.93,9.26,6.13c1.7,1.26,3.34,2.58,4.93,3.97l.41-.29c-1.99-1.63-3.93-3.3-5.84-5.01s-3.79-3.48-5.64-5.26-3.68-3.56-5.52-5.35-3.62-3.54-5.44-5.3-3.55-3.4-5.37-5.05c-.22-.2-.44-.4-.66-.6l-.28.26c1.92,1.15,3.82,2.32,5.71,3.52,2.04,1.3,4.05,2.64,6.02,4.04s4.01,2.94,5.92,4.54,3.6,3.15,5.24,4.89c1.53,1.62,2.95,3.34,4.15,5.22.14.22.27.43.41.65l.31-.23c-1.78-1.24-3.48-2.6-5.1-4.04s-3.17-2.95-4.67-4.51-2.98-3.17-4.43-4.79-2.95-3.3-4.44-4.94-3.04-3.31-4.62-4.92c-.2-.2-.4-.4-.59-.6l-.23.17c1.85,1.47,3.71,2.93,5.55,4.41s3.81,3.06,5.68,4.61,3.79,3.19,5.63,4.84,3.59,3.3,5.3,5.03,3.26,3.42,4.77,5.25c.18.22.36.44.53.66l.33-.24c-2.17-2.17-4.27-4.41-6.32-6.7s-4.07-4.65-6.07-7.01-4.03-4.76-6.09-7.11-4.11-4.63-6.26-6.86-4.33-4.34-6.64-6.35c-.28-.25-.57-.49-.86-.73-.04-.03-.13.02-.08.06h0Z"/>
      <path class="cls-1" d="M185.87,97.37c2.24,3.21,2.94,7.17,2.84,11.03-.13,4.67-1.27,9.29-2.76,13.69-1.69,4.98-3.8,9.8-6.17,14.5s-4.81,9.01-7.48,13.36c-2.15,3.5-4.4,6.93-6.68,10.35-.21.32-.42.65-.64.96s.31.57.51.29c1.04-1.45,2.1-2.89,3.12-4.36,1.25-1.81,2.47-3.63,3.66-5.47,2.76-4.27,5.35-8.68,7.71-13.18s4.73-9.57,6.53-14.59c1.62-4.53,2.9-9.29,3.21-14.11.25-3.98-.19-8.17-2.21-11.68-.22-.39-.47-.77-.73-1.13-.14-.2-.4-.27-.64-.17-.18.08-.39.34-.25.55h0Z"/>
      <path class="cls-1" d="M185.08,96.32c.62,2.28.82,4.65.78,7-.04,2.7-.41,5.38-.95,8.02-.61,2.96-1.43,5.87-2.38,8.73-1.04,3.13-2.23,6.21-3.52,9.25-1.36,3.2-2.82,6.36-4.34,9.49s-3.17,6.37-4.84,9.51-3.31,6.14-5.01,9.19-3.25,5.78-4.89,8.66c-1.49,2.62-2.98,5.24-4.45,7.87-1.26,2.25-2.5,4.53-3.62,6.85-.24.5-.46,1-.71,1.49-.18.35.45.48.6.17.53-1.06,1.15-2.08,1.71-3.12.62-1.14,1.26-2.28,1.9-3.41,1.45-2.56,2.89-5.12,4.35-7.67,1.62-2.84,3.25-5.68,4.86-8.52,1.71-3.03,3.41-6.06,5.06-9.12s3.34-6.25,4.92-9.42,3.09-6.35,4.51-9.58c1.34-3.07,2.59-6.18,3.7-9.34,1.03-2.94,1.95-5.93,2.65-8.98.62-2.71,1.07-5.47,1.23-8.26.13-2.46.02-4.93-.51-7.34-.12-.54-.26-1.07-.42-1.6-.1-.33-.72-.23-.63.11h0Z"/>
      <path class="cls-1" d="M178.63,127.6s.06.1.09.15c.01.02.02.05.03.07.04.09-.01-.05.01.03.04.13.06.26.07.39,0,.06,0,.06,0,.03,0,.03,0,.07,0,.1,0,.08,0,.17-.02.25s-.03.16-.05.24c-.04.14-.04.12-.08.27-.07.25-.08.31-.16.53s-.16.44-.25.66c-.2.49-.44.97-.68,1.45-1.36,2.62-2.99,5.08-4.67,7.5-2.08,3.01-4.28,5.94-6.47,8.86s-4.2,5.57-6.26,8.38c-1.46,1.98-2.94,3.98-4.19,6.1-.1.16-.19.33-.28.5-.21.37.47.51.66.19.46-.79,1.04-1.58,1.61-2.36.79-1.09,1.61-2.17,2.42-3.24,2.08-2.75,4.2-5.48,6.28-8.23,2.23-2.95,4.42-5.93,6.53-8.97.97-1.4,1.92-2.8,2.83-4.24.75-1.18,1.49-2.38,2.13-3.63.49-.96.94-1.95,1.24-2.99.18-.62.31-1.4.09-2.02-.04-.12-.09-.23-.17-.33-.12-.16-.31-.21-.5-.14-.14.06-.31.27-.19.43h0Z"/>
      <path class="cls-1" d="M60.81,197.05c-1.44-1.8-2.94-3.56-4.48-5.28s-3.16-3.46-4.78-5.15-3.31-3.42-4.97-5.12-3.34-3.42-5.01-5.13-3.33-3.47-4.97-5.23c-.2-.22-.4-.44-.61-.66-.09-.1-.29.03-.19.14,1.59,1.8,3.22,3.56,4.87,5.31s3.32,3.44,4.99,5.15,3.33,3.4,4.99,5.12,3.23,3.4,4.81,5.14,3.07,3.46,4.53,5.26c.18.22.36.44.53.66.13.16.44-.03.3-.21h0Z"/>
      <path class="cls-1" d="M23.85,157.81c1.16,1.26,2.29,2.55,3.37,3.88s2.15,2.7,3.18,4.09,2.04,2.8,3.03,4.22,1.97,2.86,2.95,4.3,1.96,2.89,2.95,4.33,1.97,2.86,2.98,4.27,2.03,2.79,3.08,4.15,2.13,2.7,3.25,4,2.27,2.56,3.47,3.77,2.46,2.38,3.76,3.49c.32.27.64.54.97.8l.33-.24c-2.51-1.99-4.93-4.1-7.26-6.3s-4.58-4.49-6.79-6.82-4.42-4.72-6.61-7.09-4.38-4.73-6.62-7.05c-1.11-1.15-2.23-2.29-3.37-3.41s-2.29-2.21-3.43-3.3c-.29-.27-.57-.54-.86-.82-.07-.07-.23.02-.15.11,2.22,2.88,4.36,5.81,6.38,8.83s3.85,5.96,5.71,8.99,3.65,6.01,5.52,9,3.8,5.94,5.86,8.8,4.32,5.74,6.76,8.37c.31.33.62.65.92.98.1.11.35-.03.23-.16-1.24-1.33-2.4-2.73-3.55-4.13s-2.23-2.8-3.29-4.25c-2.09-2.84-4.05-5.78-5.94-8.76s-3.7-5.98-5.54-8.98-3.7-6.05-5.67-8.99c-1-1.49-2.01-2.97-3.06-4.43s-2.17-2.91-3.3-4.33c-.28-.35-.58-.69-.87-1.03l-.15.11c1.2,1.06,2.34,2.19,3.47,3.33s2.23,2.27,3.32,3.43c2.2,2.33,4.37,4.7,6.53,7.07s4.35,4.78,6.57,7.12,4.46,4.65,6.78,6.88,4.68,4.34,7.16,6.34c.31.25.62.5.93.74.09.07.21.08.3.01.07-.05.12-.18.03-.25-1.34-1.07-2.63-2.2-3.87-3.38s-2.42-2.42-3.56-3.69-2.25-2.59-3.31-3.94-2.11-2.74-3.13-4.14-2.02-2.84-3.01-4.27-1.96-2.87-2.94-4.31-1.95-2.88-2.94-4.31-1.98-2.84-3.01-4.24-2.05-2.76-3.12-4.11-2.17-2.66-3.31-3.93c-.28-.31-.56-.62-.85-.93-.12-.13-.39.04-.26.18h0Z"/>
      <path class="cls-1" d="M102.3,255.87c.31-1.97.48-3.97.68-5.95s.42-3.97.64-5.95c.44-3.92.91-7.83,1.42-11.74s1.02-7.78,1.58-11.66,1.17-7.69,1.75-11.54c.65-4.27,1.36-8.54,2.12-12.79.06-.32-.51-.32-.57-.03-1.54,7.63-2.94,15.28-4.1,22.98-1.17,7.77-2.18,15.57-3.02,23.38-.24,2.21-.47,4.41-.69,6.62-.11,1.1-.2,2.21-.29,3.32s-.2,2.21-.23,3.32c-.01.42.66.42.72.04h0Z"/>
      <path class="cls-1" d="M92.71,257.81c.72.24.81-.79.83-1.25.05-1.28-.16-2.57-.36-3.83-.29-1.85-.68-3.69-1.07-5.51-.46-2.11-.95-4.22-1.46-6.33s-.99-4.11-1.49-6.16c-.41-1.67-.82-3.34-1.19-5.01-.14-.6-.27-1.2-.38-1.81-.02-.12-.04-.23-.07-.35-.05-.27-.13-.53-.21-.8-.26-.91-.52-1.82-.79-2.73-1.06-3.65-2.15-7.3-3.23-10.95-1.09-3.66-2.17-7.33-3.23-11s-2.1-7.4-3.09-11.11-1.92-7.44-2.78-11.18c-.44-1.9-.85-3.8-1.24-5.71-.2-.95-.38-1.89-.57-2.84-.17-.89-.38-1.79-.5-2.7-.27-2.09-.79-4.15-1.23-6.21-.47-2.19-.92-4.41-1.04-6.66-.11-1.9.02-3.95.96-5.65.43-.78,1.03-1.44,1.76-1.94.88-.6,1.92-.96,2.97-1.15.47-.09.99-.06,1.48-.02s.95.13,1.43.26c.97.27,1.89.72,2.73,1.27,1.87,1.22,3.4,2.95,4.63,4.8,1.31,1.97,2.32,4.14,3,6.4.62,2.06,1,4.26.84,6.42-.07.88-.22,1.76-.53,2.59l.37-.11c-1.71-1.03-3.06-2.54-3.97-4.32s-1.37-3.76-1.45-5.74.23-4.05.91-5.94,1.69-3.53,3.11-4.86,3.2-2.22,5.12-2.52c.25-.04.5-.07.75-.09l-.27-.16c.35,2.48.71,4.97.85,7.48s.06,5-.44,7.45c-.29,1.45-.73,2.86-1.31,4.22l.47.02c-.19-1.7-.21-3.42-.12-5.13.1-1.84.34-3.67.71-5.47s.88-3.61,1.55-5.34c.63-1.63,1.4-3.23,2.36-4.69.89-1.34,1.94-2.59,3.2-3.59.15-.12.3-.23.45-.34l-.38-.06c.58,1.36.98,2.8,1.28,4.26.34,1.65.55,3.33.67,5.01s.13,3.45.04,5.17c-.09,1.63-.27,3.25-.59,4.85-.27,1.36-.64,2.72-1.21,3.99-.06.14-.13.27-.19.4l.48.02c-.36-1.24-.59-2.53-.69-3.82s-.05-2.48.11-3.71.4-2.35.75-3.48.77-2.14,1.29-3.15c.48-.93,1.02-1.81,1.66-2.64.29-.38.61-.75.94-1.1s.62-.62.97-.92c.32-.27.66-.52,1.02-.75.08-.05.17-.11.26-.16.02-.01.04-.02.06-.04.05-.03-.01,0,.03-.02.04-.02.09-.05.13-.07.17-.09.35-.17.52-.25.17-.07.34-.14.51-.19.02,0,.04-.01.06-.02.05-.01-.04.01,0,0,.05-.01.09-.03.14-.04.08-.02.17-.04.26-.06.17-.03.34-.06.52-.07.02,0,.04,0,.05,0,.05,0-.05,0,.01,0,.04,0,.09,0,.13,0,.08,0,.17,0,.25,0s.16,0,.25.02c.04,0,.08,0,.11.01.02,0,.04,0,.06,0,.03,0-.04,0,.02,0,.16.03.32.07.48.12.08.03.16.05.23.08.01,0,.07.03.04.02s.03.01.04.02c.04.02.08.03.11.05.16.08.31.16.46.26.17.11.24.17.4.31.14.13.28.26.41.4.29.32.51.63.74,1.02.55.93.91,1.97,1.17,3.02.36,1.47.54,2.98.63,4.48s0,3.07-.08,4.59c-.09,1.66-.23,3.32-.4,4.98-.18,1.77-.4,3.54-.64,5.31s-.54,3.66-.85,5.48-.65,3.66-1.01,5.49-.74,3.56-1.15,5.34-.8,3.36-1.24,5.03c-.4,1.53-.83,3.05-1.29,4.56-.2.66-.4,1.32-.62,1.98-.09.27.36.36.44.12.48-1.44.93-2.88,1.35-4.34.46-1.62.89-3.25,1.29-4.89.43-1.75.83-3.5,1.2-5.26s.76-3.67,1.09-5.51.65-3.7.93-5.55.53-3.64.74-5.47c.2-1.73.38-3.47.51-5.21.12-1.59.21-3.18.24-4.77.02-.8,0-1.59-.05-2.39s-.14-1.59-.27-2.38c-.2-1.26-.5-2.51-1-3.69-.36-.85-.83-1.68-1.49-2.35-.52-.53-1.16-.94-1.87-1.15s-1.42-.2-2.11-.05c-.78.17-1.51.51-2.18.94-.76.48-1.44,1.08-2.05,1.74-.7.74-1.31,1.57-1.86,2.43-.59.94-1.1,1.94-1.51,2.96-.45,1.1-.8,2.24-1.05,3.4s-.42,2.44-.45,3.68.06,2.59.29,3.86c.11.63.26,1.26.44,1.87.06.22.38.21.48.02.61-1.23,1.01-2.57,1.31-3.91.35-1.58.56-3.2.67-4.81.12-1.75.13-3.5.04-5.25s-.28-3.42-.59-5.11c-.28-1.51-.67-3.01-1.23-4.44-.06-.16-.13-.32-.2-.48-.06-.14-.28-.13-.38-.06-1.32.95-2.44,2.16-3.38,3.48-1.03,1.45-1.86,3.03-2.53,4.67-.71,1.73-1.26,3.53-1.67,5.35s-.69,3.7-.83,5.57c-.13,1.75-.14,3.52.02,5.27.02.21.04.41.06.62.03.23.4.2.47.02,1.02-2.4,1.6-4.96,1.78-7.56s0-5.06-.28-7.56c-.16-1.42-.37-2.83-.57-4.24-.02-.13-.17-.17-.27-.16-2.04.17-4,.96-5.58,2.26s-2.72,2.96-3.49,4.79-1.21,3.97-1.23,6.03.35,4.13,1.19,6.02,2.11,3.52,3.78,4.7c.21.15.43.29.65.42.11.07.32.03.37-.11.7-1.87.71-3.95.45-5.91-.31-2.31-1.02-4.57-2-6.67s-2.28-4.16-3.9-5.88c-1.46-1.55-3.24-2.87-5.3-3.49-.99-.3-2.02-.42-3.05-.34-.58.04-1.16.22-1.71.41-.51.18-1,.4-1.47.68-.8.48-1.48,1.14-1.99,1.93s-.82,1.66-1,2.57c-.42,2.06-.23,4.23.08,6.29.33,2.25.86,4.46,1.34,6.67.22,1.01.42,2.02.58,3.04.26,1.66.58,3.31.92,4.96.77,3.81,1.63,7.61,2.56,11.39s1.91,7.47,2.94,11.18,2.09,7.39,3.17,11.07,2.17,7.34,3.26,11c.54,1.84,1.09,3.68,1.62,5.52.27.91.53,1.82.79,2.73.17.6.38,1.2.49,1.82.24,1.33.56,2.65.88,3.96.45,1.88.91,3.75,1.37,5.63.52,2.11,1.04,4.23,1.54,6.34s.94,4.06,1.36,6.11c.33,1.63.66,3.27.86,4.93.07.55.12,1.14.12,1.67,0,.2,0,.41-.03.61-.01.08-.02.17-.04.25,0,.01,0,.03-.01.04-.01.04,0,0,0,.02s-.02.06-.04.1c-.01.02-.02.05-.03.07-.02.03,0,0,0,0,0,.01-.01.02-.02.03-.02.02-.06.06-.02.03-.01.01-.03.02-.05.03.07-.05-.08.03,0,0-.02,0-.09,0-.02,0-.02,0-.05,0-.07,0,.06,0-.02,0-.04-.01-.16-.05-.3.18-.11.24h0Z"/>
      <path class="cls-1" d="M95.25,323.93c.36.28.63.6.86.98.24.41.45.89.59,1.32.38,1.19.55,2.46.63,3.71.21,3.22-.14,6.49-.54,9.68s-.98,6.66-1.43,9.99c-.18,1.33-.34,2.65-.43,3.99-.13,2.1-.17,4.22-.22,6.33-.14,5.58-.11,11.17,0,16.75s.3,11.19.49,16.79c.19,5.59.38,11.19.48,16.79.07,3.72.08,7.44.06,11.16,0,2.43-.02,4.87-.03,7.3-.02,2.88-.03,5.76-.05,8.64-.02,3.22-.04,6.43-.06,9.65-.02,3.49-.05,6.98-.08,10.47-.03,3.67-.06,7.33-.08,11s-.06,7.5-.09,11.25-.06,7.47-.09,11.21-.06,7.32-.08,10.98c-.03,3.47-.05,6.94-.08,10.41-.02,3.22-.04,6.43-.06,9.65-.02,2.86-.03,5.73-.05,8.59-.01,2.42-.02,4.84-.02,7.26,0,.98,0,1.96,0,2.95,0,.37.25.62.62.64.3.02.8-.2.8-.57,0-2.19,0-4.37.01-6.56,0-2.66.02-5.33.04-7.99.02-3.07.04-6.14.06-9.21.02-3.37.05-6.74.07-10.1.03-3.59.05-7.17.08-10.76s.06-7.44.09-11.15.06-7.55.09-11.33.06-7.43.09-11.15.05-7.19.08-10.79c.02-3.36.05-6.72.07-10.08.02-3.05.04-6.1.05-9.15.01-2.65.02-5.3.03-7.96,0-2.27.01-4.54,0-6.81-.01-5.61-.15-11.21-.33-16.81s-.4-11.23-.58-16.84-.31-11.17-.31-16.76c0-2.8.03-5.6.11-8.39.05-1.91.07-3.84.21-5.75.23-3.02.73-6.02,1.16-9.02.49-3.42.95-6.86,1.11-10.32.07-1.53.08-3.08-.06-4.61-.12-1.29-.33-2.46-.85-3.64-.38-.87-1-1.66-1.86-2.17-.26-.15-.79.2-.48.44h0Z"/>
      <path class="cls-1" d="M190.68,61.94c-.08-.7-.21-1.39-.38-2.07s-.4-1.4-.65-2.08c-.27-.72-.57-1.42-.9-2.11s-.73-1.42-1.13-2.11-.87-1.42-1.34-2.11-1-1.42-1.52-2.1-1.1-1.41-1.68-2.09-1.2-1.4-1.82-2.08-1.28-1.37-1.93-2.04-1.34-1.35-2.02-2.01-1.39-1.32-2.1-1.97-1.42-1.29-2.15-1.92-1.44-1.25-2.16-1.86-1.44-1.21-2.16-1.8-1.43-1.16-2.15-1.74-1.39-1.11-2.09-1.65-1.35-1.05-2.03-1.58c-.64-.49-1.29-.99-1.94-1.48-.61-.46-1.21-.92-1.82-1.38-.56-.43-1.13-.85-1.69-1.28-.25-.19-.51-.39-.76-.58-.03-.02-.08.01-.05.04.53.41,1.07.82,1.6,1.23.58.45,1.17.89,1.75,1.34.63.48,1.25.96,1.87,1.44.66.51,1.32,1.02,1.98,1.53s1.38,1.07,2.06,1.62,1.41,1.13,2.12,1.7,1.44,1.17,2.15,1.77,1.45,1.22,2.16,1.83,1.45,1.26,2.16,1.9,1.42,1.29,2.12,1.94,1.38,1.31,2.06,1.99,1.33,1.34,1.98,2.02,1.27,1.36,1.88,2.05,1.18,1.37,1.75,2.08,1.09,1.39,1.61,2.1.98,1.39,1.43,2.1.85,1.39,1.24,2.11.71,1.39,1.02,2.1.56,1.39.78,2.1.39,1.37.52,2.07c.06.33.11.66.15,1,0,.04.08.03.07-.01h0Z"/>
      <path class="cls-1" d="M143.81,15.54c.88.32,1.74.7,2.58,1.12s1.72.92,2.55,1.43,1.69,1.09,2.5,1.68,1.68,1.24,2.49,1.89,1.63,1.33,2.43,2.02,1.59,1.4,2.38,2.11,1.56,1.43,2.34,2.14,1.52,1.41,2.27,2.11,1.48,1.36,2.23,2.04,1.43,1.27,2.15,1.89c.79.67,1.58,1.35,2.34,2.06s1.56,1.47,2.32,2.23,1.48,1.52,2.2,2.3,1.42,1.58,2.11,2.4,1.35,1.63,2.01,2.47,1.3,1.69,1.92,2.56,1.23,1.74,1.83,2.63,1.18,1.8,1.75,2.71,1.13,1.84,1.67,2.78,1.08,1.9,1.6,2.86c.25.47.5.93.75,1.4.02.03.07,0,.06-.02-.51-.97-1.02-1.94-1.55-2.9s-1.07-1.89-1.62-2.83-1.12-1.85-1.7-2.75-1.17-1.8-1.79-2.68-1.24-1.74-1.88-2.6-1.29-1.69-1.96-2.51-1.36-1.64-2.06-2.44-1.43-1.58-2.16-2.35-1.5-1.53-2.27-2.27-1.57-1.47-2.38-2.18c-.73-.64-1.49-1.26-2.22-1.91s-1.47-1.31-2.2-1.97-1.51-1.39-2.26-2.08-1.54-1.43-2.32-2.13-1.57-1.43-2.37-2.13-1.6-1.39-2.42-2.07-1.62-1.32-2.45-1.95-1.65-1.21-2.5-1.78-1.66-1.07-2.52-1.55-1.69-.9-2.57-1.27c-.41-.17-.81-.34-1.23-.49-.03-.01-.06.04-.02.05h0Z"/>
      <path class="cls-1" d="M189.07,61.94c-.55-1.3-1.19-2.57-1.9-3.8s-1.5-2.45-2.34-3.61-1.76-2.33-2.71-3.44-1.98-2.23-3.02-3.3-2.14-2.13-3.26-3.16-2.26-2.04-3.42-3.03-2.32-1.96-3.5-2.91-2.35-1.89-3.53-2.82-2.3-1.81-3.45-2.71-2.22-1.74-3.32-2.63c-.26-.21-.52-.42-.77-.62-.03-.02-.08.01-.05.04,1.08.88,2.17,1.75,3.26,2.62s2.28,1.8,3.41,2.7,2.34,1.85,3.5,2.79,2.35,1.91,3.51,2.89,2.32,1.98,3.44,3,2.23,2.06,3.31,3.12,2.1,2.14,3.09,3.26,1.92,2.23,2.81,3.4,1.7,2.34,2.46,3.57,1.42,2.45,2.01,3.73c.14.31.28.62.41.93,0,.02.05,0,.04-.02h0Z"/>
      <path class="cls-1" d="M190.63,80.05s-.06-.02-.08-.04c0,.01,0,.03,0,0,0,.02,0,.03.01.05.01.07.02.13.02.2,0,.05,0,.11.01.16l.03-.1c-.04.07-.03.13-.02.2,0,.04,0,.08.01.12,0,.09.02.18.02.28v-.08c-.02.09.01.22.02.31,0,.09.02.18.03.27.02.21.04.41.06.62.05.5.1,1.01.14,1.51.06.62.11,1.24.17,1.86.06.72.13,1.44.19,2.16.07.81.14,1.63.2,2.44.07.88.14,1.76.21,2.65.07.94.15,1.88.22,2.82.08.99.15,1.98.22,2.97s.15,2.04.23,3.06.15,2.07.23,3.1.15,2.07.22,3.11.14,2.06.21,3.08.14,2,.2,3.01.13,1.92.19,2.88c.06.91.12,1.81.17,2.72.05.84.1,1.69.15,2.53.04.76.09,1.51.13,2.27.04.66.07,1.32.1,1.98.03.55.05,1.1.08,1.65.03.43.05.85.07,1.28,0,.08.01.16.02.24,0,.07,0,.21.05.26l-.03-.08s0,.03,0,.05c0,.06.04.11.11.11.05,0,.14-.03.14-.1,0-.02,0-.03,0-.05l-.02.05c.05-.05.04-.21.04-.28,0-.04,0-.09,0-.13,0-.02,0-.05,0-.07,0-.02,0-.04,0-.06,0-.01,0-.06,0-.01.01-.2,0-.41,0-.61,0-.53-.02-1.05-.04-1.58-.03-.64-.06-1.27-.09-1.91-.04-.75-.08-1.49-.12-2.24-.05-.84-.1-1.68-.15-2.51-.06-.92-.11-1.83-.17-2.75-.06-.98-.13-1.95-.19-2.93s-.14-2.05-.21-3.07-.14-2.11-.22-3.16-.15-2.14-.23-3.21-.15-2.14-.23-3.21-.16-2.11-.24-3.16-.16-2.04-.24-3.06-.15-1.95-.23-2.92c-.07-.91-.15-1.83-.22-2.74-.07-.84-.14-1.67-.21-2.5-.06-.74-.13-1.48-.19-2.23-.06-.63-.12-1.27-.18-1.9-.05-.51-.1-1.02-.16-1.53-.02-.2-.05-.4-.07-.61-.01-.09-.02-.18-.03-.27,0-.02,0-.04,0-.06,0,0,0-.02,0-.03,0,0,0-.01,0-.02-.02-.05-.02-.05,0,0,0,0,0,0,0,0,0-.04-.01-.08-.02-.11-.01-.07-.02-.13-.03-.2s-.01-.18-.06-.23l.03.06c-.03-.14-.06-.3-.13-.42-.02-.04-.06-.07-.11-.07-.05,0-.11.03-.12.09s.05.09.1.1h0Z"/>
      <path class="cls-1" d="M188.58,90.45c.43.25.77.63,1.02,1.06.31.52.5,1.09.64,1.67.17.69.26,1.41.32,2.12.06.79.08,1.58.06,2.37-.01.83-.06,1.66-.12,2.49s-.14,1.62-.23,2.43c-.08.73-.17,1.46-.27,2.19-.08.6-.16,1.19-.23,1.79-.04.29-.07.58-.09.88-.03.62-.06,1.24-.09,1.86-.06,1.25-.11,2.5-.16,3.75s-.09,2.52-.14,3.78-.09,2.54-.13,3.81-.09,2.56-.15,3.85-.11,2.57-.18,3.85-.14,2.55-.23,3.82-.18,2.54-.3,3.8-.24,2.52-.38,3.78-.3,2.49-.49,3.73-.38,2.44-.6,3.65-.47,2.38-.72,3.57c-.12.57-.24,1.14-.38,1.71-.03.13.2.13.23.01.15-.59.31-1.17.46-1.76s.28-1.19.4-1.78c.26-1.21.48-2.42.68-3.64s.38-2.46.54-3.7.3-2.51.43-3.77.24-2.53.33-3.8.18-2.55.26-3.83.14-2.56.2-3.85.11-2.58.16-3.86.09-2.56.14-3.84.09-2.54.13-3.81.09-2.53.14-3.79.11-2.48.18-3.72c.01-.26.05-.51.09-.76.04-.28.07-.57.11-.85.09-.68.18-1.36.26-2.04.09-.78.18-1.57.25-2.35.07-.83.13-1.66.17-2.49s.04-1.66.02-2.48c-.03-.76-.08-1.52-.21-2.26-.11-.65-.26-1.3-.5-1.92-.2-.51-.48-1-.88-1.39-.17-.16-.37-.32-.59-.43-.11-.06-.26.09-.14.16h0Z"/>
      <path class="cls-1" d="M189.43,119.31c.29,0,.57-.11.84-.2.14-.04.27-.09.41-.13.07-.02.14-.04.2-.05.03,0,.06,0,.08-.01.02,0,.03,0,.05,0-.03,0,0,0,.02,0l-.14-.14c-.15.9-.34,1.79-.56,2.68s-.48,1.8-.77,2.68-.61,1.79-.94,2.68-.69,1.79-1.06,2.68-.75,1.77-1.13,2.66-.77,1.73-1.16,2.6-.77,1.7-1.15,2.55-.74,1.65-1.09,2.48-.69,1.64-1.01,2.46-.65,1.7-.96,2.55-.63,1.73-.94,2.59-.62,1.74-.93,2.61-.62,1.74-.93,2.61-.62,1.73-.94,2.59-.65,1.72-.98,2.57-.68,1.69-1.03,2.53-.72,1.66-1.1,2.48-.76,1.61-1.17,2.4-.83,1.56-1.27,2.33-.88,1.5-1.36,2.22c-.23.35-.44.71-.68,1.05-.1.13.13.23.21.12.25-.36.53-.7.77-1.06s.49-.73.72-1.1c.47-.74.92-1.5,1.34-2.27s.84-1.57,1.23-2.37.78-1.63,1.14-2.46.72-1.67,1.06-2.5.68-1.7,1.01-2.55.65-1.72.96-2.59.63-1.74.94-2.6.62-1.74.93-2.61.62-1.74.93-2.6.63-1.72.95-2.58.64-1.7.99-2.54.69-1.63,1.05-2.44.75-1.68,1.13-2.52.78-1.72,1.16-2.59.78-1.75,1.15-2.64.74-1.78,1.1-2.67.68-1.79.99-2.69.59-1.8.84-2.71.47-1.79.65-2.7c.09-.43.16-.86.23-1.29.01-.08-.06-.14-.14-.14-.29,0-.57.11-.84.2-.14.05-.27.09-.41.13-.07.02-.13.04-.2.05-.03,0-.06.01-.08.01-.02,0-.03,0-.05,0,.03,0-.01,0-.02,0-.07,0-.15.04-.16.12-.01.07.06.13.13.13h0Z"/>
      <path class="cls-1" d="M185.69,125.62c.07.27.12.55.15.83.03.3.04.59.04.88-.01.66-.11,1.32-.24,1.96-.15.72-.35,1.43-.59,2.12-.26.77-.56,1.52-.88,2.26-.34.79-.71,1.56-1.1,2.33s-.81,1.57-1.24,2.35-.87,1.54-1.32,2.31-.88,1.48-1.32,2.21c-.42.69-.84,1.38-1.26,2.06-.38.62-.76,1.24-1.14,1.86-.32.53-.63,1.07-.94,1.61-.48.86-.91,1.75-1.36,2.63-.51,1.02-1.01,2.05-1.51,3.07s-1,2.08-1.5,3.11-1,2.09-1.51,3.13-1.02,2.08-1.54,3.11-1.06,2.07-1.6,3.09-1.1,2.04-1.68,3.04-1.17,1.99-1.79,2.96-1.24,1.92-1.9,2.85c-.32.45-.62.92-.96,1.35-.09.12.11.21.19.11.18-.23.36-.45.54-.68s.35-.46.52-.69c.34-.46.67-.93.99-1.4.65-.95,1.27-1.93,1.87-2.92s1.18-2,1.75-3.01,1.11-2.04,1.64-3.07,1.06-2.08,1.57-3.13,1.02-2.09,1.52-3.14,1-2.08,1.5-3.13.99-2.07,1.5-3.1,1.01-2.04,1.53-3.05c.32-.63.66-1.25,1.02-1.86s.69-1.17,1.05-1.75c.4-.66.81-1.32,1.21-1.98.44-.72.88-1.44,1.31-2.16s.9-1.51,1.33-2.28.87-1.55,1.28-2.33.8-1.56,1.17-2.36.68-1.52.98-2.3c.28-.73.53-1.48.73-2.23.18-.67.33-1.36.41-2.05.07-.62.09-1.26.02-1.88-.03-.27-.08-.54-.15-.81-.02-.08-.1-.11-.18-.1-.07.01-.15.08-.13.15h0Z"/>
      <path class="cls-1" d="M187.1,125.28c.2-.1.39-.23.57-.37.13-.1.25-.22.39-.31.01,0,.02-.02.04-.02,0,0,.01,0,.02-.01,0,0-.02.01,0,0,0,0,.02,0,.03-.01.02,0-.03,0,0,0-.03,0-.03,0-.06-.02.01,0-.01-.02,0,0,0,0,0,0,0,.01,0,.02,0-.01,0,0,.02.06.03.15.02.21,0,.06-.04.12-.07.17-.03.06-.05.12-.08.19-.4.96-.83,1.9-1.28,2.83s-.93,1.87-1.43,2.79-1.02,1.85-1.55,2.76-1.09,1.83-1.65,2.73-1.14,1.8-1.71,2.69-1.17,1.79-1.76,2.68-1.18,1.77-1.76,2.66-1.16,1.77-1.74,2.66-1.13,1.75-1.68,2.64-1.07,1.75-1.59,2.63-1.04,1.87-1.54,2.81-1.02,1.97-1.52,2.95-1,1.99-1.49,2.99-.99,2.01-1.48,3.01-.98,2.02-1.47,3.03-.99,2.02-1.48,3.03-1.01,2.01-1.52,3.01-1.03,2-1.55,2.99-1.07,1.98-1.62,2.96c-.26.47-.52.94-.8,1.41-.06.1.13.14.18.05.58-.98,1.16-1.95,1.71-2.94s1.1-1.99,1.63-2.99,1.06-2.01,1.57-3.02,1.02-2.02,1.52-3.03,1-2.03,1.5-3.05.99-2.03,1.49-3.05.99-2.02,1.5-3.03,1-1.99,1.52-2.98,1.03-1.97,1.56-2.95c.49-.9,1.03-1.79,1.56-2.67s1.1-1.78,1.66-2.66,1.14-1.77,1.72-2.65,1.17-1.78,1.76-2.67,1.18-1.8,1.77-2.7,1.18-1.81,1.75-2.73,1.14-1.82,1.69-2.74,1.08-1.83,1.59-2.76,1.01-1.86,1.48-2.81.9-1.89,1.31-2.85c.1-.24.2-.48.3-.72.05-.12.1-.24.15-.36s.12-.24.11-.36-.01-.29-.13-.36-.26,0-.36.08c-.13.09-.24.2-.36.3-.17.14-.34.26-.53.36-.15.07-.03.26.1.19h0Z"/>
      <path class="cls-1" d="M180.28,118.01c.65-.64,1.5-1,2.25-1.5.21-.14.42-.3.6-.47l-.16-.09c-.58.88-1.15,1.76-1.72,2.64s-1.13,1.78-1.68,2.68-1.11,1.79-1.66,2.69-1.1,1.81-1.65,2.72-1.09,1.82-1.63,2.73-1.08,1.82-1.62,2.73-1.08,1.84-1.62,2.76-1.08,1.84-1.62,2.76-1.07,1.83-1.61,2.75-1.08,1.84-1.62,2.76-1.09,1.84-1.63,2.76-1.09,1.83-1.63,2.74-1.1,1.83-1.65,2.74-1.11,1.82-1.67,2.72-1.12,1.81-1.69,2.7-1.13,1.78-1.71,2.67-1.15,1.77-1.74,2.65-1.17,1.76-1.77,2.63-1.19,1.73-1.79,2.59-1.22,1.71-1.83,2.57c-.29.41-.59.83-.89,1.24-.08.11.1.18.17.09.63-.84,1.27-1.68,1.88-2.53s1.23-1.71,1.83-2.58,1.19-1.73,1.78-2.6,1.18-1.76,1.76-2.64,1.16-1.78,1.73-2.67,1.14-1.79,1.71-2.69,1.13-1.81,1.69-2.71,1.11-1.81,1.66-2.72,1.1-1.83,1.65-2.74,1.09-1.83,1.64-2.75,1.09-1.84,1.63-2.76,1.08-1.84,1.62-2.76,1.07-1.83,1.61-2.75,1.08-1.84,1.62-2.76,1.08-1.84,1.62-2.75,1.08-1.83,1.62-2.74,1.08-1.82,1.63-2.73,1.09-1.8,1.63-2.7,1.1-1.8,1.65-2.7,1.11-1.78,1.66-2.67c.27-.43.53-.86.8-1.29.02-.04,0-.08-.04-.1-.04-.02-.09,0-.13.03-.31.32-.67.58-1.05.82s-.78.46-1.14.72c-.2.15-.4.3-.57.48-.04.04.04.07.07.04h0Z"/>
      <path class="cls-1" d="M192.63,112.89c.31.02.61-.06.86-.24.27-.19.47-.48.61-.77.19-.38.31-.8.4-1.22.11-.53.18-1.07.22-1.62.05-.66.07-1.32.07-1.98,0-.77-.03-1.54-.07-2.31-.05-.85-.11-1.7-.19-2.55-.09-.92-.19-1.84-.31-2.76-.12-.97-.26-1.94-.4-2.91s-.31-2.01-.48-3.01-.35-2.04-.54-3.06-.38-2.04-.58-3.05-.4-2-.61-3-.41-1.93-.63-2.89c-.21-.91-.42-1.82-.63-2.72-.2-.84-.41-1.68-.62-2.51-.19-.75-.38-1.5-.59-2.24-.18-.64-.36-1.28-.55-1.91-.08-.27-.16-.54-.25-.81-.04-.12-.08-.25-.12-.37-.01-.04-.02-.07-.04-.11.01.04,0-.01,0-.02,0-.02-.01-.03-.02-.05-.02-.06-.04-.11-.06-.17-.13-.38-.26-.76-.42-1.13-.05-.12-.11-.24-.16-.37-.05-.11-.27-.03-.21.09,0,0,0,.01,0,.02.02.04-.02-.04,0,.02,0,.01.01.03.02.04.01.03.03.06.04.09.03.07.05.14.08.21.01.04.03.07.04.11,0,.01,0,.02.01.03.01.03,0-.02,0,0,0,.02.01.04.02.06.03.09.06.18.09.27.14.44.28.89.41,1.34.17.58.33,1.15.49,1.73.19.7.37,1.39.55,2.09.2.79.4,1.58.59,2.37.21.87.42,1.74.62,2.61.21.93.42,1.86.63,2.8.22.98.43,1.96.63,2.95s.41,2.01.6,3.01.39,2.03.57,3.05.35,2.03.52,3.04.31,1.97.45,2.95.25,1.88.36,2.83c.1.88.19,1.77.26,2.65.07.81.12,1.62.15,2.43,0,.19.01.37.02.56s0,.37,0,.53c0,.34,0,.69,0,1.03-.02.6-.05,1.21-.13,1.8-.03.25-.07.51-.12.76-.02.12-.05.23-.08.35-.01.05-.03.11-.04.16,0,.02-.01.05-.02.07,0,0-.02.05,0,.02,0,.01,0,.03-.01.04-.06.19-.13.37-.21.55-.04.08-.08.15-.12.23-.01.02-.02.04-.03.05-.02.03,0-.01,0,0,0,0-.01.02-.02.03-.02.03-.05.07-.07.1-.05.06-.09.12-.15.17-.01.01-.03.03-.04.04,0,0,.03-.02,0,0,0,0-.01.01-.02.02-.03.02-.05.04-.08.07s-.06.04-.09.06c0,0-.01,0-.02.01-.03.02.03-.02,0,0-.02,0-.03.02-.05.03-.03.01-.06.03-.09.04-.02,0-.03.01-.05.02,0,0-.01,0-.02,0-.03.01.04,0,0,0-.06.02-.13.03-.19.04,0,0-.02,0-.03,0-.03,0,.02,0,0,0-.02,0-.04,0-.05,0-.03,0-.07,0-.1,0-.16,0-.2.21-.03.22h0Z"/>
      <path class="cls-1" d="M181.85,62.4c.27-.08.42-.28.45-.55.03-.37-.11-.74-.25-1.08-.22-.52-.5-1.02-.79-1.5-.38-.62-.79-1.22-1.21-1.81-.49-.68-.99-1.35-1.51-2.02-.56-.71-1.12-1.42-1.7-2.11s-1.17-1.4-1.76-2.09c-.56-.65-1.13-1.3-1.7-1.94-.5-.56-1-1.12-1.51-1.68-.4-.44-.8-.87-1.21-1.31-.28-.3-.57-.59-.85-.89-1.02-1.11-2.07-2.2-3.13-3.27s-2.18-2.17-3.3-3.23-2.28-2.12-3.45-3.16-2.36-2.06-3.57-3.05-2.45-2-3.71-2.97-2.52-1.91-3.8-2.83-2.58-1.82-3.89-2.7-2.63-1.71-3.97-2.53-2.66-1.58-4.01-2.33c-.65-.36-1.3-.71-1.95-1.06-.03-.02-.08.03-.04.05,1.35.72,2.68,1.47,4,2.25s2.65,1.6,3.96,2.44,2.62,1.72,3.9,2.61,2.57,1.82,3.83,2.76,2.51,1.91,3.75,2.9,2.44,1.98,3.63,3,2.35,2.05,3.5,3.1,2.26,2.1,3.36,3.17,2.15,2.14,3.2,3.23c.66.69,1.3,1.39,1.97,2.08.34.35.67.7,1,1.06.46.49.91.99,1.36,1.49.54.6,1.07,1.2,1.6,1.8.58.67,1.16,1.34,1.73,2.01s1.17,1.39,1.74,2.1,1.09,1.37,1.62,2.07c.48.63.94,1.28,1.39,1.93.37.54.72,1.1,1.03,1.68.22.41.44.85.55,1.3.04.15.07.32.06.47,0,.06-.01.13-.03.19-.01.03-.05.11-.07.14-.04.05-.06.07-.11.1-.03.02-.03.02-.07.04-.01,0-.03.01-.04.02,0,0-.05.02-.04.01-.07.02-.06.12.02.1h0Z"/>
      <path class="cls-1" d="M131.86,259.73s0,0,.02-.01c.01,0,.02-.01.04-.02s.02,0,.03-.01c.01,0,.04-.01.02,0,.02,0,.04,0,.07-.01.03,0,0,0,.01,0,.01,0,.02,0,.03,0,0,0,0,0,.01,0,.03,0-.02,0,0,0s0,0,0,0c0,0,.01,0,.02,0,0,0,.02,0,.03.01-.02,0,0,0,.01,0,.02.01.04.02.06.04,0,0-.01,0,.01,0,0,0,.02.02.03.02.02.02.03.03.05.05,0,0,.04.05.01.01-.03-.04.01.02.02.03,0,0,.01.01.01.02-.02-.02,0,0,0,.02,0,.01.02.03.02.04.02.03.03.05.04.08.02.03.03.06.04.09,0,.01.02.05,0,.02,0,.03.02.05.03.07.03.07.06.14.09.22,0,.02,0-.02,0,0,0,0,0,.02,0,.03,0,.02.01.04.02.06.01.04.03.08.04.13.03.09.05.18.07.28.05.21.09.42.13.64.09.51.16,1.01.21,1.53.06.59.11,1.18.14,1.76.04.63.07,1.26.1,1.9s.05,1.27.07,1.9c.02.59.04,1.18.06,1.78.02.51.04,1.02.06,1.53.02.39.04.77.09,1.16,0,.07.02.14.03.22.02.18.32.13.34-.02.16-.98.24-1.98.29-2.97.06-1.06.08-2.13.08-3.19,0-.62,0-1.23,0-1.85l-.3-.02c0,1.71.06,3.43.09,5.14s.02,3.33-.12,4.99c-.04.45-.09.89-.15,1.34s-.15.89-.21,1.34l.24-.07c-.45-.42-.42-1.13-.85-1.57-.06-.06-.19.02-.12.09.21.22.29.54.38.81s.17.59.37.82c.07.08.22.03.24-.07.1-.39.16-.79.21-1.18s.1-.8.14-1.21c.08-.82.12-1.64.14-2.46.04-1.69,0-3.39-.04-5.08-.02-.96-.04-1.92-.04-2.88,0-.08-.05-.13-.13-.14-.06,0-.17.04-.17.12,0,1.08,0,2.17-.03,3.25s-.06,2.08-.17,3.11c-.06.55-.13,1.1-.22,1.64l.34-.02c-.05-.36-.08-.71-.1-1.07-.03-.49-.05-.99-.07-1.48-.02-.59-.04-1.17-.06-1.76-.02-.64-.04-1.27-.07-1.91s-.06-1.29-.1-1.93c-.04-.61-.08-1.22-.14-1.82-.05-.53-.12-1.06-.2-1.59-.07-.41-.16-.83-.3-1.23-.03-.09-.06-.17-.1-.26-.02-.04-.03-.07-.05-.11,0-.02-.01-.03-.02-.05,0,0-.04-.06-.02-.03.01.02,0-.01,0-.02-.04-.06-.08-.12-.12-.18-.02-.02-.04-.05-.06-.07,0-.01-.02-.02-.03-.03-.02-.02-.03-.02-.05-.03.01,0,.05.04.02,0-.14-.16-.4-.22-.6-.15-.05.02-.1.04-.15.07-.04.02-.04.07-.01.1.03.03.08.03.12,0h0Z"/>
      <path class="cls-1" d="M132.67,269.69c0-.41,0-.81-.05-1.22-.03-.2-.06-.41-.12-.6-.03-.1-.06-.2-.1-.3s-.07-.22-.12-.32c-.03-.06-.14-.05-.17.01-.06.17-.08.34-.1.52-.04.27-.06.55-.08.82-.03.35-.05.71-.07,1.06-.02.4-.04.81-.05,1.21-.02.43-.03.85-.04,1.28s-.02.84-.03,1.26c0,.38-.02.77-.02,1.15,0,.32-.01.65-.01.97,0,.13,0,.27.02.4,0,.02,0,0,0,0,0,0,0,.01,0,.02,0,.01,0,.03,0,.04,0,.03,0,.05,0,.08,0,.05,0,.09,0,.14,0,.11,0,.22,0,.33,0,.01,0,.03,0,0l.04-.04h0s.07.02.1.03c.01.03,0,.01,0,0,0-.02,0-.04,0-.05,0-.07,0-.14,0-.21,0-.06,0-.13,0-.18,0-.08-.13-.08-.13,0,0,.15,0,.3-.01.46,0,.02,0,.04,0,.05.02.04.07.04.1.03.05-.02.05-.06.05-.1,0-.05,0-.11,0-.16,0-.2.01-.39.03-.59.02-.3.02-.6.02-.9,0-.37.01-.74.02-1.11,0-.41.02-.83.02-1.24s.02-.86.03-1.29.03-.83.05-1.24c.02-.37.03-.74.05-1.12.02-.3.04-.6.07-.9.02-.2.04-.4.09-.59,0-.02,0-.03.01-.05,0,0,0-.01,0-.02,0-.01,0,0,0,0,0,0,0,0,0-.01h-.17c.05.11.1.2.15.3s.07.2.1.3c.06.19.09.39.12.59.05.39.05.79.05,1.19,0,.07.12.07.12,0h0Z"/>
      <path class="cls-1" d="M132.24,267.66c-.12-.13-.29-.23-.47-.23s-.35.12-.47.25c-.18.18-.32.4-.44.62-.16.3-.3.61-.42.92-.15.37-.28.75-.41,1.14-.14.42-.28.85-.42,1.27s-.28.88-.42,1.31-.28.85-.43,1.27c-.14.38-.28.77-.44,1.14-.13.32-.27.63-.44.92-.04.06-.07.12-.11.18s.06.11.09.05c.18-.27.33-.55.47-.84.17-.35.31-.71.44-1.07.15-.41.29-.82.42-1.23s.28-.86.41-1.29.27-.85.41-1.28c.13-.39.26-.79.41-1.18.12-.34.26-.67.41-.99.12-.25.24-.5.41-.73.03-.05.07-.09.1-.13.02-.02.03-.04.05-.06s.03-.03.05-.05c.07-.06.13-.11.21-.14.06-.03.13-.04.21-.02.07.01.15.05.22.09.04.03.08.06.11.09.03.03.09,0,.06-.04h0Z"/>
      <path class="cls-1" d="M133.3,269.37s-.03-.06-.02-.08c0,.02.03-.03,0,0-.03.03.03-.02,0,0-.03.02-.05.04-.08.06,0,0-.02.01-.03.02-.04.02.02,0,0,0-.02.01-.04.02-.07.04-.27.14-.55.25-.83.35-.43.16-.87.31-1.3.46-.55.18-1.1.36-1.65.53-.63.2-1.26.39-1.89.57-.3.09-.65.19-.97.28-.34.1-.68.19-1.02.29-.67.19-1.34.37-2.02.54-.64.17-1.28.33-1.92.48-.56.14-1.13.26-1.7.39-.45.1-.9.19-1.36.27-.09.02-.18.03-.27.04-.05,0-.1.06-.09.11,0,.06.08.08.13.07-.03,0,.02,0,.03,0,.01,0,.02,0,.03,0,.03,0,.05,0,.08,0,.05,0,.09,0,.14-.01.1-.01.21-.02.31-.04.24-.03.47-.07.7-.11.55-.1,1.1-.22,1.65-.34.64-.15,1.27-.3,1.91-.46.68-.18,1.36-.36,2.04-.55s1.38-.39,2.07-.59c.65-.19,1.3-.39,1.95-.59.57-.18,1.15-.36,1.72-.55.46-.16.92-.31,1.38-.49.31-.12.62-.24.92-.38.1-.05.19-.09.28-.15.06-.04.13-.1.15-.18,0-.04,0-.09-.04-.12-.11-.11-.35.04-.23.16h0Z"/>
      <path class="cls-1" d="M135.28,270.14s.03.05.05.08c0,.01.01.03.02.04,0,0,0,.01,0,.02,0,0,0-.02,0,0,0,.02.01.05.01.07,0,0,0,.05,0,.02,0,.01,0,.03,0,.04s0,.03,0,.04c0,0-.01.04,0,.02s0,.02,0,.02c0,.01-.01.03-.02.04,0,.01-.01.02-.02.03.02-.03,0,.01-.01.02-.02.02-.04.05-.06.07,0,0-.04.04-.02.02-.01,0-.02.02-.03.03-.03.02-.06.05-.09.07-.07.05-.11.07-.18.11-.17.09-.34.15-.52.21-.44.15-.9.25-1.36.34-.53.1-1.06.19-1.6.27s-1.03.15-1.55.24c-.17.03-.34.09-.51.13-.19.05-.39.11-.58.16-.39.1-.78.2-1.16.29-1.53.36-3.08.62-4.63.84s-3.1.39-4.65.58c-.19.02-.38.05-.57.07-.04,0-.09.05-.08.09,0,.05.06.06.1.06.79-.06,1.59-.12,2.38-.2s1.58-.17,2.36-.27c1.59-.2,3.17-.47,4.73-.82.8-.18,1.59-.38,2.37-.61.26-.08.53-.11.8-.15s.53-.08.8-.13c1.04-.16,2.09-.32,3.1-.64.34-.11.71-.23.99-.46.2-.16.36-.4.28-.67-.02-.07-.05-.13-.09-.19-.08-.12-.34-.02-.25.11h0Z"/>
      <path class="cls-1" d="M130.58,282.66c.3,0,.47-.27.61-.5.06-.1.12-.21.18-.31.02-.03-.02.03,0,0,0,0,.01-.02.02-.03.01-.02.02-.03.04-.05s.04-.03-.01.01c0,0,.03-.02,0,0s-.02.01-.01,0c.02,0-.05.01-.04.01-.04,0-.1,0-.13-.02-.03-.02-.04-.03-.03-.02,0,0-.03-.04-.02-.02,0,0,.01.04,0,0,0-.03,0,0,0,.02,0,.02,0,.03,0,.05.01.09.01.18.01.26l.04-.08c-.62.93-1.33,1.81-2.08,2.64s-1.57,1.6-2.42,2.33-1.76,1.44-2.68,2.12-1.86,1.33-2.8,1.98-1.87,1.28-2.8,1.93c-.11.08-.23.16-.34.24s.03.19.13.13c1.21-.77,2.42-1.52,3.61-2.32s2.35-1.61,3.48-2.48,2.22-1.8,3.23-2.8,1.92-2.04,2.72-3.18c.05-.07.1-.14.15-.21.02-.04.05-.07.07-.11.03-.05.09-.11.1-.17.01-.11,0-.25-.02-.37-.01-.09-.04-.18-.12-.22-.1-.06-.22-.04-.31.03-.12.09-.19.25-.27.38-.02.04-.04.07-.06.11-.01.02-.02.04-.03.05,0,.01-.01.02-.02.03.01-.02.01-.02,0,0-.05.07-.1.13-.15.19-.01.01-.02,0,.01-.01,0,0-.01.01-.02.02-.01,0-.02.01-.03.02-.02.02.05-.03.02-.01,0,0-.01,0-.02,0-.02,0,.06-.01.03,0-.02,0-.05,0,.02,0-.1,0-.21.05-.23.16-.01.1.08.18.18.18h0Z"/>
      <path class="cls-1" d="M130.44,284.93s0,.05,0,.07c0,.04,0-.03,0,0,0,.01,0,.02,0,.04,0,.03,0,.05-.01.08,0,.01,0,.03,0,.04,0,.02.01-.03,0-.01,0,0,0,.01,0,.02-.02.05-.04.11-.07.15-.01.02-.03.05,0,.01,0,.01-.02.03-.03.04-.02.03-.04.05-.06.08-.05.06-.1.11-.15.16-.01.01-.03.03-.04.04-.02.02,0,0,0,0,0,0-.01.01-.02.02-.03.03-.07.06-.1.08-.15.12-.3.23-.46.33-.09.06-.18.11-.27.17-.02.01-.04.03-.07.04-.01,0-.02.01-.04.02,0,0-.05.03-.03.02.02-.01-.02.01-.02.01-.01,0-.02.01-.03.02-.03.02-.06.03-.08.05-.22.12-.45.23-.67.34-.52.24-1.05.46-1.59.67-.61.23-1.22.44-1.83.64-.66.21-1.27.39-1.92.58s-1.31.35-1.97.51c-.62.15-1.24.29-1.87.41-.55.11-1.11.21-1.67.29-.45.07-.9.12-1.35.15-.01,0,0,0,0,0,0,0-.01,0-.02,0-.01,0-.02,0-.04,0-.02,0-.04,0-.06,0-.04,0-.09,0-.13,0-.05,0-.12.03-.12.09,0,.05.04.1.1.1.43,0,.86-.01,1.3-.06.54-.06,1.08-.14,1.62-.23.62-.11,1.24-.24,1.86-.38.66-.15,1.32-.32,1.98-.49s1.35-.38,2.02-.59c.63-.2,1.26-.41,1.89-.64.56-.21,1.12-.43,1.67-.67.47-.21.93-.44,1.37-.7.33-.2.66-.42.93-.7.18-.18.36-.42.38-.69,0-.06,0-.12,0-.18-.04-.18-.37-.12-.33.06h0Z"/>
      <path class="cls-1" d="M120.68,285.45c.6-.3,1.23-.55,1.87-.77.16-.05.31-.1.47-.15.08-.02.15-.05.23-.07.04-.01.08-.02.12-.04.02,0,.03-.01.05-.02.01,0,.02,0,.03-.01-.02,0-.03,0,0,0,.31-.09.62-.18.93-.26.35-.09.7-.18,1.05-.27l-.16-.3c-.2.16-.4.3-.61.44-.1.06-.2.13-.31.19-.01,0-.03.02-.04.02.05-.03,0,0,0,0-.03.01-.05.03-.08.04-.06.03-.12.06-.17.09-.45.23-.92.41-1.4.56-.03,0-.06.02-.09.03-.01,0-.03,0-.04.01-.01,0-.06.02,0,0-.06.02-.12.03-.18.05-.13.03-.25.07-.38.1-.25.06-.5.11-.76.16-.52.1-1.05.16-1.58.21-.15.01-.3.03-.46.04-.02,0-.03,0-.05,0-.01,0-.02,0-.03,0,.02,0,.02,0,0,0-.03,0-.07,0-.1,0-.08,0-.15,0-.23.01-.09,0-.17.01-.26.02.04,0-.02,0-.02,0-.02,0-.04,0-.07,0-.04,0-.08,0-.12,0-.15,0-.31.02-.46.02-.07,0-.15.03-.16.11-.01.07.06.12.12.12.27.01.55.02.82.02s.55-.01.82-.03c.55-.03,1.1-.08,1.65-.17,1.03-.16,2.06-.44,3.01-.9.52-.25,1.01-.55,1.46-.91.06-.05.11-.14.06-.21s-.14-.11-.22-.09c-.63.16-1.26.32-1.88.5s-1.29.4-1.91.65c-.36.14-.71.3-1.06.48-.08.04-.16.14-.11.23.05.09.18.12.27.07h0Z"/>
      <path class="cls-1" d="M124.78,260.17c.1.19.23.34.4.47.11.08.22.13.34.19.05.02.09.05.13.07.03.02-.03-.04-.01,0,0,0,.02.02.03.03.02.02-.02-.04,0-.01,0,0,.01.02.01.03.02.02,0-.05,0,0,0,.01,0,.03,0,.04-.01-.04,0-.03,0,0,0,.01,0,.03,0,.04,0,0-.02.07,0,.02,0,.02-.01.03-.02.05-.02.05-.04.09-.06.14l.07-.09c-.55.35-1.11.7-1.68,1.02-.29.17-.52.3-.82.46s-.58.31-.87.46c-1.18.61-2.38,1.17-3.61,1.67s-2.5.98-3.78,1.39c-.32.1-.64.21-.96.3-.16.05-.32.1-.48.15-.04.01-.08.02-.12.04.04-.01-.02,0-.02,0-.02,0-.04.01-.06.02-.08.02-.16.05-.24.07-.66.19-1.32.37-1.98.53-1.32.33-2.66.62-4,.86s-2.69.45-4.04.61c-.68.08-1.35.15-2.03.22s-1.36.11-1.98.15c-1.34.08-2.69.13-4.03.14s-2.64-.02-3.97-.07-2.58-.15-3.86-.27c-.3-.03-.61-.06-.91-.09-.13-.02-.17.17-.03.19.68.09,1.36.18,2.04.25s1.37.13,2.06.18c1.41.1,2.82.15,4.23.16s2.88-.03,4.32-.11,2.94-.21,4.4-.39,2.89-.4,4.33-.67,2.87-.59,4.29-.96,2.81-.79,4.19-1.27,2.7-.99,4.02-1.58,2.57-1.21,3.81-1.91c.62-.35,1.23-.71,1.82-1.08.07-.04.14-.09.2-.13.04-.03.09-.05.12-.09.04-.04.06-.1.08-.15.05-.12.1-.26.07-.39-.04-.22-.25-.31-.43-.4-.05-.02-.09-.05-.14-.07-.03-.01-.05-.03-.08-.05,0,0-.02-.01-.03-.02.04.03,0,0-.01,0-.12-.1-.17-.17-.24-.31-.12-.23-.57-.06-.44.19h0Z"/>
      <path class="cls-1" d="M120.98,262.21c.34,0,.66.1.98.2s.67.2,1.02.2v-.28c-1.32.11-2.64.28-3.95.48s-2.58.43-3.86.69-2.55.53-3.82.82-2.52.57-3.78.85-2.51.55-3.77.8-2.51.48-3.78.67-2.54.34-3.82.44-2.55.15-3.83.13-2.63-.1-3.94-.25-2.69-.4-4.01-.72c-.33-.08-.67-.16-1-.25-.13-.04-.23.14-.09.19.68.19,1.35.38,2.04.54s1.35.28,2.03.39c1.31.21,2.62.35,3.94.4s2.6.04,3.9-.03,2.58-.2,3.86-.37,2.54-.38,3.8-.62,2.52-.5,3.78-.78,2.53-.57,3.79-.85,2.55-.57,3.83-.84,2.56-.52,3.85-.74,2.62-.41,3.94-.56c.32-.03.64-.07.96-.1.18-.02.19-.28,0-.28-.34,0-.66-.09-.98-.2s-.67-.2-1.02-.2c-.08,0-.17.04-.18.13-.01.08.06.14.14.14h0Z"/>
      <path class="cls-1" d="M91.8,251.11c-.95.04-1.9.19-2.82.44s-1.83.6-2.68,1.03-1.7.96-2.49,1.54-1.54,1.26-2.22,1.97-1.32,1.48-1.88,2.3-1.08,1.68-1.51,2.58-.78,1.82-1.04,2.77-.44,1.88-.52,2.85-.06,1.93.06,2.88.36,1.9.71,2.8c.08.22.18.44.28.65.04.09.21.03.16-.07-.1-.22-.18-.45-.25-.68s-.15-.46-.22-.69c-.13-.46-.23-.92-.31-1.39-.15-.93-.2-1.88-.15-2.82s.2-1.9.43-2.83.54-1.84.93-2.72.85-1.76,1.37-2.58,1.11-1.6,1.76-2.33,1.33-1.4,2.08-2.01,1.53-1.15,2.36-1.62c.06-.03-.02,0,.02,0,.01,0,.02-.01.03-.02.03-.01.05-.03.08-.04.05-.03.1-.06.16-.08.1-.06.21-.11.32-.16.21-.11.43-.21.64-.3.43-.19.87-.36,1.32-.51.11-.04.22-.07.33-.1.03,0,.06-.02.08-.03-.03,0,.03,0,.04-.01.06-.02.12-.03.18-.05.23-.06.45-.12.68-.17.45-.1.91-.17,1.37-.22.24-.02.43-.04.65-.05.09,0,.2-.05.21-.15.01-.09-.08-.17-.16-.17h0Z"/>
      <path class="cls-1" d="M87.75,250.71c-.58.13-1.14.31-1.7.52-.63.23-1.25.5-1.86.79-.69.33-1.36.68-2.02,1.05s-1.37.8-2.03,1.24-1.36.92-2.02,1.41-1.3,1.01-1.93,1.54-1.22,1.08-1.78,1.66c-.53.54-1.03,1.11-1.5,1.7-.44.55-.84,1.13-1.2,1.73-.08.14-.15.29-.22.44-.07.14-.14.28-.2.42-.12.28-.23.56-.33.85-.05.14-.07.28-.11.42-.02.06.06.1.11.11.06,0,.12-.04.14-.1.04-.13.1-.27.15-.4.05-.14.11-.27.17-.41.13-.28.26-.57.43-.83.1-.16.17-.26.26-.41.04-.07.09-.14.13-.22.02-.03.04-.06.06-.1,0,0,.02-.03,0,0,0,0,0-.01.01-.02.01-.02.03-.04.04-.06.19-.29.39-.57.6-.85.45-.59.93-1.15,1.44-1.68.27-.28.54-.56.82-.83.3-.29.55-.53.85-.79.61-.54,1.23-1.06,1.87-1.56s1.3-.98,1.98-1.43,1.33-.88,2.02-1.28c.17-.1.34-.2.51-.29.1-.06.12-.07.22-.12.08-.05.16-.09.25-.14.33-.18.65-.35.98-.52.62-.31,1.24-.59,1.88-.85.29-.12.58-.23.88-.33.14-.05.28-.09.41-.13.03-.01.07-.02.1-.03.02,0,.03,0,.05-.01.02,0-.02,0-.02,0,0,0,.02,0,.03,0,.07-.02.14-.04.21-.06.13-.03.25-.07.38-.09.09-.02.19-.1.17-.2-.02-.1-.14-.15-.23-.13h0Z"/>
      <path class="cls-1" d="M81.35,249.92c-1.25.08-2.47.38-3.64.81-1.24.46-2.42,1.07-3.52,1.82s-2.12,1.62-3,2.62-1.58,2.05-2.07,3.23c-.24.58-.43,1.18-.55,1.79s-.16,1.24-.14,1.86c0,.15.01.3.03.45.01.13.23.08.22-.04-.04-1.22.2-2.44.64-3.58s1.1-2.23,1.89-3.19,1.78-1.88,2.84-2.64,2.17-1.38,3.37-1.87c.58-.24,1.18-.44,1.76-.59s1.18-.26,1.79-.33c.14-.02.29-.03.43-.04.09,0,.17-.1.16-.19-.02-.1-.13-.13-.21-.12h0Z"/>
      <path class="cls-1" d="M64.32,253.72c.2-.38.42-.72.7-1.05.14-.17.29-.32.44-.47.09-.08.13-.12.22-.2.08-.07.16-.14.25-.21.35-.28.72-.53,1.1-.76.11-.06.16-.09.27-.15.1-.06.21-.11.31-.16.21-.1.42-.2.63-.29.44-.19.89-.35,1.35-.5.12-.04.23-.07.35-.11.03,0,.05-.02.08-.02-.03,0,.05-.01.06-.02.06-.02.12-.03.18-.05.24-.07.48-.13.72-.19.96-.23,1.94-.41,2.92-.55.92-.13,1.84-.24,2.76-.36.11-.01.21-.03.32-.04.14-.02.15-.23,0-.22-.94.05-1.88.13-2.81.25-.99.13-1.97.29-2.95.52s-1.94.5-2.86.88c-.87.35-1.71.79-2.46,1.36-.71.54-1.32,1.2-1.75,1.98-.05.09-.1.19-.15.28-.04.08.02.16.09.18.08.02.18-.01.22-.09h0Z"/>
      <path class="cls-1" d="M158.49,170.44c0,.06.02.11.02.17,0,.03,0,.05,0,.08,0,0,0,.06,0,.02,0,.02,0,.03,0,.05,0,.12-.01.25-.03.37,0,.07-.02.13-.04.2,0,.03-.01.07-.02.1,0,.02,0,.03-.01.05,0,0,0,.02,0,.03,0,0,0,.04,0,.02s-.01.05-.02.06c0,.02,0,.03-.01.05s-.01.04-.02.05c0,0,0,.02,0,.03.01-.04,0,0,0,.01-.02.07-.05.15-.07.22-.25.69-.61,1.35-.99,1.97-.24.39-.45.72-.72,1.1-.28.4-.57.8-.87,1.19-.66.86-1.35,1.69-2.05,2.51-.77.89-1.55,1.76-2.36,2.61s-1.68,1.76-2.54,2.62-1.68,1.67-2.53,2.49c-.79.76-1.59,1.51-2.4,2.26-.18.16-.38.35-.57.52-.04.04-.08.08-.12.11-.02.02-.04.04-.07.06-.01.01-.02.02-.03.03-.01.01-.01.01,0,0,0,0-.01.01-.02.02-.09.08-.18.16-.26.24-.34.31-.67.61-1.01.92-.55.5-1.12.98-1.68,1.47-.05.05-.11.09-.16.14-.03.02-.05.05-.08.07-.01.01-.03.02-.04.03-.01,0-.02.02-.03.03.02-.02,0,0,0,0-.11.09.04.22.14.14.24-.2.5-.39.74-.59.29-.24.58-.48.87-.73.7-.59,1.38-1.19,2.07-1.8.81-.72,1.6-1.46,2.39-2.21.86-.81,1.7-1.62,2.54-2.45s1.71-1.72,2.55-2.6,1.63-1.74,2.42-2.64c.73-.83,1.45-1.69,2.13-2.56.61-.78,1.19-1.58,1.72-2.41.42-.66.82-1.35,1.11-2.08.22-.54.4-1.12.38-1.71,0-.11-.01-.22-.03-.33-.03-.14-.29-.1-.27.05h0Z"/>
      <path class="cls-1" d="M158.6,163.38c.22,0,.39-.15.53-.31.14-.14.25-.3.38-.45.02-.03.04-.05.07-.08.01-.01.02-.02.03-.03.03-.04-.03.02,0,0,.03-.03-.02,0-.02,0-.06.03-.19.02-.23-.06-.02-.04-.01-.05-.01-.03,0,.03-.01-.02,0-.03,0,0,0,.04,0,.04,0,.04-.02.08-.03.12,0,0-.02.07-.01.05-.01.04-.02.09-.04.13-.02.03-.05.06-.08.09-.04.04-.08.09-.12.13-.08.09-.16.17-.24.26-1.25,1.35-2.47,2.73-3.68,4.11s-2.46,2.84-3.68,4.27-2.44,2.87-3.66,4.31-2.43,2.89-3.64,4.33c-.15.18-.3.35-.44.53-.11.13.12.23.21.12,1.28-1.43,2.54-2.88,3.79-4.34s2.5-2.94,3.74-4.4,2.48-2.91,3.74-4.35,2.47-2.81,3.74-4.19c.16-.17.31-.34.47-.51.07-.08.17-.15.21-.25.03-.08.05-.16.07-.23s.05-.17.04-.25c-.02-.14-.18-.18-.3-.13-.14.06-.24.23-.34.35-.06.08-.13.16-.2.24-.03.04-.06.07-.1.1-.02.02-.03.03-.05.05.04-.04-.02.02-.03.03-.01.01-.03.02-.04.03,0,0-.02.01-.02.02-.03.02.04-.02.01,0,0,0-.04.02-.05.02,0-.01.06-.01.02,0-.02,0-.05,0,.02,0-.09,0-.2.05-.22.15-.01.09.08.18.17.17h0Z"/>
      <path class="cls-1" d="M156.43,154.75c-.55,1.11-1.21,2.16-1.92,3.17s-1.54,2.05-2.37,3.03-1.72,1.93-2.61,2.87-1.77,1.84-2.66,2.76-1.68,1.75-2.49,2.66c-.09.11-.19.21-.28.32-.05.05-.03.13.03.17.07.04.15.02.2-.04.83-.89,1.69-1.74,2.54-2.61s1.79-1.81,2.67-2.73,1.78-1.89,2.63-2.86,1.66-1.97,2.42-3.02,1.42-2.09,2.01-3.2c.07-.13.14-.26.2-.4.05-.09-.02-.19-.11-.22-.1-.03-.22.01-.27.11h0Z"/>
      <path class="cls-1" d="M153.1,192.75c-.21-.11-.49-.01-.69.06-.36.12-.71.3-1.04.48-1.02.54-1.99,1.17-2.93,1.84-1.04.73-2.06,1.51-3.03,2.34-.43.37-.84.74-1.24,1.14-.16.16-.32.33-.47.51-.12.14-.22.3-.32.45-.12.17-.23.34-.34.52-.85,1.33-1.53,2.75-2.08,4.22s-.97,3.06-1.29,4.62-.55,3.19-.72,4.8-.29,3.27-.4,4.91-.2,3.23-.3,4.84c-.05.79-.11,1.58-.17,2.38s-.16,1.54-.25,2.31c-.04.36-.08.73-.14,1.08-.02.15.23.15.26.01.06-.38.14-.75.2-1.13s.11-.75.16-1.12c.1-.77.19-1.55.26-2.32.15-1.59.25-3.19.35-4.78s.2-3.24.34-4.86.33-3.22.6-4.81.6-3.1,1.08-4.61,1.06-2.94,1.8-4.32c.19-.35.39-.69.6-1.03s.4-.66.64-.96c.14-.18.3-.34.46-.51.18-.18.36-.36.54-.54.2-.19.4-.37.62-.56s.46-.39.69-.59c.49-.41,1-.8,1.51-1.19.97-.73,1.97-1.43,3-2.06.4-.24.77-.46,1.2-.66.16-.08.31-.15.48-.21.03-.01.06-.02.1-.03.02,0,.03-.01.05-.02,0,0,.02,0,.02,0,.02,0-.03,0,0,0,.06-.01.11-.03.17-.04.02,0,.09,0,.04,0,.02,0,.04,0,.06,0,0,0,.02,0,.03,0,0,0-.03,0,0,0,0,0,.02,0,.02,0,.03,0-.02-.01,0,0,.06.03.13.02.18-.03.04-.05.03-.12-.03-.15h0Z"/>
      <path class="cls-1" d="M138.87,209.21c-.54,1.01-1,2.06-1.4,3.14-.43,1.16-.79,2.33-1.11,3.52-.33,1.25-.62,2.52-.86,3.79s-.48,2.67-.67,4.01-.36,2.77-.51,4.16-.29,2.83-.41,4.25-.23,2.84-.34,4.25-.21,2.78-.32,4.18-.22,2.69-.33,4.04-.22,2.56-.35,3.83c-.03.3-.06.6-.09.9-.02.14.23.15.25.01.08-.62.17-1.23.25-1.85s.15-1.28.22-1.92c.14-1.33.26-2.66.36-3.99s.21-2.77.32-4.15.21-2.82.33-4.23.24-2.83.38-4.24.3-2.79.48-4.18.38-2.71.62-4.05.49-2.58.8-3.85c.29-1.2.62-2.39,1.02-3.56.37-1.1.8-2.18,1.28-3.23.11-.25.23-.49.35-.73.03-.07-.02-.14-.08-.16-.07-.02-.16.01-.2.08h0Z"/>
      <path class="cls-1" d="M62.3,257.29c0-1.18-.02-2.36-.08-3.54s-.14-2.36-.25-3.54-.25-2.38-.4-3.56-.33-2.37-.51-3.55-.38-2.37-.58-3.55-.41-2.37-.63-3.55-.43-2.36-.64-3.53-.41-2.33-.61-3.49-.39-2.31-.56-3.46-.33-2.29-.47-3.44c-.04-.28-.07-.55-.1-.83-.01-.12-.24-.08-.22.04.06.57.11,1.14.17,1.71s.14,1.14.21,1.72c.15,1.16.32,2.31.49,3.46s.38,2.33.58,3.49.41,2.34.62,3.51.42,2.36.63,3.53.41,2.37.61,3.56.37,2.36.54,3.55.32,2.36.44,3.55.24,2.36.32,3.54.14,2.35.16,3.52c0,.28,0,.57.01.86,0,.07.05.12.12.12.06,0,.15-.04.15-.11h0Z"/>
      <path class="cls-1" d="M54.03,206.13c.76.69,1.36,1.53,1.87,2.41.57,1,1.02,2.07,1.42,3.16.42,1.17.77,2.37,1.07,3.58s.59,2.49.85,3.74.48,2.39.73,3.59c.22,1.05.45,2.11.73,3.15.09.34.21.68.32,1.01.15.44.3.89.45,1.33.29.87.58,1.74.87,2.6.58,1.74,1.15,3.49,1.7,5.24s1.08,3.48,1.57,5.24.94,3.48,1.37,5.24c.1.42.21.84.31,1.27.02.07.15.05.14-.02-.1-.44-.18-.89-.29-1.34s-.2-.87-.31-1.3c-.22-.88-.44-1.76-.67-2.64-.47-1.76-.97-3.5-1.49-5.24s-1.08-3.51-1.64-5.26-1.14-3.51-1.71-5.26c-.11-.32-.21-.64-.3-.97-.07-.24-.13-.49-.19-.74-.13-.53-.25-1.05-.36-1.58-.25-1.17-.48-2.35-.72-3.52-.25-1.25-.52-2.5-.81-3.74s-.62-2.45-1.01-3.65c-.37-1.14-.81-2.25-1.35-3.32-.48-.94-1.06-1.85-1.78-2.63-.16-.18-.33-.34-.51-.5-.06-.05-.15-.06-.22,0-.06.04-.08.13-.02.18h0Z"/>
      <path class="cls-1" d="M67.4,249.67c-.24-1.55-.48-3.1-.74-4.65s-.54-3.15-.83-4.72-.62-3.2-.96-4.8-.71-3.19-1.11-4.77-.83-3.16-1.3-4.73-.97-3.12-1.52-4.66-1.13-3.03-1.76-4.51-1.31-2.92-2.04-4.34-1.51-2.79-2.36-4.14-1.72-2.6-2.67-3.83c-.23-.3-.47-.59-.71-.89-.02-.03-.09,0-.06.04.98,1.22,1.88,2.5,2.74,3.81s1.66,2.68,2.4,4.06,1.45,2.84,2.1,4.29,1.26,2.97,1.83,4.48,1.09,3.07,1.58,4.63.94,3.13,1.36,4.71.81,3.17,1.17,4.76.7,3.18,1.01,4.77.6,3.15.88,4.73.52,3.1.77,4.65c.06.37.12.74.18,1.12,0,.04.07.02.06-.01h0Z"/>
      <path class="cls-1" d="M48.55,199.65c.49.07.99.19,1.43.42.35.18.65.43.89.74s.44.68.61,1.04c.2.44.36.9.54,1.35.1.27.21.54.31.8.06.14.11.27.17.41.06.15.15.29.23.43.3.57.59,1.15.86,1.73.56,1.2,1.06,2.42,1.53,3.66s.91,2.58,1.32,3.89.79,2.67,1.15,4.02.72,2.73,1.06,4.09.68,2.74,1.02,4.11.68,2.71,1.04,4.06.72,2.63,1.13,3.93c.1.31.2.62.3.94.01.03.08.02.07-.01-.42-1.3-.79-2.62-1.15-3.93s-.72-2.7-1.06-4.06-.69-2.75-1.03-4.13-.69-2.76-1.05-4.13-.73-2.72-1.14-4.06-.81-2.62-1.28-3.92-.94-2.51-1.49-3.74c-.26-.59-.54-1.18-.83-1.76-.15-.29-.3-.58-.45-.87-.08-.14-.15-.28-.21-.43-.06-.14-.11-.27-.17-.41-.2-.49-.38-.99-.57-1.48-.16-.4-.33-.8-.55-1.17-.2-.33-.45-.62-.76-.85-.34-.25-.74-.42-1.14-.53-.25-.07-.51-.12-.76-.15-.02,0-.03.03,0,.03h0Z"/>
      <path class="cls-1" d="M52.53,221.29c.34.17.65.39.97.59.35.21.71.41,1.11.52.24.07.49.1.74.1.03,0,.06-.02.06-.05-.04-.73-.11-1.46-.2-2.19s-.22-1.48-.38-2.22-.33-1.49-.53-2.23-.43-1.51-.67-2.26-.52-1.52-.8-2.27-.6-1.53-.92-2.29-.67-1.53-1.02-2.29-.72-1.52-1.1-2.28-.78-1.53-1.18-2.28-.82-1.52-1.24-2.27-.85-1.51-1.29-2.26-.87-1.49-1.32-2.23-.89-1.47-1.34-2.21-.89-1.45-1.34-2.17-.89-1.43-1.34-2.14-.88-1.4-1.31-2.1-.86-1.37-1.28-2.05-.83-1.33-1.23-2-.78-1.29-1.16-1.93-.73-1.25-1.09-1.88c-.17-.3-.34-.59-.5-.89-.02-.04-.09,0-.07.03.34.62.68,1.24,1.04,1.86s.74,1.28,1.12,1.91.79,1.32,1.19,1.98.82,1.35,1.24,2.02.86,1.39,1.3,2.08.88,1.41,1.32,2.12.89,1.43,1.33,2.15.9,1.46,1.34,2.19.89,1.48,1.33,2.22.87,1.49,1.3,2.23.85,1.51,1.27,2.26.81,1.51,1.21,2.27.77,1.52,1.15,2.29.72,1.52,1.07,2.29.66,1.51.97,2.28.59,1.51.86,2.28.51,1.5.74,2.27.42,1.5.6,2.25.33,1.48.45,2.23.22,1.46.29,2.19c.03.35.06.7.08,1.06l.06-.05c-.44,0-.85-.11-1.25-.3-.35-.17-.67-.38-1-.59-.17-.11-.35-.22-.53-.31-.05-.02-.12.04-.06.07h0Z"/>
      <path class="cls-1" d="M38.9,188.05c.18.36.39.69.65,1,.3.36.63.68.96,1.01.04.04.12-.01.08-.06-.9-1.03-1.81-2.04-2.72-3.06s-1.84-2.05-2.76-3.07-1.83-2.04-2.75-3.07-1.83-2.07-2.73-3.12-1.79-2.1-2.67-3.17-1.72-2.12-2.55-3.2-1.65-2.18-2.44-3.3-1.55-2.22-2.28-3.36-1.42-2.27-2.07-3.44-1.27-2.34-1.84-3.54c-.14-.29-.28-.59-.41-.88-.02-.04-.09-.01-.07.03.55,1.22,1.13,2.41,1.76,3.59s1.3,2.34,2.01,3.48,1.45,2.28,2.22,3.39,1.57,2.22,2.39,3.3,1.68,2.17,2.54,3.24,1.75,2.12,2.64,3.17,1.81,2.09,2.72,3.13,1.83,2.06,2.75,3.08,1.85,2.04,2.77,3.07,1.84,2.03,2.75,3.05c.22.25.44.49.66.74l.08-.06c-.32-.32-.65-.64-.95-.99-.26-.31-.47-.64-.65-1-.02-.05-.12-.01-.09.04h0Z"/>
      <path class="cls-1" d="M57.63,220.07c.36,1.12.7,2.25,1.03,3.38s.64,2.31.91,3.48.55,2.4.79,3.61.47,2.45.68,3.68.41,2.48.6,3.73.37,2.5.54,3.76.34,2.5.5,3.75.33,2.48.49,3.73.32,2.45.5,3.67.36,2.4.59,3.6c.05.28.12.57.16.85.02.15.29.1.27-.05-.1-.59-.16-1.19-.24-1.79s-.17-1.2-.25-1.81c-.17-1.22-.34-2.44-.5-3.66s-.33-2.48-.49-3.72-.33-2.51-.5-3.76-.34-2.51-.53-3.76-.38-2.49-.58-3.74-.42-2.47-.66-3.7-.49-2.42-.77-3.62-.57-2.35-.9-3.52-.69-2.28-1.08-3.4c-.09-.26-.2-.53-.3-.79-.04-.11-.27-.05-.24.07h0Z"/>
      <path class="cls-1" d="M62.85,250.55c.53.6.95,1.32,1.25,2.08.04.1.08.2.12.3.02.05.04.1.06.15.02.05-.01-.03,0,.02,0,0,0,.02,0,.03.01.03.02.06.03.09.07.21.13.43.19.65.12.45.22.91.3,1.36.17,1.01.25,2.03.28,3.05.03,1.09.01,2.22-.04,3.33-.05,1.18-.13,2.36-.22,3.54s-.18,2.41-.26,3.61-.15,2.37-.18,3.55-.03,2.28.03,3.42c.06,1.05.17,2.09.38,3.12.1.48.22.96.36,1.42s.3.9.51,1.32c.05.1.1.19.16.28s.15.19.2.28c.08.14.35.03.27-.11-.02-.04-.04-.1-.06-.16,0-.02-.02-.05-.03-.07-.02-.05.01.03,0-.02,0-.02-.01-.04-.02-.05,0-.02,0-.02,0,0-.03-.09-.09-.23-.13-.33-.09-.21-.18-.42-.26-.63-.02-.05-.04-.1-.06-.16,0-.03-.02-.05-.03-.08,0,0-.02-.05,0-.02,0,.02-.01-.03-.01-.04-.04-.11-.07-.22-.11-.34-.07-.23-.14-.46-.2-.7-.25-.99-.4-2.01-.48-3.03-.09-1.12-.12-2.21-.1-3.33.01-1.18.07-2.36.14-3.54s.16-2.41.25-3.61.17-2.38.23-3.57.09-2.27.08-3.4c-.01-1.05-.07-2.11-.2-3.15-.12-.93-.31-1.86-.63-2.75-.28-.8-.67-1.56-1.2-2.22-.12-.15-.25-.3-.39-.44-.1-.11-.33.03-.22.16h0Z"/>
      <path class="cls-1" d="M63.98,267.32c.08.63.12,1.27.14,1.9s.02,1.25.02,1.89-.02,1.27-.03,1.91,0,1.26.01,1.89c.02.6.05,1.19.13,1.79s.17,1.14.33,1.69.35,1.08.61,1.58.6,1,.98,1.43c.42.47.91.88,1.43,1.23.6.4,1.27.74,1.95.98.19.07.38.13.57.19.13.04.24-.13.09-.19-.69-.27-1.36-.59-1.99-.98-.54-.33-1.02-.7-1.47-1.15-.41-.41-.74-.83-1.03-1.33-.14-.24-.27-.49-.38-.74-.06-.13-.11-.25-.16-.38-.05-.14-.08-.22-.13-.37-.17-.54-.29-1.09-.38-1.65s-.14-1.17-.16-1.76c-.03-.62-.03-1.2-.03-1.82s.02-1.26.02-1.88.01-1.28,0-1.93-.05-1.26-.11-1.89c-.02-.15-.03-.3-.05-.46-.03-.2-.4-.14-.37.07h0Z"/>
      <path class="cls-1" d="M64.84,277.78c1.16.94,2.44,1.73,3.79,2.37s2.76,1.14,4.19,1.53,2.97.68,4.48.88,3.04.32,4.57.38,3.04.07,4.55.05c.18,0,.36,0,.54-.01.05,0,.11-.03.11-.08,0-.05-.04-.09-.09-.09-1.5-.04-3-.06-4.5-.14s-3.03-.18-4.55-.36-2.97-.42-4.43-.78-2.84-.8-4.19-1.4-2.64-1.33-3.82-2.21c-.14-.11-.28-.21-.42-.33-.06-.05-.15-.06-.22,0-.05.04-.09.13-.02.18h0Z"/>
      <path class="cls-1" d="M94.56,303.17c-.37.1-.76.17-1.14.21-.1.01-.19.02-.29.03-.02,0-.04,0-.07,0-.03,0-.01,0,0,0-.01,0-.03,0-.04,0-.05,0-.1,0-.15,0-.2,0-.4,0-.6,0-.84-.02-1.63-.14-2.43-.33-.88-.21-1.73-.49-2.57-.83-.88-.35-1.75-.77-2.59-1.22-.89-.47-1.75-.99-2.6-1.53s-1.71-1.13-2.54-1.73-1.62-1.2-2.41-1.83-1.52-1.22-2.27-1.84c-.69-.58-1.37-1.16-2.05-1.75-.6-.52-1.19-1.05-1.78-1.58-.13-.11-.26-.23-.38-.34-.07-.07-.23.03-.15.11.56.52,1.11,1.05,1.67,1.56.65.6,1.3,1.19,1.96,1.77.72.63,1.46,1.25,2.2,1.86.79.64,1.59,1.27,2.41,1.87s1.67,1.21,2.54,1.78,1.71,1.09,2.6,1.58,1.73.92,2.63,1.31c.85.37,1.72.69,2.61.94.83.23,1.68.4,2.54.46.8.06,1.61.04,2.39-.11.19-.03.37-.08.55-.12.08-.02.16-.08.14-.17-.01-.08-.12-.13-.19-.11h0Z"/>
      <path class="cls-1" d="M63.23,283.39c.8.81,1.62,1.59,2.47,2.36s1.77,1.57,2.68,2.32,1.9,1.53,2.88,2.26,1.99,1.46,3.02,2.16,2.07,1.38,3.13,2.03,2.14,1.28,3.23,1.88,2.16,1.15,3.27,1.69,2.2,1.02,3.32,1.47,2.17.85,3.28,1.21,2.14.66,3.23.92c.26.06.53.1.79.16.08.02.19,0,.23-.09.04-.08-.01-.17-.1-.18-.27-.06-.53-.14-.79-.21s-.52-.14-.78-.21c-.54-.15-1.08-.31-1.61-.48-1.1-.34-2.18-.73-3.25-1.15s-2.18-.9-3.26-1.4-2.2-1.05-3.27-1.62-2.17-1.19-3.23-1.82-2.13-1.3-3.17-1.99-2.05-1.39-3.06-2.12-1.94-1.45-2.89-2.2-1.84-1.5-2.73-2.28-1.7-1.53-2.52-2.32c-.2-.19-.39-.38-.59-.57-.13-.13-.41.05-.27.19h0Z"/>
      <path class="cls-1" d="M58.83,287.46c.23.15.43.31.63.5.09.09.18.18.26.27.04.04.07.09.11.13.04.05.07.09.1.12.13.18.24.37.34.57.05.1.09.19.12.29,0,0,.03.08.01.04,0,.03.02.05.03.08.02.05.03.1.05.15.24.87.18,1.71.1,2.61-.09.97-.22,1.94-.18,2.91.04,1.03.32,2.04.73,2.99.31.73.75,1.41,1.34,1.94.53.47,1.15.81,1.78,1.12.74.36,1.5.7,2.22,1.1.22.12.43.24.64.37.16.1.31.22.47.33.03.02-.04-.03-.01-.01,0,0,.02.01.03.02.02.01.03.03.05.04.04.03.08.06.12.09.07.06.14.11.21.17.15.12.29.24.44.36.59.51,1.14,1.06,1.67,1.63.56.6,1.09,1.23,1.6,1.87.27.33.53.67.78,1,.03.04.06.08.09.12.02.02.03.04.05.06.02.03-.03-.03,0,0,0,.01.02.03.03.04.07.09.13.17.19.26.13.18.26.35.39.53.52.71,1.02,1.43,1.52,2.16s1.01,1.47,1.52,2.21,1.01,1.47,1.53,2.19,1.05,1.45,1.59,2.16,1.06,1.34,1.62,1.98,1.1,1.22,1.69,1.79,1.19,1.08,1.83,1.56c.6.45,1.24.86,1.91,1.2s1.37.63,2.1.82c.08.02.17.04.25.06.04.01.09.02.13.03.02,0,.04,0,.06.01.01,0,.02,0,.03,0h.06s-.02,0-.03,0c0,0,.28.04.31.04.1.01.21.03.32.02h-.1c.11.01.21.02.32.03.05,0,.09,0,.14,0,.02,0,.04,0,.07,0,.05,0,.05,0,.08,0,.07,0,.16-.05.17-.12.01-.08-.06-.13-.13-.13-.02,0-.03,0-.05,0l.07.02c-.09-.04-.19-.05-.29-.07-.04-.01-.09-.02-.13-.03-.02,0-.04-.01-.06-.02,0,0-.04,0-.02,0,.03,0-.04-.01-.05-.02-.18-.06-.36-.11-.53-.16-.36-.09-.71-.21-1.05-.34-.09-.03-.17-.06-.26-.1-.04-.02-.09-.03-.13-.05-.02,0-.04-.02-.06-.02.06.02,0,0-.02,0-.17-.07-.34-.15-.51-.23-.34-.16-.66-.34-.98-.53s-.64-.4-.95-.62c-.08-.06-.16-.11-.23-.17-.04-.03-.07-.05-.11-.08-.06-.04.03.02-.02-.02-.02-.02-.04-.03-.06-.05-.15-.12-.31-.24-.46-.36-.62-.51-1.21-1.06-1.77-1.64s-1.14-1.24-1.68-1.89c-.28-.33-.55-.67-.81-1.01-.13-.17-.27-.35-.4-.52-.03-.04-.06-.08-.09-.12-.02-.02-.04-.05-.05-.07,0,0-.03-.04,0-.01.02.03-.01-.01-.02-.02-.07-.09-.13-.18-.2-.26-.53-.72-1.05-1.45-1.57-2.18s-1.03-1.49-1.54-2.23-1.01-1.48-1.53-2.21-1.04-1.46-1.58-2.17-1.04-1.35-1.59-1.99-1.07-1.21-1.65-1.78-1.12-1.05-1.73-1.52c-.16-.12-.33-.25-.49-.36-.2-.14-.42-.26-.63-.38-.39-.22-.79-.42-1.2-.62-.68-.32-1.37-.61-2.02-.98-.15-.09-.3-.18-.44-.28-.03-.02-.07-.05-.1-.07-.02-.01-.04-.03-.05-.04.04.04,0,0-.02-.01-.07-.05-.13-.11-.2-.16-.13-.11-.26-.24-.38-.36-.06-.07-.12-.14-.18-.21-.03-.04-.06-.07-.09-.11,0,0-.01-.02-.02-.03,0,0,.03.04,0,0-.02-.02-.03-.05-.05-.07-.25-.35-.45-.72-.62-1.11-.21-.48-.37-.94-.5-1.45s-.19-.99-.21-1.49c0-.22,0-.46,0-.71s.03-.49.05-.74c.08-.94.21-1.88.18-2.83-.02-.43-.08-.87-.21-1.28-.14-.45-.36-.86-.65-1.23-.32-.41-.73-.76-1.16-1.05-.2-.14-.51.16-.27.32h0Z"/>
      <path class="cls-1" d="M124.65,299.39c.28-.14.5-.35.71-.58.18-.2.37-.4.63-.5.19-.08.4-.09.61-.09l-.11-.15c-.41.72-.89,1.41-1.41,2.06-.56.7-1.17,1.37-1.81,2-.67.67-1.38,1.31-2.1,1.92-.77.65-1.56,1.27-2.36,1.88s-1.67,1.23-2.52,1.82-1.72,1.18-2.58,1.76-1.73,1.14-2.59,1.71-1.67,1.1-2.49,1.66-1.57,1.06-2.34,1.62c-.7.51-1.4,1.03-2.07,1.58-.16.13-.31.26-.46.38-.1.08.04.2.13.13.32-.26.66-.51,1-.76.35-.26.71-.52,1.07-.77.76-.54,1.54-1.06,2.31-1.58.82-.55,1.66-1.1,2.49-1.64s1.73-1.13,2.59-1.7,1.75-1.16,2.61-1.76,1.7-1.19,2.54-1.81,1.62-1.23,2.4-1.87,1.49-1.27,2.2-1.95c.66-.63,1.29-1.3,1.88-2,.55-.65,1.05-1.35,1.5-2.08.1-.17.2-.34.3-.52.04-.07-.04-.15-.11-.15-.36,0-.74.1-1.04.32-.23.17-.41.41-.61.61-.12.12-.26.23-.42.31-.13.06-.03.22.09.16h0Z"/>
      <path class="cls-1" d="M105.44,204.94c.93-.42,1.74-1.07,2.31-1.92.54-.81.84-1.74,1-2.69.17-1.02.17-2.07.12-3.11s-.16-2.12-.29-3.18c-.11-.96-.24-1.93-.28-2.9,0-.11-.01-.22-.02-.33,0-.1-.2-.08-.2.01-.03.95.05,1.9.14,2.84.1,1.04.23,2.08.3,3.13s.09,2.06-.03,3.08c-.11.94-.34,1.87-.8,2.71s-1.17,1.52-2.01,1.98c-.12.06-.23.12-.35.18-.15.07-.04.26.1.19h0Z"/>
      <path class="cls-1" d="M108.9,190.41c-.08.25-.17.51-.24.76s-.14.52-.21.79c-.14.52-.27,1.04-.39,1.56-.25,1.05-.48,2.1-.7,3.15s-.42,2.1-.62,3.16-.37,2.13-.55,3.19-.33,2.14-.49,3.21-.3,2.14-.44,3.21-.28,2.15-.4,3.23-.26,2.16-.38,3.24-.24,2.16-.36,3.24-.24,2.15-.35,3.23-.24,2.16-.36,3.24-.24,2.16-.37,3.24-.26,2.15-.39,3.23-.28,2.14-.42,3.2-.3,2.14-.47,3.2-.34,2.13-.52,3.18-.38,2.11-.59,3.16-.43,2.09-.66,3.13-.48,2.08-.74,3.11-.53,2.06-.82,3.09c-.07.24-.13.49-.19.73-.03.12-.06.24-.09.37s-.05.26-.09.38c-.02.07,0,.13.08.15.06.02.16,0,.18-.07.08-.26.19-.51.28-.76s.18-.51.25-.77c.15-.51.3-1.02.44-1.54.29-1.03.55-2.06.79-3.1s.48-2.08.7-3.13.42-2.09.62-3.14.38-2.12.55-3.18.34-2.13.49-3.19.3-2.14.44-3.21.27-2.15.4-3.22.25-2.15.37-3.22.24-2.16.36-3.24.23-2.16.35-3.24.23-2.16.35-3.24.24-2.16.36-3.24.25-2.16.38-3.24.27-2.15.42-3.23.3-2.14.46-3.2.33-2.14.51-3.2.37-2.12.57-3.18.41-2.11.64-3.16.46-2.09.71-3.14c.06-.25.12-.5.18-.75s.11-.51.16-.76c.02-.1-.17-.12-.2-.03h0Z"/>
      <path class="cls-1" d="M103.94,250.36c-.25-.25-.54-.46-.83-.65-.37-.24-.77-.46-1.16-.66-.48-.24-.97-.46-1.46-.65s-1.05-.39-1.58-.55-1.08-.3-1.64-.41-1.08-.18-1.63-.21c-.49-.03-.99-.02-1.48.06-.42.06-.85.19-1.23.4s-.68.48-.91.83-.34.79-.38,1.21c0,.12-.02.27.03.38v-.05s0,0,0,.01c0,.13.22.13.22.01,0-.06.03-.12.04-.18s.02-.12.02-.18c.01-.11.03-.22.06-.33.01-.05.03-.11.04-.16,0,0,0,.02,0,0,0-.01,0-.03.01-.04,0-.02.02-.05.03-.07.03-.09.07-.18.12-.27.02-.04.05-.09.07-.13,0,0,.01-.02.02-.03,0,0,0-.01.01-.02,0,0-.02.03,0,.01.01-.02.03-.04.04-.06.05-.08.11-.15.18-.22.03-.03.06-.07.1-.1.03-.03-.02.02,0,0,0,0,.02-.01.02-.02.02-.02.04-.03.05-.05.07-.06.15-.12.23-.17.04-.03.08-.05.12-.07,0,0,.01,0,.02-.01,0,0-.04.02-.02.01,0,0,.02-.01.03-.02.02-.01.05-.02.07-.04.09-.04.18-.08.27-.12.05-.02.1-.04.15-.05.02,0,.05-.02.07-.02.01,0,.02,0,.03,0,.02,0-.03,0-.03,0,0,0,.02,0,.03,0,.1-.03.2-.05.3-.07.22-.04.44-.08.67-.09.03,0,.05,0,.08,0,.04,0-.04,0,0,0,.02,0,.03,0,.05,0,.06,0,.12,0,.18,0,.12,0,.24,0,.37,0,.25,0,.5.02.76.05.13.01.26.03.39.05.07,0,.13.02.2.03.03,0,.06,0,.09.01,0,0,.06,0,.03,0-.03,0,.02,0,.03,0,.54.09,1.08.22,1.61.36s1.06.32,1.58.51c.13.05.25.1.38.15.06.02.12.05.18.07.03.01.06.02.09.04,0,0,.02,0,.03.01,0,0-.03-.01-.01,0,.02,0,.03.01.05.02.24.1.47.21.71.32.41.2.82.41,1.22.65.17.1.33.21.49.32.04.03.07.05.11.08,0,0,.02.01.02.02.03.02-.02-.02,0,0,.02.01.03.03.05.04.06.05.13.1.19.15.05.05.1.09.15.14.14.14.47-.05.3-.22h0Z"/>
      <path class="cls-1" d="M93.38,249.3s.06-.06,0-.06c-.04,0-.06.06,0,.06h0Z"/>
      <path class="cls-1" d="M95,248.55c1.21-.3,2.45-.55,3.69-.65,1.18-.09,2.39-.01,3.53.31.65.18,1.27.45,1.85.79l.14-.3c-1.55-.19-3.1-.46-4.66-.64s-3.28-.29-4.9-.05c-.88.13-1.74.36-2.54.73-.07.03-.15.15-.06.22.38.3.78.55,1.19.79s.84.45,1.27.63c.9.38,1.85.63,2.81.82s2.02.31,3.04.41,2.03.16,3.04.24c.48.04.96.08,1.44.13s.91.11,1.34.19c.11.02.21.04.32.06.09.02.18,0,.24-.07.05-.06.05-.15,0-.21-.7-.73-1.55-1.32-2.43-1.8s-1.89-.86-2.89-1.14-2.12-.47-3.2-.58c-.54-.05-1.08-.09-1.63-.1s-1.09-.02-1.63,0c-.31.02-.55.03-.86.06-.27.02-.53.04-.8.07-.53.05-1.05.12-1.58.21-.13.02-.25.05-.38.07-.07.01-.13.07-.12.14s.1.1.16.09c.26-.04.52-.06.78-.08s.53-.05.79-.08c.53-.05,1.02-.08,1.55-.1s1.08-.02,1.61-.01,1.08.03,1.62.07c1.07.08,2.08.23,3.12.48.5.12,1,.27,1.49.44s.91.35,1.37.58c.89.44,1.71.98,2.43,1.64.09.08.18.17.27.25l.19-.29c-.92-.15-1.84-.23-2.77-.29-1-.07-2-.12-3-.19s-2.03-.16-3.03-.32-1.93-.37-2.86-.7c-.44-.16-.87-.35-1.28-.58-.2-.11-.4-.24-.59-.37s-.36-.28-.53-.44c-.08-.08-.17-.16-.25-.24l-.06.22c1.44-.6,3.02-.76,4.57-.75,1.63.02,3.24.23,4.85.46.83.12,1.67.25,2.51.33.16.02.32-.2.14-.3-1.08-.6-2.29-.93-3.52-1.03s-2.49.02-3.7.23c-.71.12-1.42.28-2.12.46-.12.03-.09.19.03.16h0Z"/>
      <path class="cls-1" d="M91.77,248.17c1.1-.03,2.21,0,3.31.06s2.23.18,3.33.33,2.23.36,3.33.6,2.22.53,3.31.86,2.18.69,3.26,1.09,2.1.83,3.14,1.31,2.05.99,3.05,1.54,1.96,1.13,2.91,1.74c.47.3.93.62,1.38.94.23.16.45.32.67.49.11.08.22.16.33.25.06.04.11.08.17.12,0,0,.04.03,0,0,.01,0,.03.02.04.03.03.02.06.04.09.07.87.66,1.72,1.37,2.55,2.09.2.17.43.32.62.5.13.13.42-.05.27-.2-.1-.09-.18-.2-.27-.29s-.19-.2-.29-.3c-.19-.19-.39-.37-.59-.55-.41-.37-.83-.72-1.26-1.06-.88-.71-1.79-1.37-2.72-2s-1.9-1.22-2.88-1.78-2.01-1.09-3.04-1.58-2.12-.96-3.21-1.38-2.17-.8-3.27-1.14-2.21-.63-3.33-.89-2.25-.47-3.38-.63-2.24-.29-3.37-.37-2.23-.09-3.34-.07c-.27,0-.53.01-.8.02-.06,0-.12.03-.13.09,0,.06.05.1.1.1h0Z"/>
      <path class="cls-1" d="M112.61,253.79c.21-.05.46-.11.64-.25.07-.05.12-.12.15-.2,0-.03,0-.07,0-.1,0-.01,0-.02,0-.03-.03-.1,0,.01,0-.02,0-.02-.01-.03-.02-.05-.03-.06-.08-.12-.13-.17,0,0-.01-.01-.02-.02,0,0-.04-.03,0,.02-.02-.02-.03-.04-.06-.06-.02-.01-.04-.03-.05-.04-.04-.03-.08-.05-.12-.08-.1-.06-.19-.1-.3-.15-.06-.03-.12-.05-.18-.08-.04-.02-.09-.04-.13-.05h0s.04.01-.02-.01c0,0-.01,0-.02,0-.02,0-.04-.01-.06-.02-.67-.24-1.36-.43-2.05-.6-.79-.2-1.59-.38-2.39-.56-.66-.15-1.33-.28-1.99-.44s-1.31-.35-1.96-.53c-1.36-.37-2.72-.7-4.1-.98s-2.89-.53-4.35-.68-2.87-.21-4.31-.14c-.71.03-1.42.1-2.13.21-.33.05-.67.12-1,.19-.17.04-.33.08-.49.12-.18.05-.32.11-.5.17-.15.05-.3.1-.45.16s-.3.12-.45.18c-.06.02-.1.09-.07.15.03.06.12.07.17.05.15-.05.31-.09.47-.13s.31-.08.46-.11c.16-.04.33-.06.49-.1s.32-.07.47-.1c.66-.13,1.33-.22,2.01-.28.17-.02.34-.03.51-.04.04,0,.08,0,.13,0,.01,0,.07,0,.02,0,.02,0,.03,0,.05,0,.09,0,.19-.01.28-.01.35-.02.7-.03,1.05-.03.71,0,1.42.02,2.13.07s1.44.12,2.15.21,1.4.2,2.1.33c1.38.25,2.74.55,4.1.9.64.16,1.27.33,1.9.51.24.07.48.14.72.2.57.14,1.15.26,1.73.38.77.16,1.55.33,2.32.5s1.48.35,2.21.57c.29.09.57.18.85.28.06.02.12.04.18.07.05.02-.01,0,0,0,.01,0,.03.01.04.02.03.01.05.02.08.03.09.04.17.08.25.13.02.01.04.02.06.03-.06-.03-.02,0-.01,0,0,0,.01.01.02.02.03.02-.03-.02,0,0s.05.04.07.06c.03.03-.01-.03,0,0,.01.02.03.04,0,0,0,0,.02.06.02.05,0-.01-.01-.04,0-.01.01.04-.01-.03,0,0s-.03.02,0,0c0,0-.02.03-.02.03,0,0,.03-.03,0-.01,0,0,0,.01-.01.02,0,0,0,0-.01.01-.02.03.02-.01,0,0-.03.02-.06.04-.09.06-.01,0,.04-.02,0,0,0,0-.02,0-.03.01-.02.01-.04.02-.07.03-.05.02-.1.04-.15.06-.03,0-.06.02-.09.03.04-.01,0,0-.02,0-.02,0-.04.01-.06.02-.06.02-.13.07-.12.14.01.07.1.11.16.09h0Z"/>
      <path class="cls-1" d="M104.92,258.63c.3.07.6.13.9.17.13.02.26.04.39.06,0,0,.06,0,.01,0,.02,0,.03,0,.05,0,.03,0,.05,0,.08.01.06.01.13.02.19.04.1.02.21.05.31.09.02,0,.05.02.07.03-.05-.02.01,0,.03.01.05.02.1.05.14.08.02.01.03.02.05.04-.04-.03.02.02.03.03.04.03.07.07.1.11,0,0,.02.02.02.03.03.03-.02-.03,0,0,.01.02.03.04.04.06.03.05.06.1.08.15,0,.01.04.09.02.05.01.03.02.07.03.11.02.07.03.15.04.22.03.19.04.36.04.54l.14-.16c-.09.03-.18.06-.27.08,0,0-.08.02-.03,0-.02,0-.03,0-.05.01-.05.02-.11.03-.16.04-.18.05-.36.09-.55.13-.38.08-.76.14-1.14.18-.19.02-.38.04-.57.05-.02,0-.05,0-.07,0-.08,0,.05,0-.04,0-.04,0-.08,0-.12,0-.11,0-.22,0-.32.01-.4.01-.79,0-1.19-.01-1.58-.07-3.1-.35-4.61-.83-.4-.13-.8-.27-1.19-.43-.04-.02-.09-.03-.13-.05-.07-.03-.05-.02-.12-.05-.09-.04-.18-.08-.27-.12-.18-.08-.37-.17-.55-.26-.11-.06-.26-.04-.35.06-.08.09-.06.23.05.29,1.25.62,2.49,1.25,3.74,1.87.35.18.71.35,1.06.53l.18-.39c-.73-.08-1.46-.18-2.19-.28-.38-.05-.76-.11-1.13-.17-.19-.03-.38-.06-.57-.09s-.34-.06-.54-.09c-1.49-.25-2.98-.53-4.46-.84-.75-.16-1.51-.33-2.26-.51l-.11.37c.06,0,.12,0,.18.02.02,0,.02,0-.01,0,.01,0,.02,0,.03,0,.02,0,.04,0,.06.01.04,0,.08.02.12.03.19.05.38.11.56.17.05.02.1.04.15.06.02,0,.03.01,0,0,0,0,.02,0,.03.01.02,0,.04.02.07.03.09.04.18.09.27.13.08.04.16.09.24.14.01,0,.03.02.04.03.02.01.02.01,0,0,0,0,.02.01.02.02.03.02.06.05.09.08.07.07.18.08.27.04.07-.03.16-.12.13-.21-.3-.92-.73-1.77-1.34-2.53-.57-.71-1.29-1.3-2.09-1.75-.48-.27-1-.49-1.52-.66-.13-.04-.35.06-.31.22.15.58.19,1.17.28,1.76s.25,1.17.55,1.7c.22.38.51.73.82,1.04.08.08.21.08.29.03.08-.05.15-.15.09-.24-.17-.26-.34-.52-.53-.77s-.38-.5-.57-.75c-.39-.54-.8-1.07-1.18-1.61-.2-.28-.39-.56-.58-.84-.04-.06-.11-.08-.18-.07-.06.01-.14.06-.14.13,0,.54,0,1.08.02,1.63s.08,1.03.16,1.54c.17,1.01.46,2,.88,2.94.25.56.55,1.09.89,1.6.05.08.13.11.22.11.08,0,.19-.05.22-.13.44-1.28.87-2.57,1.3-3.85.11-.32.21-.63.32-.95.03-.1,0-.19-.08-.25s-.23-.05-.31.02c-.47.39-.97.75-1.49,1.07s-1.02.59-1.59.84-1.15.48-1.74.66c-.12.04-.23.07-.39.11s-.31.08-.46.12c-.3.07-.6.14-.91.19-.34.06-.68.11-1.02.15-.19.02-.34.04-.52.05-.17.02-.34.04-.5.04-.08,0-.18.04-.19.13-.01.08.07.15.15.15.32,0,.63.02.95,0s.65-.04.97-.08c.63-.08,1.24-.21,1.85-.38,1.23-.35,2.42-.86,3.51-1.52.6-.36,1.17-.77,1.7-1.21l-.39-.22c-.42,1.29-.85,2.57-1.27,3.86-.1.32-.21.63-.31.95l.44-.03c-.58-.86-1.05-1.8-1.37-2.78s-.49-1.95-.58-2.95c-.06-.59-.1-1.18-.1-1.77l-.32.06c.71,1.07,1.48,2.1,2.18,3.18.18.29.38.56.57.85l.39-.22c-.26-.26-.51-.55-.71-.87-.08-.14-.16-.28-.23-.42-.03-.07-.06-.14-.09-.21-.03-.07-.04-.12-.06-.18-.17-.53-.22-1.09-.29-1.65-.04-.34-.09-.67-.18-1l-.31.22c.45.15.84.32,1.27.54.2.11.39.22.58.35.09.06.19.13.28.19.02.01.04.03.06.04.03.02.02.01,0,0,.01,0,.02.02.03.03.04.03.09.07.13.1.34.27.65.58.93.92.07.09.14.17.21.26,0,0,.02.03,0,.01-.01-.02.01.02.02.02.02.02.03.05.05.07.03.05.07.09.1.14.13.18.24.37.35.57.25.45.47.95.64,1.42l.41-.17c-.29-.29-.71-.45-1.09-.59-.19-.07-.39-.13-.59-.19-.16-.04-.32-.08-.48-.08-.1,0-.22.05-.25.16-.03.1.03.19.13.22,1.38.36,2.78.66,4.18.93,1.53.3,3.06.56,4.6.78.83.12,1.65.23,2.48.32.1.01.22-.05.26-.14.04-.09,0-.2-.08-.24-1.25-.62-2.5-1.25-3.74-1.87-.35-.18-.71-.35-1.06-.53l-.3.35c1.39.69,2.88,1.17,4.39,1.46,1.6.31,3.25.43,4.88.27.88-.08,1.74-.26,2.58-.53.06-.02.14-.09.14-.16,0-.58-.1-1.22-.6-1.58-.4-.29-.92-.34-1.39-.41-.34-.05-.63-.09-.97-.17-.09-.02-.2.01-.24.1-.04.08.02.18.1.2h0Z"/>
      <path class="cls-1" d="M172.59,66.4c.35.18.67.39,1.02.56.32.16.66.25,1.01.25.04,0,.08-.03.08-.07-.04-.62-.13-1.23-.26-1.84s-.32-1.25-.54-1.86c-.23-.64-.49-1.27-.79-1.88-.31-.65-.65-1.28-1.02-1.9-.38-.65-.79-1.28-1.22-1.9s-.91-1.27-1.4-1.89-1.03-1.28-1.56-1.9-1.12-1.27-1.7-1.88-1.2-1.25-1.81-1.86-1.25-1.22-1.89-1.82-1.3-1.2-1.97-1.8-1.33-1.18-2.01-1.75-1.35-1.14-2.03-1.7-1.35-1.1-2.02-1.65-1.33-1.06-2-1.58-1.3-1.01-1.95-1.51-1.25-.96-1.88-1.43c-.59-.45-1.18-.9-1.77-1.34-.55-.42-1.11-.84-1.66-1.26-.51-.38-1.02-.77-1.52-1.15-.23-.17-.45-.34-.68-.52-.03-.02-.08.01-.05.04.48.37.95.75,1.42,1.12.52.41,1.05.81,1.58,1.21.57.44,1.14.87,1.71,1.3.61.46,1.22.93,1.83,1.4.64.49,1.28.98,1.91,1.48s1.31,1.03,1.97,1.54,1.34,1.07,2,1.61,1.36,1.11,2.03,1.68,1.35,1.14,2.01,1.72,1.33,1.18,1.99,1.78,1.29,1.2,1.93,1.81,1.25,1.22,1.86,1.85,1.18,1.23,1.75,1.86,1.1,1.24,1.63,1.88,1.01,1.25,1.49,1.9.9,1.25,1.31,1.9.77,1.25,1.12,1.89.63,1.24.9,1.88.48,1.24.66,1.87c.17.6.31,1.22.4,1.84.04.29.07.59.09.88l.08-.07c-.35,0-.68-.09-.99-.25-.33-.17-.65-.37-.98-.54-.07-.04-.17.06-.09.1h0Z"/>
      <path class="cls-1" d="M146.2,31.16c.72.15,1.42.39,2.09.69s1.35.68,1.98,1.1c.66.44,1.29.93,1.89,1.45s1.22,1.12,1.79,1.72,1.16,1.26,1.7,1.91,1.09,1.35,1.62,2.04,1.04,1.4,1.54,2.11.97,1.39,1.46,2.08.92,1.33,1.38,2c.43.62.87,1.23,1.31,1.84.21.28.42.56.63.84.31.4.63.79.96,1.17.74.89,1.48,1.78,2.23,2.67s1.51,1.77,2.27,2.65,1.53,1.77,2.3,2.65,1.55,1.77,2.32,2.66,1.55,1.77,2.32,2.65,1.54,1.78,2.31,2.67,1.54,1.79,2.3,2.69,1.52,1.81,2.27,2.72,1.5,1.83,2.24,2.76c.36.45.72.89,1.08,1.34.03.04.11,0,.07-.05-.73-.94-1.47-1.88-2.22-2.8s-1.5-1.83-2.26-2.74-1.53-1.82-2.3-2.72-1.54-1.79-2.31-2.68-1.54-1.77-2.32-2.66-1.55-1.77-2.33-2.66-1.54-1.76-2.31-2.64-1.53-1.77-2.29-2.66-1.51-1.77-2.25-2.66c-.37-.44-.74-.89-1.11-1.34-.31-.38-.63-.76-.93-1.15-.44-.58-.87-1.16-1.29-1.76-.46-.64-.9-1.29-1.35-1.94-.48-.69-.95-1.38-1.43-2.06s-.99-1.41-1.5-2.1-1.04-1.39-1.57-2.07-1.09-1.34-1.67-1.99-1.14-1.24-1.75-1.81-1.2-1.09-1.85-1.58c-.61-.46-1.26-.89-1.93-1.26s-1.33-.66-2.03-.89c-.34-.11-.68-.2-1.03-.28-.05-.01-.09.06-.03.07h0Z"/>
      <path class="cls-1" d="M177.09,69.55c0-.52-.04-1.04-.12-1.56-.08-.54-.21-1.07-.36-1.6-.16-.56-.36-1.11-.58-1.64-.23-.57-.49-1.12-.77-1.67-.3-.58-.62-1.15-.95-1.7s-.72-1.15-1.11-1.71-.82-1.16-1.25-1.72-.9-1.15-1.36-1.72-.97-1.15-1.46-1.71-1.02-1.14-1.54-1.7-1.05-1.11-1.59-1.66-1.09-1.09-1.64-1.63-1.09-1.06-1.64-1.58-1.1-1.03-1.65-1.54-1.08-.98-1.62-1.47-1.05-.94-1.58-1.41-1-.89-1.51-1.33c-.48-.42-.96-.83-1.43-1.25-.44-.38-.88-.76-1.32-1.15-.4-.35-.8-.7-1.21-1.05-.18-.16-.36-.31-.53-.47-.04-.04-.14.02-.09.06.37.33.75.67,1.12,1,.42.37.84.73,1.26,1.1.46.4.92.8,1.37,1.2.49.43.98.86,1.47,1.29.52.45,1.03.91,1.54,1.37s1.07.96,1.6,1.44,1.09,1,1.63,1.5,1.1,1.03,1.65,1.56,1.1,1.06,1.64,1.61,1.08,1.09,1.61,1.64,1.05,1.11,1.57,1.67,1.01,1.12,1.5,1.7.95,1.13,1.41,1.71.89,1.14,1.31,1.72.8,1.13,1.18,1.71.71,1.12,1.03,1.7c.31.55.6,1.11.86,1.68s.48,1.09.68,1.66c.19.53.35,1.07.47,1.62.12.52.2,1.04.25,1.57.02.25.03.5.03.75,0,.07.12.07.12,0h0Z"/>
      <path class="cls-1" d="M180.16,44.43c.64.48,1.21,1.05,1.73,1.67.57.67,1.06,1.4,1.52,2.15.5.83.94,1.69,1.35,2.57.43.93.81,1.88,1.17,2.84s.7,2.02,1.02,3.04.61,2.07.88,3.11.52,2.08.76,3.12.45,1.98.66,2.98c.2.92.38,1.85.57,2.77.17.82.33,1.63.51,2.45.08.37.15.74.25,1.1.11.4.22.8.33,1.2.26.9.53,1.8.8,2.7.3,1,.61,2,.91,3.01.32,1.07.64,2.15.94,3.23s.61,2.24.89,3.37.54,2.27.76,3.42.41,2.25.55,3.38.23,2.17.26,3.26c.03,1.01,0,2.03-.1,3.03-.09.93-.26,1.86-.51,2.75-.12.4-.24.81-.41,1.2-.04.08.11.11.14.04.18-.41.36-.81.5-1.23s.27-.89.37-1.35c.21-.96.31-1.94.34-2.92.03-1.06,0-2.13-.09-3.19-.09-1.12-.24-2.23-.42-3.34s-.42-2.29-.67-3.42-.54-2.28-.84-3.41-.61-2.21-.93-3.32-.62-2.09-.94-3.13c-.29-.95-.58-1.91-.87-2.86-.25-.83-.49-1.67-.72-2.51-.1-.36-.17-.73-.25-1.1-.08-.39-.17-.79-.25-1.19-.18-.88-.36-1.76-.55-2.64-.2-.97-.41-1.94-.62-2.91-.23-1.03-.47-2.05-.72-3.07s-.53-2.1-.83-3.14-.61-2.07-.96-3.1-.7-1.99-1.11-2.97c-.38-.92-.8-1.83-1.27-2.71-.43-.82-.91-1.61-1.45-2.37-.49-.69-1.04-1.35-1.65-1.93-.28-.26-.57-.51-.88-.74-.12-.09-.3.09-.16.19h0Z"/>
      <path class="cls-1" d="M193.86,101.21c.33-.13.64-.29.94-.46s.57-.36.82-.58.5-.45.72-.7.42-.52.6-.8.35-.59.49-.9.28-.65.39-.99c.12-.36.21-.72.29-1.09s.15-.77.2-1.16c.05-.41.09-.82.11-1.23.02-.43.03-.87.03-1.3,0-.46-.02-.92-.05-1.38s-.08-.95-.13-1.43-.12-.99-.2-1.48-.17-1.02-.27-1.53-.21-1.05-.33-1.57-.25-1.07-.38-1.6-.28-1.09-.44-1.63-.32-1.1-.48-1.65-.35-1.12-.53-1.67-.37-1.12-.57-1.68-.4-1.14-.61-1.7-.42-1.13-.63-1.69-.43-1.12-.65-1.68-.45-1.12-.67-1.67-.46-1.1-.69-1.65-.46-1.09-.7-1.63-.47-1.07-.71-1.6-.47-1.04-.71-1.57-.47-1.02-.71-1.53-.46-.99-.7-1.48-.46-.95-.69-1.42-.45-.91-.68-1.37-.44-.87-.66-1.3-.42-.82-.63-1.23c-.2-.39-.4-.77-.6-1.15-.19-.36-.38-.72-.57-1.07-.18-.33-.35-.66-.53-.99-.16-.3-.32-.6-.49-.89-.15-.27-.29-.53-.44-.79-.13-.23-.26-.46-.38-.69-.1-.19-.21-.37-.32-.56-.05-.08-.21-.02-.16.07.11.19.21.39.32.58.13.23.25.46.38.7.14.27.28.53.43.8.16.3.32.6.47.9.17.33.34.66.52.99.19.36.37.72.56,1.08.2.39.39.77.59,1.16.21.41.41.82.62,1.23.22.43.43.87.65,1.31s.45.91.67,1.36.46.95.69,1.43.47.98.7,1.47.47,1.02.71,1.52.47,1.04.71,1.56.47,1.06.71,1.59.47,1.08.7,1.63.46,1.09.69,1.64.45,1.11.68,1.67.44,1.11.65,1.67.42,1.12.63,1.68.4,1.12.6,1.68.38,1.11.56,1.67.36,1.11.53,1.67.33,1.09.49,1.64.3,1.08.44,1.63.27,1.06.39,1.59.23,1.04.33,1.57.19,1.01.27,1.52.15.98.21,1.47.1.95.14,1.43.05.91.06,1.36c0,.43,0,.86-.01,1.29s-.05.82-.1,1.23c-.05.39-.11.77-.19,1.16-.07.36-.16.72-.28,1.07s-.23.67-.38.99-.3.61-.48.9-.37.54-.58.79-.44.48-.69.7-.52.41-.81.59-.59.33-.9.46c-.05.02-.01.08.03.06h0Z"/>
      <path class="cls-1" d="M183.36,50.4c.84.99,1.59,2.06,2.25,3.17s1.27,2.3,1.81,3.5,1.05,2.46,1.53,3.71.95,2.54,1.41,3.82.94,2.53,1.45,3.78c.25.62.51,1.23.79,1.84s.54,1.23.82,1.84c.58,1.29,1.19,2.56,1.8,3.83s1.24,2.62,1.8,3.95,1.05,2.63,1.44,3.99.63,2.63.79,3.98c.04.31.08.63.08.95,0,.06.04.11.11.11.05,0,.14-.03.14-.1,0-.34.02-.67,0-1.01s-.04-.66-.07-1c-.08-.68-.2-1.35-.36-2.01-.33-1.38-.8-2.72-1.32-4.04s-1.14-2.67-1.76-3.99-1.25-2.59-1.87-3.88c-.29-.62-.58-1.24-.86-1.86s-.55-1.21-.82-1.82c-.54-1.24-1.03-2.5-1.51-3.77s-.95-2.54-1.43-3.81-.98-2.51-1.52-3.75-1.11-2.42-1.77-3.57-1.36-2.23-2.17-3.26c-.2-.25-.4-.49-.6-.73-.07-.09-.25.02-.17.12h0Z"/>
      <path class="cls-1" d="M195.82,97.18c.19.39.3.81.45,1.21.17.45.41.85.75,1.2.02.02.06.01.07-.02.11-1.01.15-2.03.16-3.04s-.04-2.07-.12-3.11-.21-2.14-.38-3.2-.38-2.17-.62-3.24-.53-2.19-.84-3.28-.67-2.21-1.04-3.3-.79-2.22-1.23-3.32-.91-2.22-1.4-3.31-1.02-2.21-1.56-3.3-1.1-2.18-1.68-3.26-1.18-2.15-1.8-3.21-1.25-2.11-1.9-3.15-1.3-2.06-1.98-3.07-1.35-2-2.05-2.99-1.38-1.93-2.1-2.88-1.4-1.84-2.11-2.75-1.41-1.75-2.13-2.62-1.4-1.65-2.12-2.46-1.39-1.54-2.1-2.3-1.36-1.43-2.06-2.13c-.32-.32-.65-.64-.97-.96-.04-.04-.12.01-.08.06.69.67,1.36,1.35,2.02,2.03.7.73,1.39,1.47,2.07,2.22.71.79,1.41,1.59,2.1,2.39s1.43,1.69,2.12,2.55,1.42,1.78,2.12,2.68,1.42,1.87,2.11,2.82,1.39,1.94,2.06,2.92,1.36,2.01,2.01,3.03,1.31,2.06,1.94,3.11,1.25,2.11,1.85,3.18,1.18,2.15,1.74,3.24,1.1,2.17,1.62,3.28,1,2.18,1.47,3.29.9,2.2,1.32,3.31.79,2.2,1.14,3.31.66,2.19.95,3.29.52,2.17.73,3.26.37,2.14.5,3.21.21,2.1.25,3.15.04,2.06,0,3.09c-.02.48-.06.97-.1,1.45l.07-.02c-.34-.34-.58-.75-.75-1.2-.15-.4-.26-.81-.45-1.19-.01-.03-.07,0-.06.02h0Z"/>
      <path class="cls-1" d="M185.39,69.59c.27.28.48.6.71.91.18.25.39.48.68.6.21.08.43.11.65.11.03,0,.06-.02.06-.05.29-.95.42-1.94.39-2.93s-.2-1.97-.48-2.92-.66-1.92-1.1-2.84-.96-1.86-1.49-2.75-1.08-1.75-1.63-2.61c-.27-.43-.54-.86-.8-1.29s-.54-.89-.81-1.33c-.54-.87-1.1-1.74-1.67-2.6s-1.15-1.69-1.74-2.52-1.18-1.64-1.8-2.44-1.23-1.59-1.86-2.38-1.27-1.56-1.93-2.33-1.31-1.52-1.98-2.27-1.35-1.49-2.04-2.22-1.39-1.46-2.09-2.17-1.42-1.43-2.14-2.13-1.45-1.4-2.18-2.08-1.48-1.38-2.23-2.06-1.51-1.36-2.27-2.03-1.54-1.34-2.31-2.01-1.56-1.33-2.35-1.99c-.38-.32-.76-.64-1.15-.95-.03-.02-.09.01-.06.04.79.66,1.57,1.32,2.35,1.98s1.55,1.33,2.31,2,1.53,1.34,2.29,2.02,1.5,1.35,2.24,2.04,1.47,1.37,2.2,2.07,1.44,1.39,2.15,2.1,1.41,1.42,2.11,2.14,1.38,1.45,2.06,2.18,1.35,1.48,2,2.23,1.31,1.52,1.96,2.3,1.27,1.55,1.89,2.34,1.24,1.6,1.84,2.42,1.19,1.64,1.76,2.48,1.15,1.69,1.7,2.55,1.1,1.74,1.63,2.62c.26.44.53.87.8,1.29s.55.85.82,1.28c.56.88,1.1,1.78,1.6,2.69s.95,1.83,1.33,2.79.66,1.9.83,2.89.2,1.96.07,2.94c-.06.49-.17.97-.31,1.44l.06-.03c-.35,0-.69-.08-.96-.32-.23-.22-.39-.5-.58-.76-.13-.18-.27-.35-.42-.51-.05-.05-.15.02-.1.07h0Z"/>
      <path class="cls-1" d="M175.37,44.36c.91,1.2,1.82,2.46,3.02,3.39.32.24.65.46,1.01.64.05.02.15-.01.11-.08-.54-.93-1.1-1.84-1.69-2.74s-1.23-1.81-1.88-2.68-1.36-1.77-2.07-2.63-1.47-1.73-2.24-2.57-1.58-1.69-2.39-2.5-1.67-1.64-2.54-2.43-1.76-1.59-2.66-2.36-1.84-1.54-2.78-2.28-1.91-1.48-2.88-2.2-1.96-1.42-2.96-2.11-2.02-1.36-3.05-2.02-2.05-1.29-3.09-1.91-2.08-1.22-3.14-1.81-2.1-1.15-3.17-1.7-2.12-1.08-3.19-1.59-2.12-1-3.2-1.48-2.11-.92-3.17-1.35-2.1-.84-3.16-1.23-2.07-.74-3.11-1.09-2.03-.65-3.06-.95c-.48-.14-.97-.27-1.46-.41-.05-.01-.1.06-.04.08,1.01.28,2.02.59,3.02.9s2.06.67,3.08,1.04,2.09.76,3.13,1.17,2.11.84,3.16,1.29,2.13.93,3.18,1.42,2.12,1.01,3.18,1.53,2.13,1.09,3.18,1.65,2.11,1.16,3.15,1.76,2.09,1.23,3.12,1.87,2.05,1.29,3.07,1.97,2,1.35,2.99,2.05,1.96,1.41,2.92,2.15,1.9,1.48,2.83,2.24,1.83,1.53,2.72,2.32,1.75,1.58,2.6,2.4,1.66,1.63,2.47,2.47,1.56,1.67,2.31,2.53,1.46,1.71,2.15,2.6,1.34,1.75,1.97,2.65,1.22,1.79,1.79,2.71c.27.44.53.88.79,1.33l.11-.08c-1.31-.66-2.3-1.8-3.18-2.93-.27-.35-.53-.7-.8-1.05-.05-.06-.19,0-.14.06h0Z"/>
    </g>
  </g>
</svg>