<?xml version="1.0" encoding="UTF-8"?>
<svg id="Capa_2" data-name="Capa 2" xmlns="http://www.w3.org/2000/svg" viewBox="0 0 321.81 370.62">
  <defs>
    <style>
      .cls-1 {
        fill: #fbfbfb;
        fill-rule: evenodd;
      }
    </style>
  </defs>
  <g id="Capa_1-2" data-name="Capa 1">
    <g>
      <path class="cls-1" d="M50.47,16.69c-1.29,9.34-4.45,18.09-4.02,30.42-5.89,1.14-10.74-1.95-16.46-2.22-.02-11.63,4.55-20.22,5.49-29.68.2-.53.57-.9,1.1-1.11,4.41,1.09,8.89,2.11,13.9,2.6ZM32.18,43.4c5.33-.8,8.59,2.38,12.43,1.85-.63-10.78,1.4-18.86,3.66-26.71-4.34-.17-8.17-.86-11.34-2.22-.15,9.04-4.55,16.87-4.75,27.08Z"/>
      <path class="cls-1" d="M68.75,22.63c.73,9.28-1.31,18.94-2.93,27.08-3.42-.68-9.98-1.2-14.99-1.48,1.16-9.46,3.59-17.63,4.39-27.45,4.55-2.08,8.67,1.87,13.53,1.85ZM53.39,46.37c3.69-.8,7.38.02,10.61.74,1.2-7.19,2.84-13.94,2.56-22.63-3.97.19-5.73-1.85-9.51-1.86-.44,7.36-2.46,15.96-3.66,23.75Z"/>
      <path class="cls-1" d="M90.69,55.65c-6.6.86-11.41-3.25-18.65-2.97.22-9.57,4.12-18.56,5.12-28.57,2.59-1.07,4.66,1.41,6.95,1.85,3.81.75,8.03-1.11,9.87,2.23.34,9.13-3.95,16.76-3.29,27.45ZM74.24,50.45c5.42.31,9.44,2.05,14.26,2.97-.85-10.02,2.76-15.5,3.29-24.11-3.91-1.23-9.84-.41-12.8-2.6-.78,8.73-3.1,15.9-4.76,23.74Z"/>
      <path class="cls-1" d="M115.56,31.16c-.25,8.43-2.39,18.09-3.29,27.08-5.35,1.12-10.33-1.31-15.36-.75.46-9.19,4.45-17.99,5.12-28.19,4.15-.02,10.11.03,13.53,1.85ZM103.86,32.28c-.67,8.47-2.37,15.9-4.75,22.63,4.65-.64,6.68,1.38,10.97,1.11.6-8.04,2.06-15.22,2.93-23-2.88-.42-5.61-.99-9.14-.74Z"/>
      <path class="cls-1" d="M130.19,99.42c1.85,2.42-1.4,7.58-3.29,7.42.86-2.71,2.01-5.13,3.29-7.42Z"/>
      <path class="cls-1" d="M101.66,100.16c-.07,3.89-2.9,6.6-4.39,9.65-1.51,3.09-1.58,7-4.39,9.28.18-7.38,4.83-13.06,7.68-18.92h1.09Z"/>
      <path class="cls-1" d="M193.82,248.93h1.1c-.69,6.44-.38,14.27,0,20.77-2.01-5.02-1.72-14.31-1.1-20.77Z"/>
      <path class="cls-1" d="M313.77,267.11c-1.95,5.63-6.55,9.83-10.24,14.1-11.08,12.79-23.25,24.96-34.38,38.21-14.77,17.6-29.91,34.66-45.71,51.2,28.28-35.98,59.87-68.61,89.23-103.51h1.1Z"/>
      <path class="cls-1" d="M76.07,270.08c-4.28,4.69-8.92,9-15.36,11.5,4-4.97,9.55-8.37,15.36-11.5Z"/>
      <path class="cls-1" d="M68.75,270.82c-1.78,1.91-3.18,4.19-6.22,4.83.84-2.66,4-4.79,6.22-4.83Z"/>
      <path class="cls-1" d="M78.99,272.31c-1.66,3.18-5.16,5.15-8.04,7.42-2.6,2.04-5.58,5.42-9.14,5.2,5.09-4.86,10.38-9.51,17.19-12.62Z"/>
      <path class="cls-1" d="M85.21,274.9c-6.61,8.51-16.28,13.9-25.96,19.29,6.79-7.94,17.64-12.12,24.87-19.66.59-.1.63.35,1.1.37Z"/>
      <path class="cls-1" d="M284.15,277.13c.59-.1.63.35,1.1.37-.7,4.54-4.57,7.26-7.31,10.39-18.71,21.35-35.76,45.62-57.05,64.92,15.66-18,31.3-36.96,47.54-56.02,2.37-2.78,5.25-6.11,8.05-9.28,3.03-3.42,6.22-6.86,7.68-10.39Z"/>
      <path class="cls-1" d="M84.48,280.47c.38,2.72-2.65,4.23-4.39,5.57-5.7,4.36-12.15,9.79-19.75,12.24,7.72-6.26,15.87-12.1,24.14-17.81Z"/>
      <path class="cls-1" d="M75.33,303.47c3.32-1.08,3.91-4.93,5.85-7.42,1.4.68,1.2,2.99,2.2,4.08-2.69,2.15-4.74,5.19-6.59,8.91-.87,1.76-.95,5.07-3.66,5.19-1.35-1.92.75-4.95,1.46-7.05-3.44.59-2.96,8.37-7.68,8.9-.16-.33-.32-.66-.73-.74-.15-2.25,1.29-2.9,1.83-4.46-4.05-1.14-2.87,6.24-6.95,6.31-1.34-4.71,3.49-9.23,5.12-13.36-5.91,1.3-4.66,13.09-10.61,15.58-1.34-5.84,4.63-8.96,3.66-14.47,2.59-.71,2.85-3.79,4.39-5.57,1.57-.49,1.16,1.05,1.83,1.49,2.16-.65,3.81-1.82,4.02-4.46,6.35.84,9.33-6.15,13.9-7.05.18,2.71-3.67,4.41-5.49,6.31-.36,3.1-1.61,5.3-2.56,7.79ZM68.02,307.92c3.07-1.59,5.11-6.19,5.48-9.28-2.79,1.87-5.02,6.28-5.48,9.28Z"/>
      <path class="cls-1" d="M57.78,303.1c.85,3.82-2.41,7.08-4.02,10.02-1.62,2.95-2.68,7.27-6.22,8.16.51-6.79,6.53-11.18,8.41-17.81.09-.4.73-.25.73-.74.59-.1.63.35,1.1.37Z"/>
      <path class="cls-1" d="M50.1,305.32c.3.19.59.38,1.1.37-.34,3.59-2.38,7.16-4.02,10.01-1.55,2.71-3.33,6.34-6.22,6.68,2.16-6.59,6.32-11.15,9.14-17.06Z"/>
      <path class="cls-1" d="M43.89,305.69c.59-.11.63.35,1.1.37.42,3.08-1.71,6.34-3.29,8.9-1.43,2.32-3.11,6.01-6.22,6.31,1.95-6.06,6.32-9.66,8.41-15.58Z"/>
      <path class="cls-1" d="M36.21,307.54c.59-.1.63.36,1.1.37-1.66,3.63-2.58,8.02-6.58,9.28.81-4.25,3.6-6.49,5.49-9.65Z"/>
      <path class="cls-1" d="M30.72,309.77c.59-.1.63.36,1.1.38-.65,3.39-2.27,7.46-5.12,7.42.62-3.32,2.77-5.1,4.02-7.79Z"/>
      <path class="cls-1" d="M24.87,310.15c-.33,3.37-1.8,5.59-4.02,7.05-1.02-2.08,1.57-6.1,4.02-7.05Z"/>
      <path class="cls-1" d="M197.11,319.05c.59-.1.63.35,1.1.37-2.6,6.02-5.6,11.63-9.87,15.95,1.44-5.46,6.05-10.92,8.77-16.32Z"/>
      <path class="cls-1" d="M218.69,320.9c.59-.1.63.35,1.1.37-2.58,4.96-6.49,9.55-9.87,14.1-3.42,4.6-6.66,9.54-10.97,12.24,6.58-8.9,13.07-17.9,19.75-26.71Z"/>
      <path class="cls-1" d="M146.65,146.91c-20.28,11.84-49.95,18.41-75.7,27.45-3.1,1.09-8.59,4.15-10.97,3.71-2.88-.54-8.56-10.29-10.61-12.61-4.13-4.7-6.78-8.72-10.97-12.25-.31-1.18.32-1.4.73-1.85-4.3.83-7.2,3.08-10.97,4.45-3.02-5.84-4.03-13.72-7.31-19.29-1.71.24-4.38,1.56-6.22.74-2.85-1.26-4.75-9.59-5.85-12.99-1.76-5.39-2.71-10.49-3.66-14.84C2.54,97.59-.08,87.77,0,77.91c1.84-1.35,5.22-1.13,8.41-1.11-1.19-10.05-1.77-25.89-1.46-37.47,2.73-2.87,10.11-1,14.63-1.11,3.18-12.48,4.01-27.34,8.78-38.21,12.63,3.39,25.44,3.2,38.03,6.31,11.8,2.91,24.18,6.85,36.57,7.42,17.5.8,32.51,4.57,47.17,8.53,1.84,8.37-.9,17.99-1.46,26.34,5.59,2.89,12.27,4.52,16.09,9.65,2.31,3.1,4,8.64,6.22,13.73,4.39,10.08,9.76,21.69,8.05,37.1,3.72,15.5-8.51,27.32-26.33,24.86-.25,2.05,3.81,4.27,3.29,7.05-.43,2.3-4.86,2.85-6.95,4.08-2.6,1.54-4.83,4.38-7.68,6.67-17.64,14.23-35.15,33.53-51.2,48.23-.44.52-.14.04,0-.37,17.02-18.72,33.89-37.59,54.49-52.68ZM103.49,17.43c-5.71-.3-11.43-1.9-17.55-3.34-5.61-1.32-11.61-2.27-17.19-3.71-12.74-3.3-26.02-3.06-36.2-6.31-4.06,15.91-7.2,32.76-8.78,51.2,9.57,2.28,19.03,3.5,28.89,4.45,4.35.42,8.92,2.39,13.53,3.34,4.97,1.03,10.09,1.19,14.63,2.23,19.11,4.39,39.79,3.63,61.07,5.94.73-3.09,1.29-6.36,4.39-7.05.43-4.26.5-8.89.73-13.36h-7.68c-1.69,2.09-5.17,5.79-9.14,4.45-2.6-.88-3.47-8.2-1.1-10.76,1.51-1.63,5.74-1.91,7.68-1.11,2.06.85,1.7,2.63,3.66,4.82h6.95c.63-7.64,2.42-14.11,1.83-23-14.8-3.86-28.69-6.9-45.71-7.79ZM15.36,96.83c11.78-1.66,23.76-.77,35.84-1.48,3.5-.2,7.04-1.23,10.6-1.48,7.87-.57,19.9.97,26.33,1.85,4.57.63,10.27-.62,15.36-.37,12.38.61,22.92.02,34.74-1.48-.16-7.13-1.81-12.76-2.56-19.29-1.47.26-2.09-.35-3.29-.37-3.24,3.02-4.3,8.26-8.41,10.39-.5-4.37,4.05-6.75,5.12-10.76-2.97,0-4.14,3.6-5.49,5.93-1.37,2.38-1.93,5.98-4.39,6.31-.58-5.07,4.14-7.9,5.48-12.24h-4.39c-.12,3.03-2.18,5.76-3.66,8.16-1.32,2.15-2.61,6.03-5.49,5.56,1.31-5.85,5.92-8.34,7.32-14.1-1.38.28-1.75-.46-2.93-.37-3.59,3.78-4.66,10.11-9.51,12.61-.54-.07-.34-.9-.37-1.48-5.18,1.39-14.81-.42-17.92,1.11,1.79-4.12,2.72-7.28,1.1-12.61-3.33,2.81-3.58,8.74-8.05,10.39,1.24-5.17,4.79-8,6.58-12.61-4.38-.62-7.92-2.1-12.43-2.6v4.82c1.91-.28.94-3.5,2.93-3.71,2.22,3.2-1.82,5.6-2.56,8.9-.41,1.84.81,3.89-.73,5.57-3.79-.03-11.53-1.21-15.72,1.11-1.68-2.63-.91-7.73-1.83-11.13-1.37,2.32-1.33,6.07-4.75,6.3.98-5.93,5.38-8.39,5.49-15.21-2.79-.64-5.8-1.04-9.14-1.11-2.82,5.09-3.77,11.29-2.92,19.29-3.32,2.01-10.18,2.2-14.99,1.48-1.88-7-2.33-15.45-2.19-24.49-2.32-.99-6.39-.19-8.05-1.86-1.1-4.29.65-11.55,1.1-16.69h-11.7c.23,20.17,1.7,39.08,5.49,55.65ZM133.85,50.82c1.64-.19,2.52-1.15,2.19-3.34-2.26-.55-3.24,1.72-2.19,3.34ZM77.9,97.94c-4.5.36-7.41-.9-11.7-.74,0,2.85.68,4.31,2.19,4.82-.9,3.36-.38,5.91-.37,10.02-.59,1.38-3.05.86-4.39,1.48-3.2,1.95-3.21,7.13-6.95,8.53.25-3.58,2.65-4.98,3.66-7.79-1.67,1.23-4.12.93-5.48.74-1.31,2.76-2.11,6.02-4.39,7.79-.53-6.72,6.97-12.1,2.56-19.66-2.38,5.75-4.07,12.2-8.78,15.58,1.3-6.37,6.25-12.2,7.31-20.03h-11.34c-.06,1.66.04,3.18.73,4.08.5-1.47.5-3.45,2.56-3.34.8,3.31-2.12,5.7-2.19,8.9-.07,3.22,2.75,5.28,2.56,8.91-4.65,1.89-9.48,1.66-13.9,3.34-2.75-2.53-2.76-7.83-4.39-11.5-1.56,1.88-1.31,5.6-4.39,5.93,1.26-5.44,4.7-9.02,2.93-15.58-3.87-.22-7.88,1.7-10.97,0-2.46-5.54-2.95-13.09-4.02-20.03-2.49.07-5.45-.33-6.95.74,3.7,19,6.6,38.81,13.53,54.53,30.06-6.11,62.17-12.03,95.08-14.47,7.85-.58,16.94-5.46,26.7-4.45-.98-5.83-5.39-12.05-4.02-17.81,2.69-.06,1.71,2.21,3.66.37,3.08,2.33,4.11,6.63,5.85,10.76,1.95,4.62,5.23,9.6,5.12,15.58.89,1.07,1.86,2.07,2.56,3.34,1.16-.51,3.23-.51,4.39,0,.52-.95.86-2.1,2.19-2.22,9.02-.13,14.59-3.74,18.28-9.28.7-.04-.43-1.24,0-2.22,1.06-1.86,1.99-3.58,2.19-5.94,1.06-12.26-1.84-19.89-5.49-29.68-1.95-5.24-5.39-14.43-8.05-18.18-2.94-4.15-9.05-6.49-13.9-8.16-1.17,5.48.39,13.75-3.66,16.32-1.21,1.5-.53,4.9-2.19,5.94-1.09.75-3.45.21-5.12.37-.08,7.56,3.77,14.89,1.46,22.26-6.52-.93-9.4,1.83-15.36,1.48-2.18,4.47-2.77,10.54-6.22,13.73.03-5.53,3.69-9.37,3.66-13.73-.05.82-1.55.16-2.19.37-1.6,3.07-3.17,6.18-2.56,11.5-1.88.69-3.04,2.11-4.39,3.34-.72-.51-.23-2.24-1.46-2.23-1.66.42-2.77,1.39-5.12,1.11-.58,1.76-1.16,3.52-3.29,3.71-.65-2.46,1.62-3.69,1.83-5.93.36-3.82-2.24-7.9-2.56-11.87-3.13-.21-5.61.25-8.41.37-1.99,3.95.26,10.08-2.56,13.35h-2.93c-1.58,2.23-1.58,6.06-4.75,6.68.17-2.79,1.79-4.12,2.56-6.31-2.09,1.31-4.46.79-5.85.37-1.92,3.62-3.3,7.78-6.95,9.64,1.42-4.99,4.86-7.94,6.58-12.61-1.56-1.88-.97-5.94-2.56-7.79-3.28,7.18-7.44,15.45-13.16,18.92,4.09-7.97,10.54-13.54,12.8-23.37ZM32.55,82.36c4.1.08,7.78-.27,10.97-1.11-1.1-6.53-.31-10.59-.36-18.18-4.39-.37-8.85-2.64-12.8-2.22.63,7.27.58,15.24,2.19,21.51ZM60.71,80.88c1.95-5.2,5.6-8.66,8.04-13.36-2.63-.55-5.43-.93-7.68-1.85-1.6,3.18-1.63,11.55-.36,15.21ZM70.95,67.52c-2.32,4.69-5.32,8.7-8.05,12.99h8.05c3.01-2.35,1.08-8.74,1.83-12.61-1.03.31-.95-.52-1.83-.37ZM92.52,76.79c1.25-1.7,2.66-3.24,3.29-5.56-1.82.11-3.36-.06-4.75-.37.33,2.14.57,4.37,1.46,5.94ZM92.52,81.99c1.78.81,3.89-.9,6.58-.37,1.97-2.82,2.26-7.36,4.75-9.65-2.56.12-5.9-.94-7.68-.37,2.33,4.19-3.6,6.17-3.66,10.39ZM106.05,83.47c1.98-3.8,4.64-6.91,6.58-10.76-2.59.28-4.18-.46-6.58-.37.16,3.63-1.08,7.81,0,11.13ZM100.93,81.99c.9.05,1.76.06,2.19-.37-.03-1.21-.19-2.28-.73-2.97-.23,1.37-1.03,2.17-1.46,3.34ZM54.12,98.31c1.1,2.47,1.55,5.6,2.56,8.16,1.88-2.42,1.86-6.77,5.12-7.79-.24,4.64-4.48,8.27-4.75,14.1,1.9-.42,3.03-1.62,5.48-1.48,3.48-3.34,2.26-9.02,1.1-14.1-3.64-.1-6.08,1.01-9.51,1.11ZM82.65,106.84c.88-2.07,1.28-4.64,2.92-5.93,2.39,3.28-3.99,6.96-1.46,10.39,1.1-.99,2.87-1.3,4.76-1.48,1.48-2.58,2.25-5.88,1.83-10.39-3.61-.17-7.22-2.32-10.97-1.11,1.9,1.91,1.09,6.56,2.93,8.53ZM108.98,110.18c1.25-.83,2.97-1.19,5.12-1.11,1.87-2.83.57-6.34,0-9.65.52-.09.62-.61,1.1-.74,1.61.1,1.39,2.05,2.19,2.97.05-1.31,1.05-1.66,1.1-2.97-4.44-1.07-8.27.43-12.8.37.84,2.37,1.01,5.41,2.2,7.42,1.44-2.24,1.25-6.15,3.66-7.42,1.97,3.67-2.73,8.14-2.56,11.13ZM27.43,99.42c-.6,5.68.22,10.19,2.2,14.1,1.66-3.51,1.72-8.64,3.66-11.87,3.41,5.36-2.57,12.01-2.56,16.32,1.88-.19,2.93-1.23,4.75-1.48,2.48-4.97,4.34-10.96,2.19-17.81-3.6.06-6.49.83-10.24.74ZM141.53,116.49c.53-.2,1.89.44,1.83-.37-2.75-5.12-3.76-12.01-7.31-16.32,1.77,5.63,2.95,11.85,5.49,16.69ZM38.03,116.49c1.03-.31,2.26-.43,3.29-.74-.51-1.34-1.23-2.46-1.83-3.71-.29,1.68-1.46,2.48-1.46,4.45ZM125.44,122.42c-6.29.71-9.67,1.91-14.99,2.97-4.01.79-7.94,1.57-11.7,2.59-19.18,5.21-40.13,7.89-58.15,13.36-3.29,1-6.68,3.35-10.24,2.6,4.47-4.21,11.27-5.33,17.55-7.05,19.09-5.22,41.33-8.24,59.97-13.73-30.35,1.98-56.24,8.49-84.48,12.61,2.08,5.31,4.25,10.53,5.85,16.32,34.8-11.18,70.77-21.2,107.88-30.05,1.01.09.39,1.83,1.1,2.22,2.65-.9,5.47-1.62,7.31-3.34-6.37-4.22-13.28.72-20.11,1.48ZM115.2,139.49c3.47.04,9.75-3.45,15.36-3.71-11.38,6.41-25.08,9.75-38.03,14.1-13.03,4.38-25.71,9.36-36.94,15.21-2.69-2.65,1.48-3.89,3.29-5.19-1.1.37-.65-.83-.73-1.49,24.32-13.67,56.05-19.81,81.92-31.9-36.9,4.24-62.96,19.48-96.18,27.45,4.68,7.86,11.26,13.8,16.82,20.77,32.14-10.68,65.42-20.19,93.62-34.87-2.99-4.88-6.04-9.69-9.14-14.47-1.72-.02-2.77.65-4.39.74-1.05.73,1.84.58,1.1,2.22-7.49,5.14-17.75,7.47-26.7,11.13ZM74.6,141.34c3.7-.94,7.46-1.83,10.6-3.34-3.8.84-7.67,1.62-10.6,3.34ZM39.86,151.36c1.84-.26,1.82,1.37,3.29,1.48,6.35-2.46,13.46-4.15,19.02-7.42-7.23,2.19-15.61,3.21-22.31,5.94ZM77.9,152.1c1.86-.59,3.77-1.11,5.12-2.23-1.76.69-3.72,1.18-5.12,2.23Z"/>
      <path class="cls-1" d="M196.01,124.28c-10.75,12.71-23.1,23.81-34.74,35.62-11.58,11.75-22.35,24.32-34.38,35.61-.88.81.57-.7.73-1.11,21.25-24.94,43.93-48.43,68.38-70.12Z"/>
      <path class="cls-1" d="M179.19,127.62c-5.53,7.26-12.73,12.79-19.38,18.92-19.51,17.97-38.29,37.52-58.15,55.65,23.25-26,51.15-50.5,77.53-74.57Z"/>
      <path class="cls-1" d="M217.96,138.01c-2.06,5.36-6.97,8.93-10.97,12.98-11.86,12.03-24.66,24.44-37.3,35.99,6.28-9.06,15.31-16.64,23.4-24.85,8.13-8.25,16.36-16.59,24.87-24.11Z"/>
      <path class="cls-1" d="M179.92,159.9c-7.49,9.6-16.72,17.41-24.87,26.34-8.08,8.86-16.64,17.25-24.87,25.97,15.11-17.34,32.17-36.04,49.73-52.31Z"/>
      <path class="cls-1" d="M233.32,316.82c-5.86,3.16-13.19,4.36-22.31,3.34-5.55,7.11-9.58,15.76-16.45,21.52,4.56-7.25,9.95-13.65,14.26-21.15-11.87-3.1-26.94-4.64-35.47-11.87-4.82-4.08-7.35-9.5-12.43-13.73-10.99,4.2-24.48,9.07-29.62-2.22-1.25-2.74-2.03-6.98-2.93-11.13-1.01-4.71-3.29-9.88-1.83-13.73,3.18-8.39,18.41-5.63,27.42-8.9-.02-12.74,5.57-22.12,11.7-29.68,5.62-6.92,11.06-12.27,21.94-14.84,13.67-3.22,30.92-4.58,40.96,2.6,1.77-1.67,2.12-4.78,3.29-7.05-1.55-4.75.55-10.82,1.83-16.32.97-4.17,1.19-9,4.39-10.39,6.71-.62,8.64,3.6,11.7,6.68-1.9,8.34-4.31,16.15-8.41,22.26h-4.75c-1.35,1.97-2.1,4.55-2.93,7.05,17.15,8.03,32.31,30.45,29.62,57.13-.69,6.85-3.64,14.71-6.58,20.77-3.75,7.75-11.58,12.99-19.38,17.43-10.89,14.43-21.2,29.44-34.38,41.55,8.96-12.8,21.64-25.04,30.35-39.33ZM241,201.81c1.11-2.34,3.67-5.18,2.56-8.53-.09,3.38-2.65,6.21-2.56,8.53ZM202.6,215.17c-18.49,1.29-32.46,9.34-40.23,23.37-3.85,6.96-6.29,15.33-5.48,26.71.53,7.47,1.41,15.5,3.66,20.78,2.41,5.65,6.67,9.71,10.61,14.1,2.28,2.54,4.72,5.46,6.58,6.68,5.06,3.32,14.51,5.33,21.94,7.42,2.59.73,5.19,1.65,7.31,1.86,13.28,1.25,23.06-.81,31.08-5.93,9.18-5.87,15.24-12.87,19.02-23.75,3.24-9.35,3.73-23.24.36-33.39-1.57-4.72-5.14-12.05-7.68-15.95-4.25-6.56-10.9-10.9-17.19-14.1-2.94,5.51.47,6.88,2.93,9.27,2.38,2.32,5.81,4.82,7.68,7.42,5.18,7.21,9.22,18.27,8.05,30.42-2.32,24.11-18.41,37.22-41.32,39.7-19.46,2.11-32.09-9.19-39.5-20.4-2.2-3.33-5.25-7.74-5.85-11.5-.9-5.65-.17-14.47.73-20.41,2.01-13.14,6.67-22.86,15.36-28.56,3.58-2.35,12.19-7.36,16.45-7.79,9.99-1.02,21.25,2.77,28.16,4.82.75-1.71,1.8-3.12,2.19-5.19-7.11-5.1-15.03-6.25-24.87-5.57ZM213.57,227.41c-16.15-2.74-30.45,2.26-34.37,11.87,6.91-5,18.77-10.03,31.08-8.53,4.21.51,10.61,4.17,12.8,0-2.35-1.73-6.05-2.76-9.51-3.34ZM198.94,284.92c1.79-2.25-1.89-4.2-1.83-7.05.97,1.15,1.84,3.43,4.02,2.22-.51-4.07-3.89-10.23-2.92-16.32.39-2.48,1.88-4.38,2.19-6.31-.18,5.65-.9,12.04.37,17.06,3.8.85,4.75,4.91,9.14,5.2,8.89.57,14.13-9.97,11.7-21.52-.8-.8-1.91-1.28-2.92-1.85,3.58-6.39,7.91-12.01,9.87-20.04-2.43.2-2.33,2.89-3.29,4.45-1.63,2.64-3.95,4.86-5.49,7.79-1.56,2.97-2.65,6.06-4.76,8.53v2.6c-2.08,1.1-3.41,2.97-4.75,4.82-.28-2.69.82-6.77-1.46-7.42-.29,2.97-1.79,8.52-1.46,9.65.04-.94.21-1.77.73-2.22.94,3.4.58,7.15-1.1,9.65-1.04-5.5-.19-12.92-2.93-16.69-.53,5.94.69,12.42,1.46,18.18-4.49-3.85-2.62-14.16-3.29-21.89-1.51.33-3.24,2.4-4.39,1.86-.14-4.96-.36-10.02,2.19-12.24-.55-.06-1.35.13-1.46-.37.04-1.7,1.61-3.37.73-4.82-4.18.58-2.73,6.88-5.12,9.27-.55-4.91,2.36-9.45,3.29-14.1-2.27-.91-3.3,1.89-4.39,3.34-13.44,3.52-26.25,14.26-23.4,33.39,1.71,11.52,13.33,21.56,21.94,24.86-7.35-9.27-19.5-18.74-16.46-35.24.87-4.75,4.63-7.15,7.31-10.76,3.28-4.41,5.24-9.83,9.87-12.25h.73c-4.94,13.89-4.79,40.39,5.85,48.23ZM235.14,238.54c-1.81-1.79-3.81-5.23-6.58-4.82.08.7-.41.82-.36,1.48,2.58.61,5.07,3.26,6.95,3.34ZM236.24,249.3c-.59-3.61-2.97-7.37-5.49-7.79,2.64,1.78,3.96,4.89,5.49,7.79ZM202.6,242.62c-.9,2.06-2.52,3.38-3.29,5.57,3.62-.54,4.82-3.52,6.58-5.94-1.51-.29-1.88.57-3.29.37ZM206.62,245.59c1.17.33.76-.96,1.46-1.12,1.21,1.73,4.99-.04,4.76-2.22-3.9-.74-4.93,1.42-6.22,3.34ZM214.66,245.22h2.19c.12-.86-.06-1.43-.37-1.86-1.3-.09-1.91.53-1.83,1.86ZM184.68,257.83c-.06-3.93,3.37-6.18,2.93-9.27-4.42,1.21-6.19,7.44-6.58,13.35-.98,14.78,4.33,24.79,12.07,29.68,1.69-.39,5.1.97,5.12-1.11-7.93-3.95-14.15-11.62-13.53-23,1.39,8.48,5.45,14.26,11.34,18.18-.79-2.88-3.86-4.86-5.85-8.16-3.08-5.11-5.94-16-2.56-21.52-.85.51-2.38,2.26-2.93,1.85ZM210.64,250.04c1.42-.09,1.9.8,2.92,1.11.11-.76.99-.73,1.1-1.49-.73-.47-3.83-.87-4.02.37ZM240.63,263.03c-.48,5.2-3.54,9.22-2.56,12.98,2.43-5.56,4.55-14.59,2.56-22.26-.19,3.35.26,6.43,0,9.28ZM229.29,257.09c1,.27.74-.73,1.46-.74.05-.92-.19-1.54-.73-1.86-.48.62-.97,1.25-.73,2.6ZM230.39,262.66c1.17.52.92-2.22.36-2.22-.42.44-.41,1.31-.36,2.22ZM130.19,268.97c.34,6.44,1.35,10.81,2.92,16.69,1.07,3.99,3,8.64,5.49,9.64,7.89,3.19,14.3-3.35,21.21-4.45-4.27-7.54-4.39-19.3-6.58-28.94-6.13,3.92-18.45,1.56-23.04,7.05ZM216.49,302.73c13.38-1.31,25.04-11.52,25.23-25.97-5.19,11.92-13.29,20.89-25.23,25.97ZM209.18,288.26c-5.16,1.02-8.22-2.05-11.7-1.48,2.43,2.37,8.37,4.25,11.7,1.48ZM196.01,300.87c-5.77-1.07-10.62-5.05-14.63-6.68,3.13,3.76,7.98,7.74,14.63,6.68Z"/>
      <path class="cls-1" d="M321.81,278.61c-3.61,7.27-9.87,12.57-14.99,18.55-15.16,17.7-30.68,35.82-47.18,52.68,14.03-18.13,30.11-36.25,46.08-53.79,5.38-5.91,10.21-12.23,16.09-17.44Z"/>
      <path class="cls-1" d="M95.45,156.19c15.71-4.22,30.39-12.69,46.81-17.44-5.79,4.14-12.64,6.71-19.38,9.65-13.27,5.77-27.28,11.03-41.69,16.32-6.94,2.55-14.16,5.54-21.58,6.31.52-2.02,3.25-2.29,4.76-2.96,12.49-5.65,25.5-12.78,38.76-18.18,7.68-3.13,15.33-6.81,23.04-9.64,3.94-1.45,7.91-2.99,11.7-4.82,3.3-1.6,7.25-4.8,11.34-3.34-.52,2.79-3.87,2.78-5.85,3.71-15,7-32,14.14-47.91,20.41Z"/>
      <path class="cls-1" d="M60.71,230.75c.26,6.83-3.79,12.47-5.49,18.55,7.99.41,14.99,2.44,21.21,5.57,13.31,6.69,21.71,17.99,20.11,39.32-1.7,22.76-18.91,37.2-40.59,39.33-16.86,1.65-32.49-3.75-42.05-13.73-2.32-2.42-3.94-5.59-6.22-9.28-1.54-2.5-5.53-6.33-6.22-8.91-.59-2.22-.9-6.98-1.1-8.9-1.62-16.08,5.38-34.33,14.63-41.55,1.84-1.44,5.19-2.92,8.41-4.45,6.76-3.21,15.06-7.06,25.6-3.71,2.82-4.77,4.56-14.29,11.7-12.24ZM53.03,245.59c.76-3.07,3.09-6.5,2.93-9.28-1.16,2.66-3.76,5.83-2.93,9.28ZM7.32,270.08c6.88-1.29,12.13,3.91,10.24,11.5,6.16.36,8.2,12.14,2.56,14.84,5.4,6.43-2.95,12.08-9.51,12.24,8.98,14.12,24.11,23.44,46.08,20.77,7.69-.94,16.95-4.63,22.67-8.9,10.52-7.85,15.03-23.88,13.17-39.7-.98-8.34-6.87-14.48-12.07-18.55-6.05-4.73-15.75-8.12-24.14-9.27-1.34,0-1.4-1.3-2.19-1.86-.68,4.52-5.32,11.95-5.12,18.18.05,1.6,1.55,2.35.73,4.08-1.49,3.14-7.79,2.91-8.05-.74-.17-2.43,2.12-2.7,2.93-4.83.81-2.13,0-4.82.36-7.79.63-5.15,3.11-10.56,3.66-14.47-21.19-2.45-36.48,8.51-41.32,24.48ZM10.97,284.17c1-2.49,3.59-3.2,4.02-4.82,1.31-4.9-3.88-7.47-8.78-6.31-.81,2.39-2.15,6.22-1.46,8.9.97-2.72,1.11-6.29,4.39-6.68-2.16,5.72-4.88,12.86-4.02,20.4,1.59-6.17,1.84-13.71,6.22-17.06-.74,6.76-7.93,18.8-2.56,25.97,5,.05,9.83-1.23,9.51-4.45-.21-2.08-4.16-2.38-4.02-4.45.19-2.82,4.37-1.71,5.85-4.08.95-6.3-3.61-6.76-8.05-6.68-.6,4.33-.31,9.57-2.56,12.24.43-3.5-.36-8.45,1.46-12.99Z"/>
    </g>
  </g>
</svg>