<?xml version="1.0" encoding="UTF-8"?>
<svg id="Capa_2" data-name="Capa 2" xmlns="http://www.w3.org/2000/svg" viewBox="0 0 300.44 282.76">
  <defs>
    <style>
      .cls-1 {
        fill: #fbfbfb;
        fill-rule: evenodd;
      }
    </style>
  </defs>
  <g id="Capa_1-2" data-name="Capa 1">
    <g>
      <path class="cls-1" d="M97.69.04c7.49,12.79-13.35,12.83-20.84,15.95-1.46.24-1.05-1.41-1.1-2.6-3.87-.41-8.61,1.32-9.14-2.22-.58-3.85,9.01-7.26,12.8-8.53C86.03.42,91.93-.17,97.69.04ZM70.63,10.43c8.08,1.38,12.07-3.32,17.19-3.71.02,1.73-4.22,2.75-2.56,3.71,3.79-.98,7.43-2.11,10.61-3.71.38-.98.44-2.28.37-3.71-10.81.16-19.22,2.76-25.6,7.42Z"/>
      <path class="cls-1" d="M12.48,46.79c-2.57-.42-3.67.4-5.12,0-2.12-2.64-5.57-8.11-4.75-13.36.34-2.18,3.4-5.26,5.49-7.79,2.29-2.78,3.9-5.13,5.48-7.42,2.96-4.25,7.97-13.07,12.8-13.35,4.15-.25,9.87,6.01,9.88,10.39,0,2.6-3.41,6.39-5.12,8.9-5.31,7.8-11.82,17.04-18.65,22.63ZM27.48,7.46c-5.85,2.14-8.42,8.16-12.8,14.47-3.01,4.34-8.88,8.66-9.51,11.87-.79,4.04,2,6.82,2.56,10.39,2.55-.87,5.85-.99,6.95-3.34.45-2.63-.93-7.12.73-8.53v6.68c2.47-1.95.07-8.84,2.93-10.39.27,2.75-.59,4.35-.36,7.05,3.13.08,3-6.36,4.39-9.27,1.05.95-.28,3.98.36,4.45,1.25-2.19.41-6.51,1.83-8.53,1.5.73.2,4.49.74,5.19,2.77-3.99,5.99-7.53,8.04-12.24-.83-3.73-3.19-5.91-5.85-7.79Z"/>
      <path class="cls-1" d="M58.92,53.09c-2.47,2.93-6.9,3.88-10.23,5.94,2.07-3.34,6.08-4.71,10.23-5.94Z"/>
      <path class="cls-1" d="M15.41,70.9c.56,10.07-1.58,20.34-7.67,24.86-.36-1.65,1.49-4.52,2.56-7.42,1.58-4.28,3.1-8.7,2.56-15.58-6.05.72-6.04,8.46-6.95,13.73-1.05,6.1-2.6,12.15-2.56,18.18,12.66,2.05,8.64-19.18,14.99-25.6,3.75,1.98.03,8.11-1.1,12.61-2.4,9.59-5.59,21.91-17.19,14.84-.34-7.48,1.09-13.07,2.56-20.03,1.89-8.98,2.3-18.4,12.8-15.58Z"/>
      <path class="cls-1" d="M151.08,77.94c-2.09-1.33-5.06-1.79-8.05-2.22,2.22-1.7,7.86-.6,8.05,2.22Z"/>
      <path class="cls-1" d="M297.73,82.03c3.94.14.56,6.06,1.1,10.39.18,1.5,1.28,2.19,1.46,3.34,1.05,6.51-3.41,17.41-4.75,23.75-5.45,25.67-15.19,49.6-19.75,73.08-2.55.88-5.73-.21-7.68-1.11-.69-9.16,3-17.68,5.12-25.97,2.12-8.28,4.41-16.49,6.95-24.49,2.6-8.21,3.62-16.85,6.22-25.23,2.56-8.25,4.88-16.44,6.22-25.23,1.09-1,2.34.1,3.29.37.19-3.39-.85-8.03,1.83-8.9ZM288.58,119.5c-2.31,8.01-3.95,16.24-6.22,23.74-2.33,7.71-4.24,16-6.22,23.74-1.45,5.71-3.84,11.44-4.75,17.44-.2,1.36-1.8,5.38,1.83,5.19,6.97-32.25,19.24-59.13,23.77-93.86-1.14-.33-1.7-1.24-2.92-1.48-.35,8.78-3.02,16.68-5.49,25.23Z"/>
      <path class="cls-1" d="M136.82,87.22c1.72.7-.26,2.23-1.83,1.86,0-1.24,1.47-.98,1.83-1.86Z"/>
      <path class="cls-1" d="M174.12,122.46c3.51.65,8.42-.13,9.51,2.97-1.73,3.02-8.47.52-9.88-1.48-.04-.67.45-.78.37-1.48Z"/>
      <path class="cls-1" d="M117.44,200.74c.43.06.31.68.36,1.11-3.95,3.94-7.93,7.74-12.07,11.5-4.04,3.68-7.5,8.44-12.8,10.76,7.41-8.56,16.21-15.71,24.5-23.37Z"/>
      <path class="cls-1" d="M188.02,211.5c.93,2.73-3.38,5.45-5.49,7.42-7.14,6.64-14.76,13.62-21.94,20.77-9.56,9.52-19.35,19.25-29.26,26.71,8.06-10.1,18.4-17.93,27.43-27.08,9.38-9.52,19.45-18.3,28.53-27.82h.73Z"/>
      <path class="cls-1" d="M192.77,221.89c.76.21.77.58.36,1.11-9.79,9.85-20.17,19.11-29.98,28.94-1.52-1.02,1.73-2.69,2.56-3.71,8.87-8.93,17.28-18.33,27.07-26.34Z"/>
      <path class="cls-1" d="M127.68,251.94c13.33-16.53,28.11-31.58,44.98-44.52-1.83-1.36-5.66-.69-7.68-1.85-16.46,13.47-30.88,29.01-48.27,41.55,14.29-14.69,29.69-28.26,44.98-41.92-2.64.12-5.93-3.26-8.78-2.97-2.08.22-4.88,4.39-6.95,6.31-15.25,14.08-33.33,29.29-46.81,43.4,2.49-5.27,6.86-9.55,10.97-13.73,12.29-12.47,26.85-23.97,39.49-36.36-3.61-1.28-7.88-1.9-11.7-2.97-14.28,15.44-30.2,29.21-46.08,43.03,12.86-16.02,30.02-27.67,43.52-43.03-5.6.1-9.23-.82-12.79-2.6-7.3-3.64-18.68.82-29.62-1.48-5.36,9.15-.96,28.21-16.09,27.45-7.28-6.33-12.42-18.42-9.51-32.65-5.56-.46-11.83-1.87-18.29-2.6-5.75-.64-12.42-1.22-17.19-3.34-4.02-1.79-8.96-7.49-9.87-11.87-2.16-10.29,1.46-26,2.92-36.36,3.15-22.3,9.14-44.82,12.43-66.03,2.41-15.52,2.36-37.04,12.8-43.78.99-.64,3.84-.92,6.21-.74,4.94.37,10.41,1.5,15.36,2.59,4.98,1.1,10.59,2.9,14.99,2.6,3.48-.23,6.9-3.08,10.24-2.6,4.88.7,6.22,5.81,8.05,10.39,9.15,4.23,17.02,10.44,29.99,11.5,12.28,1.01,27.6.12,42.05-.74,14.25-.85,29.73-1.76,42.42-.37,8.02.88,18.19,5.65,20.11,12.99,2.38,9.1,1.09,23.46,1.09,36.36,0,6.54.03,12.93,0,18.92-.07,13.58-3,29.23-1.83,44.15.83,10.6,1.81,21.5.36,31.54-.44,3.07-.48,6.33-1.46,8.16-1.66,3.09-7,5.93-9.88,7.05-10.15,3.94-30.93,4.61-44.25,2.22-2.64-.47-5.78-1.71-7.68-1.48-3.19.39-10.67,7.85-13.16,10.01-12.55,10.92-22.33,23.76-35.11,33.76ZM39.18,77.21c17.8-14.71,42-22.93,63.63-33.76-.31-3.33-3.67-5.44-6.22-6.68-11.49-5.58-29.64-6.07-44.61-8.53-10.9,9.6-8.19,33-12.8,48.97ZM92.57,31.94c2.82.36,5.61,2.71,7.68,2.6-1.15-2.66-4.63-4.98-7.68-2.6ZM107.93,50.12c-2.63.68-2.53,6.08-2.56,8.16,2.94-1.18,7.04-4.88,9.87-3.71-3.13,2.13-6.97,3.56-10.61,5.19-.31,2.78-1.13,5.03-1.09,8.16,5.1-1.15,9.2-5.23,13.9-5.56-4.09,3.15-9.77,4.68-14.26,7.42-.07,1.42-1.26,3.65-.36,4.82,3.48-1.54,7.49-4.52,11.34-4.45-3.32,2.94-8.48,4.01-12.43,6.31-.36,3.22-1.63,5.52-2.56,8.16,3.64-1.35,7.22-3.48,10.97-5.19,3.68-1.68,7.71-4.26,11.34-3.71-7.28,4.12-15.43,7.35-23.04,11.13-.66,2.18-.95,4.72-1.46,7.05,9.32-3.42,15.88-11.58,25.23-13.73.27,1.39-1.4.81-1.46,1.85.83.27,2.85-.67,2.56.74-6.93,6.57-17.74,9.21-26.33,14.1-.59,1.38-.3,3.65-.37,5.57,10.37-4.45,21.89-9.7,31.09-14.1-3.27,4.6-9.25,6.92-14.63,9.28-5.59,2.44-11.33,4.71-16.46,7.42v5.93c7.78-2.63,14.42-8.36,21.94-10.01-6.55,4.73-14.98,7.55-21.94,11.87v4.45c3.73-.67,6.98-3.8,10.61-3.34-3.24,1.79-7.02,3.02-10.61,4.45-.19,2.28.42,5.37-.36,7.05,6.34-2.11,11.97-6.9,18.65-7.42-5.5,3.82-12.6,6.01-18.65,9.27v6.68c5.41-1.93,10.58-6.09,15.72-7.05-4.77,3.2-10.35,5.57-15.72,8.16.2,1.77.38,3.57,1.1,4.82,6.22-2.84,12.72-7.37,19.38-8.53-5.18,4.76-13.13,6.71-19.38,10.39-.08,2.02.25,4.46-.37,5.93,4.93-1.3,8.89-5.57,13.9-5.56-3.96,3.16-9.13,5.08-13.9,7.42-.57,1.64-.1,4.35-.73,5.93,6.2-2.85,11.87-6.25,17.55-9.64-4.16,5.55-11.45,7.93-17.55,11.5.11,1.35-.06,2.41-.37,3.34,4.97-1.06,9.58-6.31,14.26-5.2-4.04,3.33-9.62,5.08-14.26,7.79-1.32,8.81-.77,19.5-2.56,27.82,9.27,2.29,20.87-1.1,29.62.74,2.3-28.08,5.62-57.89,6.95-87.55.79-17.59.61-35.75,3.66-52.31-11.77-.56-18.75-5.96-27.43-9.65.73,2.48-.56,7,1.83,7.79ZM102.81,51.23v-6.31c-22.49,9.95-45.44,19.45-63.63,33.76-4.81,25.88-12.72,54.97-13.9,82.36-.45,10.35,1.85,16.94,8.78,19.66,8.4,3.3,20.37,3.18,31.45,4.82,8.8,1.3,15.39,5.17,24.14,5.57,2.12-7.25,1.15-17.63,2.56-25.6-3.12,1.32-6.66,3.1-9.88,4.82-3.14,1.68-6.29,4.37-9.14,4.08,2.49-2.7,6.41-4.9,10.24-7.05,3.35-1.88,9.74-2.96,8.78-8.16-6.37,3.55-12.93,6.91-20.48,9.27,6.07-4.73,14.26-7.29,21.21-11.13.06-1.92-.23-4.19.36-5.56-10.67,4.38-19.82,10.31-31.08,14.1,9.31-6.63,21.5-10.35,31.08-16.7.84-1.12.13-3.82.36-5.56-11.26,4.65-22.23,11.57-32.91,15.58,10.52-6.39,21.58-12.24,32.91-17.81-.11-1.62-.42-3.03-.73-4.45-18.05,7.29-33.86,16.85-50.47,25.6,15.01-10.86,33.1-18.61,50.47-27.08v-6.3c-12.34,5.54-23.59,12.18-36.57,17.07,11.1-7.42,24.37-12.63,36.57-18.92-.4-2.47.72-6.65-.37-7.42-18.45,8.12-36.61,16.53-53.03,26.71,6.89-6.93,16.39-10.85,25.6-15.21,9.18-4.35,18.65-8.87,28.16-12.61-.23-1.37.48-3.7-.36-4.45-9.72,5.1-20.19,9.44-29.99,14.47,9.03-6.41,19.96-10.91,30.35-15.95v-5.94c-13.6,6.74-26.92,13.75-39.86,21.15,4.28-6.42,12.15-9.11,19.01-12.61,7.05-3.6,14.03-7.7,20.85-11.13v-5.56c-10.31,4.62-20.93,9.83-30.35,14.84-3.27,1.74-6.35,4.06-9.88,4.82,5.49-5.07,12.72-8.22,19.38-11.87,6.78-3.71,13.72-7.31,20.85-10.39.51-2.2.32-5.12,1.1-7.05-10,4.36-20.01,9.85-29.62,14.47-3.29,1.58-6.51,3.52-9.87,4.45,11.93-8.42,26.53-14.14,39.86-21.14.99-2.71,1.93-5.46,2.92-8.16-15.61,7.41-29.85,16.21-44.98,24.11,13.67-10.36,30.27-17.76,45.71-26.34.07-1.78.98-2.72.73-4.82-12.87,5.25-25.46,12.75-37.3,17.81,11.59-7.41,24.36-13.63,37.67-19.29.22-2.5,1.51-5.88.74-8.16-14.2,6.99-27.81,14.57-42.42,21.14,13.34-8.97,29.27-15.32,43.52-23.37.18-2.41.78-4.41,1.09-6.68-19.48,8.8-37.31,19.27-55.58,29.31,16.49-12.58,36.47-21.62,55.95-31.17ZM215.44,206.68c6.03-.76,17.33-4.28,19.38-8.9,1.11-2.5,1.6-8.28,1.83-11.13.55-6.93.13-14.14-.36-20.78-1.76-23.59,1.1-44.93,1.09-69.38,0-10.07,1.47-28.93-1.46-35.98-1.79-4.31-10.68-8.59-16.09-9.28-6.72-.86-14.37,0-21.2,0-22.31,0-41.17,1.12-62.54.74-3.83,47.07-4.27,97.56-10.24,142.46,10.09-.62,16.26,2.14,24.14,3.71,1.52.3,3.25-.01,4.75.37,4.16,1.07,7.98,3.14,13.16,4.08,2.82.51,7.03,1.72,8.41,1.48,2.14-.36,1.74-2.45,3.66-2.23.74,1.52-1.62,2.92,0,2.97,9.2,1.65,22.9,3.43,35.47,1.85ZM112.32,87.59c2.97-1.31,6.05-2.52,8.41-4.45-3.52.29-7.7,3.77-8.41,4.45ZM70.63,190.73c-.1,3.69-1.04,9.07-.36,13.35.66,4.19,5.56,14.51,8.78,14.84,7.68.78,6.85-19.99,10.24-24.12-6.37-1.2-12.74-2.41-18.65-4.08Z"/>
      <path class="cls-1" d="M71.36,52.35c-4.08,3.41-10.25,4.7-14.63,7.79-.41-.07-.2-.37,0-.37,4.37-2.98,9.11-5.6,14.63-7.42Z"/>
      <path class="cls-1" d="M175.22,72.01c6.69-2,14.3-8.23,22.31-8.9-1.7,4.51-7.01,6.18-10.97,8.53-12.14,7.22-25.09,15.74-37.3,23-.62-1.83,2.5-2.84,4.39-4.09,12.93-8.52,28.45-17.39,41.69-25.97-19.24,7.32-35.25,17.91-52.66,27.08,2.7-4.21,7.53-6.68,11.7-9.27,12.48-7.76,27.08-14.14,38.76-23-15.04,3.29-25.95,10.77-38.76,16.32,12.33-6.41,23.82-13.68,39.49-16.69-4.45,6.11-12.42,8.67-18.65,12.98Z"/>
      <path class="cls-1" d="M217.27,174.4c1.81,1.05,1.79,5.38,1.1,7.79-2.81,2.1-11.21.5-13.9,1.49,1.68-3.62,8.94-1.57,12.43-3.34.07-1.43.01-2.73-.36-3.71-2.76-.21-2.3,2.86-5.12,2.6-.94-.58-1.03-3.42-.37-4.45-.47-.64-1.74-.46-1.83-1.48.81-5.97,1.42-14.1,1.47-20.41.01-1.76,1.22-3.84-.73-4.82-2.32,3.83-1.07,11.28-3.66,14.84-4.22-.17-2.61-6.25-3.29-10.02-.99-.04-2.44.42-4.39.74-1.19-6.42.46-13.12,1.83-18.18,4.95-1.65,4.7-8.58,9.15-10.76-1.15-.41-3.32.18-2.93-2.6.16-1.69,2.7-.97,2.93-2.6,1.83-10.03-.08-18.73-2.93-25.97-2.46.79-.44,4.01-.37,6.3.06,1.7-.13,3.91-.37,5.57-1.44,9.98-8,26.75-15.36,32.28-1.66,1.25-3.72,1.82-5.49,2.23.05,4.5-1.85,7.03-2.56,10.76-1.1-1.11-.73-3.71-1.83-4.82-1.8,3.05-10.59,4.4-10.98-2.22.68-1.05,2.11-1.33,3.29-1.86.22-2.01.67-3.78,1.1-5.57-4.49-2.24-7.94-5.55-9.51-10.76-4.75,2.48-8.07,6.41-13.9,7.79,2.87-4.88,9.47-5.97,13.16-10.02-.58-2.87-1.13-5.78-1.1-9.27-6.29,2.15-10.56,6.35-17.19,8.16,4.5-6.69,12.3-10.02,18.65-14.84.69-3.39,2.17-5.96,3.66-8.53-9.62,4.71-18.9,12.98-28.89,18.55,6.46-7.17,15.85-13.35,24.5-18.92,2.3-1.48,5.66-2.24,6.58-5.19-8.43,4.03-17.14,9.98-25.23,15.95-2.54,1.87-4.88,5.27-8.4,4.82,8.85-10.81,21.43-17.83,32.91-25.97.27-6.94,6.7-6.37,11.7-7.79,3.84-1.09,8.6-4.67,12.44-7.05,4.15-2.58,8.04-5.46,10.97-8.16-.91,3.81-5.34,5.9-8.78,8.16-3.57,2.35-7.53,4.66-10.97,6.68,9.58.8,15.39-7.36,23.77-7.79-1.01,3.01-4.41,4.04-6.95,5.57-2.51,1.51-5.34,2.85-7.31,4.82,2-.05,3.9,0,5.12.74.81-3.22,6.79-8.3,8.78-2.6,1.58-.25,1.5-2.18,3.66-1.85.45,3.26-4.01,2.38-2.56,5.56,21.6-.8,22.12,40.2,6.58,47.86-1.31,11.16-1.57,23.38-2.56,34.87.75.73,1.14-3.59,2.56-2.23-.29,4.16-1.75,7.12-2.56,10.76,1.17-.54,2.03-1.4,4.02-1.11ZM191.31,80.91c1.74-.09,2.64-1.03,3.65-1.85-1.42.41-2.64,1.03-3.65,1.85ZM205.2,82.77c.61-.74-.03-.47,0-1.48-1.41-.29-1.41,1.77,0,1.48ZM187.28,86.48c1.11-.23,3.15.47,3.66-.37-.66-1.45-3.07-.48-3.66.37ZM172.29,89.08c1.09-1.37,3.33-1.56,4.02-3.34-1.51.94-3.59,1.31-4.02,3.34ZM196.8,87.22c.11-.98-.51-1.22-1.47-1.11-.11.98.51,1.22,1.47,1.11ZM218.74,98.72c1.67,2.64,3.48,5.13,4.75,8.16-.15-8.56-4.53-20.35-12.8-19.29,1.49,5.3,7.66,7.79,9.14,11.87-.4-.16-1.89-1.64-1.09-.74ZM159.86,97.24c2.9-2.74,7.42-3.85,9.87-7.05-3.37,2.02-8.09,4.65-9.87,7.05ZM167.9,104.66c6.24-3.68,12.79-7.05,18.65-11.13-9.67-3.84-17.4,2.84-18.65,11.13ZM196.8,96.12c-3.01.76-5.24-.7-8.05-1.48-4.64,3.2-10.02,5.67-14.63,8.9,1.41.3,1.15,2.3,2.56,2.6,8.02-3.61,16.09-7.17,25.96-8.91-.13-1.47.34-3.55-.36-4.45-2.38-.36-3.24,2.77-5.48,3.34ZM180.34,105.4c2.03,3.07-1.35,6.69-2.19,9.28,2.53-1.6,5.85-2.52,8.05-4.45,1.33-1.18,1.44-2.98,2.92-3.34,4.78-1.15,6.73,5.36,2.93,6.68-1.66.58-3.57-.59-5.48-1.85-2.68,2.22-6.35,3.46-8.78,5.93,1.3-.08,1.91.53,1.83,1.86-1.22,2.2-3.56.25-5.48,0-1.3.41-1.86,1.57-3.29,1.85.99,3.45,3.76,5.09,5.12,8.16-3.06-1.6-3.87-5.47-6.95-7.05,2.45,4.68,5.81,8.45,9.14,12.24,10.93-.28,14.53-9.2,18.28-17.07,2.88-6.02,5.73-12.98,6.22-19.66-8.38,1.52-15.49,4.32-22.31,7.42ZM216.54,102.8c.76-1.16-1.55-4.01-2.19-3.71,1.03.93,1.16,2.78,2.19,3.71ZM181.07,137.3c3.17,1.54,6.69.17,8.78-1.48,8.07-6.4,12.02-22.2,14.26-33.02-4.93,14.28-9.05,29.4-23.04,34.5ZM215.08,110.96c.54-2.25-.8-5.2-1.83-7.04-.12,3.08.94,4.97,1.83,7.04ZM167.9,110.96c-.08,3.8.67,6.75,2.19,8.91.67-1.05,2.35-1.08,2.92-2.22-.54-.07-.33-.9-.36-1.48,3.19-2.32,5.34-5.71,6.58-10.02-3.1.82-7.87,3.15-11.34,4.82ZM220.56,115.04c.41-3.21.51-6.81-1.46-8.53-.02,3.36-.31,6.99,1.46,8.53ZM168.27,110.22c.29-.82,1.72-.48,1.83-1.48-1.05-.16-.86-1.6-1.83-1.85-.72.41-1.33,3.07,0,3.34ZM147.42,121.35c5.01-3.2,10.63-5.79,15.73-8.9-.43-.98.7-2.18,0-2.22-4.78,3.93-12.05,7.32-15.73,11.13ZM168.27,120.98c.2-2.61-1.22-6.63-2.19-9.27-.66,3.07.6,7.27,2.19,9.27ZM212.52,123.58c2.93.73,2.43-3.96,1.83-5.57-.82,1.64-2.36,2.55-1.83,5.57ZM216.18,126.55c1.33-2.03,4.97-5.53,3.65-7.79-1.15,2.42-2.88,6.21-3.65,7.79ZM173.75,132.48c-2.78-2.37-4.2-6.13-6.95-8.53,1.1,3.84,3.45,8.38,6.95,8.53ZM208.86,140.64c-1.21-4.34.7-9.37,0-12.24-3.44,2.31-2.86,9.56,0,12.24ZM210.69,138.42h2.56c.14-2.08.56-3.88.36-6.31-1.53.31-1.73-.72-2.92-.74-.07,2.12-.92,5.12,0,7.05ZM178.14,141.01c-.09-1.33,1.1-1.36,1.1-2.6-1.28.07-1.2-1.25-2.19-1.48-.13,1.87.62,2.83,1.1,4.08ZM200.45,148.43c-.1-.79.28-3.96-.36-2.97.1.79-.28,3.96.36,2.97Z"/>
      <path class="cls-1" d="M191.67,123.2c-3.18,4.31-8.63,6.34-12.8,9.65,2.42-3.61,7.6-7.62,12.8-9.65Z"/>
      <path class="cls-1" d="M167.17,146.95c5.44,1.41,9.91,3.8,14.99,5.56-4.29,5.29-10.47-1.01-17.19,0,6.13,2.77,14.75,6.69,23.04,4.82,4.18.67,16.61,4.08,7.68,7.79,1.14,1.31,3.69,1.2,2.93,4.45,2.28.08,1.68-2.74,3.29-3.34,1.75.53,2,.52,3.66.74-.11,2.9-2.73,2.45-.73,4.82h-2.19c-2.21,5.05-3.46,11.08-6.58,15.21,2.18,1.09,5.2-.16,7.68,0-1.01-2.18,14.37.48,16.46,2.6-1.47,3.06-5.02.65-8.05.37-6.65-.62-14.81.44-21.57.74,5.17,1.55,12.93.48,16.82,3.34-.96,1.43-3.44,1.14-4.75,1.11-11.2-.21-26.02-4.54-38.76-2.23.85,1.86,4.38,1,5.49,2.6-2.91,1.93-8.54-.3-8.05-3.34.75-4.57,14.78-2.14,20.48-2.23-1.43-2.15-4.86-2.32-7.31-2.97-7.44-1.98-16.7-3.76-25.6-4.45-3.31-.26-8.22,1.06-10.97-1.11.75-3.16,5.14-1.74,7.68-1.85,7.81-.36,17.5-.83,25.6.37-5.32-3.88-15.86-2.46-21.58-5.93,1.65-2.84,5.7-1.06,8.41-.74,8.96,1.04,18.54,3.43,25.6,4.82.11-1.51-.51.06-1.46-.37,5.21-2.26,2.38-12.68,5.85-16.69-5.24-.71-9.22-1.1-13.53-2.22-5.61-1.47-8.66-4.39-15.73-4.45.3,6.43.2,14.15-3.65,17.44-1.85-.22-1.85-2.33-1.83-4.45-.86-.01-1.08.64-2.2.37-1.14,3.47-2.69,5.67-2.56,9.65-2.13,1.24-1.98-1.63-2.93-2.97-1.63-2.33-4.48-5.1-2.2-9.65,2.74.23,2.68,1.4,5.85.74-4.73-10.68,8.07-14.57,17.19-15.95.87-.23-.06-2.28.73-2.6ZM152.18,164.39c1.15.18.83-1.14,2.19-.74,1.17.05.81,1.65,1.46,2.22.5-2.97,1.84-7.03.74-10.39-1.66,2.56-5.99,5.4-4.39,8.91ZM150.35,161.42c.1-1.64,2.25-3.14,1.83-4.08-.63,1.1-2.9,2.49-1.83,4.08ZM191.31,169.58c4.05-1.01,1.02-5.92-1.46-6.68.6,2.12.76,4.67,1.46,6.68ZM192.4,174.03c.08-.7,1.47-1.93.73-2.23-.49.27-1.89,1.5-.73,2.23ZM191.31,178.48c-1.35-.48-1.36-2.33-2.2-3.34-1.44,1.01-2.48,2.43-2.56,4.82,2.46.96,5.49,1.35,7.68,2.6.38-2.34,1.76-5.63,1.1-7.79-1.01,1.58-1.23,3.95-4.02,3.71ZM181.07,180.71c-1.32.33-2.44-1.44-3.29-.37.84.16,2.36,1.53,3.29.37ZM192.4,187.39c.49-.74.7-1.77,1.1-2.6-3.28-.26-6.56-.52-9.88-.74,1.63,2.43,6.41,1.66,8.78,3.34Z"/>
      <path class="cls-1" d="M294.07,243.41c-1.58,2.55-3.76,2.22-5.85,3.34-3.85,2.06-8.54,5.67-11.7,8.91-1.43,1.46-2.33,3.52-4.02,4.45-2.52,1.38-7.18,1.7-10.97,2.6-17.66,4.15-35.97,10.18-53.39,14.47-7.11,1.75-13.3,6.03-20.48,5.56-2.07-.98-1.89-3.34-3.29-6.31-1.08-2.27-2.86-4.27-1.83-6.68,1.06-2.47,8.68-3.03,13.16-4.08,13.82-3.24,28.37-6.37,40.96-9.65,20.75-5.4,36.44-11.63,51.93-15.58,2.21-.57,3.95-.43,5.49,2.97ZM194.6,276.8c24.43-6.26,49.81-14.77,76.07-20.4,1.43-2.39,4.77-4.8,5.85-6.31-26.87,9.34-55.02,17.39-81.92,26.71ZM226.41,262.7c-12.03,2.76-24.38,5.2-36.2,8.16.35,1.25,1.38,1.81,2.19,2.6,10.58-4.35,23.33-6.51,34.01-10.76Z"/>
    </g>
  </g>
</svg>