<?xml version="1.0" encoding="UTF-8"?>
<svg id="Capa_2" data-name="Capa 2" xmlns="http://www.w3.org/2000/svg" viewBox="0 0 786.45 736.39">
  <defs>
    <style>
      .cls-1 {
        fill: #fff;
      }
    </style>
  </defs>
  <g id="Capa_1-2" data-name="Capa 1">
    <path class="cls-1" d="M316.58,562.63c-.89-.86-9.11-15.46-9.59-16.92-.9-2.76-.33-5.64-1.27-7.73-.57-1.26-2.86-2.06-3.34-3.73-2.22-7.81,3.9-26.5,6.13-34.5,11.23-40.23,27.06-62.43,47.75-97.03,6.79-11.36,8.02-30.74,10.41-44.81,3.79-22.29,11.55-57.26,5.08-78.97-.81-2.73-3.71-5.28-3.52-8.4s4.58-6.03,5.52-9.54c2.65-9.88-5.79-15.46-5.34-20.28.67-7.26,7.09-11.72,14.24-10.72,8.34,1.18,7.34,15.73,12.13,20.91,1.69,1.83,4.88,2.32,6.96,4.04,7.22,5.94,4.17,11.76,6.75,18.25.81,2.05,3.15,3.19,3.58,5.5s-1.05,5.74-.93,8.78c.9,22.73,8.84,42.03,4.84,65.75-.86,5.07-6.53,11.92-8.49,17.51-2.44,6.96-2.25,13.69-3.72,20.28-7.3,32.81-30.48,75.94-46.79,106.21-3.73,6.92-10.3,13.94-13.66,21.34-1.43,3.15-8.29,21.86-7.92,23.65.29,1.39,1.69,2.58,1.73,4.23.17,8.45-12,24.47-20.56,16.18Z"/>
    <path class="cls-1" d="M583.91,62.67c-.86,1.02-3.1,1.7-4.25,3.24-2.9,3.86-1.05,22.29-1.39,28.61-1.11,20.66-4.28,41.42-6.03,61.97-3.33,39.08-5.73,78.3-11.86,117.04.16,4.46,9.58,7.46,8.85,14.85-.81,8.14-10.91,3.22-12.77,9.32-5.32,37.67-12.61,75.14-20.71,112.29-7.28,33.41-15.33,68.08-23.8,101.2-2.02,7.9-4.38,19.58-7.22,26.78-.47,1.21-1.04,2.75-2.48,3.01.18-8.66,4.42-17.18,5.91-25.58,4.95-27.99,9.81-55.58,15.62-83.38,8.71-41.71,16.69-83.48,20.46-126.03h-2.99s-1.14,14.36-1.14,14.36l-2.85,10.63,2.98-28.99c-5.93,1.02-12.49,4.68-18.53,5.02-19.28,1.07-47.94-2.75-65.15-11.84-17.32-9.16-14.41-15.37-24.75-27.25-3.27-3.76-15.6-11.83-16.42-16.67-.32-1.89.69-3.27.66-4.76-.04-2.18-2.38-6.28.84-7.36,6.91-1.39,12.14,3.5,18.33,5.38,6.54,1.99,14.55,2.33,21.07,3.93,22.46,5.51,38.54,14.7,62.21,18.79,4.49.77,21.36,8.87,24.81,6.34,2.31-1.7,2.51-24.53,2.94-29.07,4.39-47.31,10.42-93.96,15.98-141.02,1.06-9,.7-18.7,2.15-27.85.21-1.33.35-5.43,1.85-5.63,1.63,5.53-3.19,14.42,1,17.99,1.14-.86,1.52-17.98.98-20.29-.16-.69-1.55-.63-1.88-1.49-1.23-3.16-4.05-8.05-4.63-10.19-1.43-5.3,4.4-23.49,6.5-29.57C569.34,23.13,578.85-.05,580.73,0c1.07.76,1.5,1.83,2,2.98,4.18,9.77,7.54,52.11,1.18,59.68Z"/>
    <path class="cls-1" d="M323.94,132.28c1.38,1.11,2.29,4.68,5,5.5,3.64,1.1,7.03-1.1,10.66-.76,3.27.31,5.65,2.82,8.55,3.54,5.4,1.34,7.93-.55,13.11,3.89,2.05,1.76,4.23,6.26,5.97,7.03,2.63,1.16,8.62-.36,9.82,3.17,2.18,6.41-7.21,25.61-7.83,33.85s5.61,11.67,3.55,21.54c-2.38,11.37-25.32,17.37-35.1,15.99-1.88-.27-8.61-3.78-9.98-5.02-2.84-2.59-7.01-16.31-10.06-20.94-7.88-11.98-16.85-14.6-22.47-31.53-3.05-9.19,2.1-31.47,11.81-35.3,3.49-1.38,13.91-3.4,16.96-.96Z"/>
    <path class="cls-1" d="M436.69,577.54c2.17,2.96,4.85,15.59,4.44,19.83-1.01,10.43-6.55,25.11-19.31,23.53-10.11-1.26-5.24-11.21-8.7-19.35-1.63-3.83-7.02-5.27-8.44-9.51-1.78-5.33-2.49-12.77-3.9-18.1-6.29-23.82-12.73-45.23-10.45-70.34.55-6.08,3.35-12.96,3.88-19.13.62-7.21-1.95-29.1,7.77-31.34,2.01-.46,3.06,1.59,4.79,1.83,4.66.63,10.92-1.36,12.3,5.77.55,2.87-1.08,4.91-.67,7.51s3.91,6.2,5.04,9.05c4.6,11.66.93,20.73.77,31.25-.27,17.6,1.56,41.29,5.31,58.67,1.55,7.19,3.59,5.44,7.18,10.34Z"/>
    <path class="cls-1" d="M773.95,648.27c2.04,1.76,4.43,10.43,4.38,13.23-.19,10.79-13.78,4.86-20.6,4.49-4.45-.24-24.85-.25-27.07,2.96l.58,13.04c11.41,2.05,34.83-10.09,29.79,11.28-1.75,7.41-20.33,7.94-26.79,8.71l1.89,11.42c1.08,1.6,19.02-1.14,22.33-1.71,3.95-.68,21.67-5.76,23.16-5.48,2.18.41,4.01,4.45,4.39,6.5,1.42,7.66-.25,12.73-7.52,16.01-8.82,3.98-44.9,7.45-54.66,6.17-7.73-1.01-10.62-4.81-13.26-11.74-4.34-11.39-7.15-38.44-6.36-50.71.96-14.9,2.08-18.56,16.25-22.75,10.53-3.11,45.33-8.46,53.5-1.42Z"/>
    <path class="cls-1" d="M371.96,646.2c1.77-.16,7.3.85,9.1,1.45,11.39,3.77,24.66,30.84,26.68,31.33,1.63.39,2.15-1.24,2.44-2.55,1.44-6.44,4.08-23.17,11.61-24.38,4.59-.74,16.7.13,16.43,6.32-.1,2.28-2.14,5.75-2.69,8.41-2.78,13.33-5.55,30.2-5.33,43.75.22,13.65,9.5,27.52-11.22,24.21-12.7-2.03-13.35-17.59-18.01-27.99-1.7-3.79-16.18-30.34-18.25-30.76l-2.33,1.65c.21,7.62-2.18,16.44-2.22,23.83-.03,5.1,3.45,24.8,1.61,27.55-5.36,2.91-19.36.83-22.41-4.67-6.42-11.61-1.76-42.27,1.16-55.57,1.66-7.56,4.28-21.77,13.43-22.57Z"/>
    <path class="cls-1" d="M291.87,650.34c9.44,9.48,26.96,55.02,27.28,68.3.17,6.87-2.71,10.57-8.69,13.08-19.17,8.02-12.83-6.53-18.39-16.06-2.15-3.68-6.2-.21-9.43.24s-13.34.57-15.42,1.58c-4.1,1.99-2.35,15.28-6.21,16.85-7.62,3.1-20.29-2.51-21.51-11.1-1.98-14.01,14.74-66.58,25.24-76.22,6.87-6.31,21.01-2.8,27.13,3.35ZM287.21,703.94c1.14-1.61-7.29-19.47-9.48-21.94-1.88,0-9.51,22.95-8.5,23.98l17.98-2.04Z"/>
    <path class="cls-1" d="M53.22,714c-7.86-2.01-9.79-16.4.51-16.1,5.04.15,30.75,10.41,33,14.08,4.34,7.09-14.04,20.11-19.95,22.05-34.55,11.34-72.32-20.05-66.11-56.11,4.69-27.22,53.11-37,74.85-27.74,8.17,3.48,7.61,9.15,5.22,16.81-4.57,14.67-11.13,6.82-20.98,5.95-8.77-.78-19.94.42-27.03,6.04-11.2,8.87-8.25,27.57,4.12,33.88,3.18,1.62,16.42,7.02,16.37,1.14Z"/>
    <path class="cls-1" d="M162.01,658.18c2.33,4.06-6.19,24.58-6.77,31.31-.98,11.56.82,24.16,13.9,12.9,10.33-8.89,11.11-33.23,9.09-45.83.98-7.05,19.24-13.21,23.04-7.14,4.57,7.3.4,33.54-1.73,42.38-6.01,24.96-19.74,46.62-48.71,43.06-22.16-2.72-25.62-22.75-24.65-41.43.38-7.31,4.35-36.91,11.06-39.94,3.58-1.62,22.99,1.59,24.77,4.69Z"/>
    <path class="cls-1" d="M660.68,657.55c.25.36,1.35.37,1.52,1.14,1.57,7.19-2.93,17.28-5.8,23.97-1.39,3.23-8.2,14.79-8.15,16.86.11,5.11,19.3,13.24,19,18.88-.27,5.09-12.84,14.08-17.78,14.36-5.7.32-12.29-5.85-16.92-8.64-7.62,5.72-9.92,12.86-21.38,10.42-3.9-.83-15.83-7.57-14.79-11.81s12.42-13.08,15.58-16.99c.55-.93.49-2.17.28-3.19-.54-2.56-11.04-14.67-13.42-18.65-3.7-6.18-9.38-15.91-5.03-22.87,2.55-4.1,10.56-9.78,15.44-7.53,2.92,1.35,12.41,18.93,16.14,22.86,2.58,2.72,3.75,1.96,5.73-1.02,3.24-4.89,8.98-24.05,13.19-25.89s13.8,4.39,16.42,8.11Z"/>
    <path class="cls-1" d="M551.98,650.24c1.55,1.46,4,11.91,4.16,14.38,1.05,16.59-17.82,10.15-21.87,22.94-.24,10.56,6.6,32.35,3.78,41.73-1.54,5.11-18.73,8.24-22.83,3.21-5.85-7.19-4.44-30.8-10.12-40.88-4.42-7.84-19.94-1.52-26.29-7.71-3.5-3.41-6.35-21.62-3.68-25.35,6.14-1.37,12.05.64,18.61.4,8.42-.3,19.22-2.74,27.69-4.3,7.17-1.32,17.15-5.01,23.44-5.6,2.08-.19,5.55-.3,7.12,1.18Z"/>
    <path class="cls-1" d="M308.56,400.32c-.81.61-1.11,2.54-2.31,3.2-3.2,1.77-5.5-1.63-8.29-2.77-1.87-.76-4.01-.52-5.69-1.31-4.05-1.92-7.4-9.48-7.03-13.86.47-5.6,8.7-9.66,11.31-13.86,2.13-3.43,3.3-10.58,5.17-14.73,5.83-12.91,12.03-25.84,16.56-39.44,1.36-4.08,4.53-25.27,9.32-24.5,5.58.9.66,11.8.91,14.3.37,3.79,4.02,8.4,3.81,14.15-.15,4.11-3.05,8.59-3.13,13.04-.08,5.07,2.13,11.5,2.11,16.96-.05,12.59-2.69,30.33-10.65,40.41-3.6,4.57-7.79,5.19-12.1,8.41Z"/>
  </g>
</svg>